<?xml version="1.0" standalone="no"?>
<!DOCTYPE svg PUBLIC "-//W3C//DTD SVG 20010904//EN"
 "http://www.w3.org/TR/2001/REC-SVG-20010904/DTD/svg10.dtd">
<svg version="1.0" xmlns="http://www.w3.org/2000/svg"
 width="40pt" height="40pt" viewBox="0 0 52.000000 52.000000"
 preserveAspectRatio="xMidYMid meet">
<metadata>
Created by potrace 1.10, written by Peter Selinger 2001-2011
</metadata>
<g transform="translate(0.000000,52.000000) scale(0.050000,-0.050000)"
fill="#1175ee" stroke="none">
<path d="M554 851 c-25 -25 -34 -69 -34 -165 0 -110 -4 -127 -28 -107 -46 37
-59 -12 -18 -68 52 -71 72 -73 143 -18 64 51 68 98 6 78 -43 -14 -36 220 7
236 41 16 110 -9 110 -39 0 -17 21 -28 50 -28 55 0 64 33 25 87 -38 51 -217
68 -261 24z"/>
<path d="M712 662 c-51 -53 -45 -105 8 -72 12 8 20 -33 20 -108 0 -112 -4
-122 -49 -134 -57 -14 -91 2 -91 43 0 18 -20 29 -51 29 -58 0 -54 -67 7 -115
125 -98 264 -6 264 174 0 106 4 122 28 102 57 -47 57 21 0 81 -68 71 -68 71
-136 0z"/>
<path d="M309 605 c-35 -6 -96 -101 -185 -290 -4 -8 16 -15 45 -15 29 0 57 14
64 30 7 19 38 30 87 30 49 0 80 -11 87 -30 12 -31 93 -43 93 -13 0 28 -118
279 -135 288 -8 4 -34 4 -56 0z m51 -160 c0 -14 -18 -25 -40 -25 -46 0 -48 7
-18 64 23 43 57 20 58 -39z"/>
</g>
</svg>
