<?xml version="1.0" standalone="no"?>
<!DOCTYPE svg PUBLIC "-//W3C//DTD SVG 20010904//EN"
 "http://www.w3.org/TR/2001/REC-SVG-20010904/DTD/svg10.dtd">
<svg version="1.0" xmlns="http://www.w3.org/2000/svg"
 width="40pt" height="40pt" viewBox="0 0 52.000000 52.000000"
 preserveAspectRatio="xMidYMid meet">
<metadata>
Created by potrace 1.10, written by Peter Selinger 2001-2011
</metadata>
<g transform="translate(0.000000,52.000000) scale(0.100000,-0.100000)"
fill="#1175ee" stroke="none">
<path d="M233 436 c4 -10 -2 -16 -16 -18 -20 -3 -22 -9 -22 -58 0 -48 -6 -66
-47 -136 -27 -44 -48 -86 -48 -93 0 -26 36 -4 58 36 23 42 23 42 71 36 27 -3
57 -1 68 6 18 9 23 6 37 -24 9 -19 23 -41 32 -50 40 -39 47 4 9 55 -29 39 -30
48 -11 69 8 9 18 28 21 44 6 23 4 27 -13 27 -15 0 -22 -9 -27 -30 -4 -16 -10
-30 -14 -30 -14 0 -34 48 -25 61 18 29 12 60 -16 89 -31 31 -66 41 -57 16z
m41 -62 c8 -21 -1 -34 -24 -34 -22 0 -33 23 -17 39 16 16 34 14 41 -5z m15
-106 c16 -25 11 -30 -33 -31 -43 -1 -51 5 -37 31 13 25 54 25 70 0z"/>
</g>
</svg>
