<?xml version="1.0" standalone="no"?>
<!DOCTYPE svg PUBLIC "-//W3C//DTD SVG 20010904//EN"
 "http://www.w3.org/TR/2001/REC-SVG-20010904/DTD/svg10.dtd">
<svg version="1.0" xmlns="http://www.w3.org/2000/svg"
 width="40pt" height="40pt" viewBox="0 0 52.000000 52.000000"
 preserveAspectRatio="xMidYMid meet">
<metadata>
Created by potrace 1.10, written by Peter Selinger 2001-2011
</metadata>
<g transform="translate(0.000000,52.000000) scale(0.100000,-0.100000)"
fill="#1175ee" stroke="none">
<path d="M170 408 c-47 -17 -86 -32 -88 -34 -3 -2 28 -248 31 -250 1 0 35 -19
75 -42 41 -23 75 -42 77 -42 3 0 144 79 153 86 3 2 32 217 32 240 0 9 -173 76
-190 73 -3 0 -43 -14 -90 -31z m168 -15 c43 -14 80 -29 85 -33 4 -3 2 -54 -5
-113 l-11 -107 -71 -39 -71 -39 -65 35 c-36 20 -67 37 -69 39 -5 4 -30 218
-26 222 2 3 138 57 153 61 2 1 38 -11 80 -26z"/>
<path d="M209 276 c-55 -122 -56 -126 -34 -126 18 0 25 7 30 30 6 29 9 30 60
30 49 0 53 -2 65 -30 7 -18 20 -30 31 -30 21 0 22 -2 -57 168 l-39 83 -56
-125z m80 4 l19 -40 -39 0 c-21 0 -39 2 -39 5 0 7 33 75 37 75 1 0 11 -18 22
-40z"/>
</g>
</svg>
