<?xml version="1.0" standalone="no"?>
<!DOCTYPE svg PUBLIC "-//W3C//DTD SVG 20010904//EN"
 "http://www.w3.org/TR/2001/REC-SVG-20010904/DTD/svg10.dtd">
<svg version="1.0" xmlns="http://www.w3.org/2000/svg"
 width="40pt" height="40pt" viewBox="0 0 52.000000 52.000000"
 preserveAspectRatio="xMidYMid meet">
<metadata>
Created by potrace 1.10, written by Peter Selinger 2001-2011
</metadata>
<g transform="translate(0.000000,52.000000) scale(0.100000,-0.100000)"
fill="#1175ee" stroke="none">
<path d="M291 395 c-37 -49 -56 -86 -87 -170 -11 -30 -11 -53 -2 -67 6 -10 8
-9 8 3 0 11 7 15 23 12 14 -3 26 3 34 16 11 18 10 20 -5 15 -9 -4 -3 6 14 20
18 14 35 38 39 53 3 16 18 50 31 77 50 99 10 128 -55 41z m-32 -127 c-26 -64
-53 -113 -35 -63 4 11 9 27 11 36 4 20 44 99 50 99 2 0 -9 -32 -26 -72z"/>
<path d="M181 109 c-6 -18 -9 -34 -7 -36 2 -2 9 10 15 28 6 18 9 34 7 36 -2 2
-9 -10 -15 -28z"/>
</g>
</svg>
