<?xml version="1.0" standalone="no"?>
<!DOCTYPE svg PUBLIC "-//W3C//DTD SVG 20010904//EN"
 "http://www.w3.org/TR/2001/REC-SVG-20010904/DTD/svg10.dtd">
<svg version="1.0" xmlns="http://www.w3.org/2000/svg"
 width="40pt" height="40pt" viewBox="0 0 52.000000 52.000000"
 preserveAspectRatio="xMidYMid meet">
<metadata>
Created by potrace 1.10, written by Peter Selinger 2001-2011
</metadata>
<g transform="translate(0.000000,52.000000) scale(0.100000,-0.100000)"
fill="#1175ee" stroke="none">
<path d="M182 408 c-7 -7 -12 -28 -12 -47 0 -31 -5 -38 -33 -51 -18 -9 -33
-24 -35 -36 -3 -21 33 -62 45 -50 4 3 -3 13 -15 22 -25 17 -20 37 14 53 31 14
31 14 38 -5 3 -8 -3 -43 -15 -76 -16 -48 -18 -67 -10 -85 15 -33 81 -29 81 5
0 12 -3 13 -12 4 -15 -15 -45 -16 -53 -1 -8 12 14 99 24 99 3 0 12 -14 20 -31
19 -44 84 -109 109 -109 45 0 52 72 17 158 -22 52 -30 32 -10 -27 19 -59 17
-105 -6 -109 -20 -4 -63 40 -97 96 -24 42 -24 46 -10 70 14 23 22 26 65 23 57
-3 133 -34 133 -54 0 -8 -10 -22 -22 -30 -17 -12 -19 -16 -7 -16 26 -1 55 37
43 57 -16 26 -82 55 -136 60 -48 5 -48 5 -31 24 10 11 31 27 47 35 24 12 30
13 37 1 5 -7 7 -21 5 -30 -5 -23 10 -33 18 -12 9 25 7 33 -14 54 -19 19 -23
19 -48 6 -15 -8 -40 -28 -56 -45 -41 -43 -66 -41 -66 4 0 27 4 35 18 35 10 0
23 -5 30 -12 7 -7 12 -8 12 -2 0 15 -22 34 -40 34 -9 0 -21 -5 -28 -12z"/>
<path d="M257 274 c-14 -14 -7 -35 11 -32 9 2 17 10 17 17 0 16 -18 25 -28 15z"/>
</g>
</svg>
