<?xml version="1.0" standalone="no"?>
<!DOCTYPE svg PUBLIC "-//W3C//DTD SVG 20010904//EN"
 "http://www.w3.org/TR/2001/REC-SVG-20010904/DTD/svg10.dtd">
<svg version="1.0" xmlns="http://www.w3.org/2000/svg"
 width="45px" height="45px" viewBox="0 0 45.000000 45.000000"
 preserveAspectRatio="xMidYMid meet">
<metadata>
Created by potrace 1.10, written by Peter Selinger 2001-2011
</metadata>
<g transform="translate(0.000000,52.000000) scale(0.100000,-0.100000)"
fill="#1175ee" stroke="none">
<path d="M170 256 l0 -144 85 1 c95 2 119 16 131 73 4 23 0 37 -19 60 -21 24
-22 31 -11 42 20 19 17 76 -4 95 -14 13 -38 17 -100 17 l-82 0 0 -144z m148
92 c30 -30 -2 -68 -59 -68 -39 0 -39 0 -39 40 l0 40 43 0 c24 0 48 -5 55 -12z
m9 -124 c16 -22 16 -26 0 -48 -8 -11 -28 -18 -57 -19 -44 -2 -45 -1 -48 31 -6
56 3 65 50 59 23 -3 48 -14 55 -23z"/>
</g>
</svg>
