<?xml version="1.0" standalone="no"?>
<!DOCTYPE svg PUBLIC "-//W3C//DTD SVG 20010904//EN"
 "http://www.w3.org/TR/2001/REC-SVG-20010904/DTD/svg10.dtd">
<svg version="1.0" xmlns="http://www.w3.org/2000/svg"
 width="300.000000pt" height="300.000000pt" viewBox="0 0 300.000000 300.000000"
 preserveAspectRatio="xMidYMid meet">
<metadata>
Created by potrace 1.10, written by Peter Selinger 2001-2011
</metadata>
<g transform="translate(0.000000,300.000000) scale(0.100000,-0.100000)"
fill="#fff" stroke="none">
<path d="M1482 2478 c-10 -18 -54 -95 -96 -170 -49 -87 -84 -139 -97 -143 -13
-5 -49 7 -105 34 -46 22 -84 37 -84 32 0 -4 23 -123 50 -264 53 -271 54 -297
8 -297 -21 0 -48 25 -194 182 l-81 86 -17 -61 c-28 -101 -26 -101 -220 -61
-70 14 -130 24 -132 21 -2 -2 16 -75 42 -163 27 -94 42 -164 37 -172 -4 -7
-35 -25 -68 -40 l-59 -28 254 -198 c140 -108 258 -206 263 -218 5 -14 -1 -46
-17 -95 -14 -40 -22 -73 -18 -73 4 0 116 14 250 32 181 24 247 30 260 22 20
-13 21 -60 9 -347 l-9 -187 42 0 42 0 -6 62 c-9 98 -11 452 -3 466 13 19 30
18 479 -44 l47 -7 -23 76 c-19 61 -21 80 -12 99 6 13 124 111 263 218 l251
195 -61 28 c-34 15 -64 32 -68 38 -8 13 -2 39 46 202 20 71 35 131 32 133 -3
3 -62 -6 -131 -20 -140 -29 -179 -32 -193 -13 -5 6 -17 39 -27 72 l-19 60
-126 -133 c-90 -95 -132 -132 -149 -132 -43 0 -42 31 9 295 27 138 49 255 49
262 0 7 -33 -4 -82 -27 -53 -25 -91 -38 -104 -34 -15 4 -50 56 -117 175 l-95
170 -20 -33z"/>
</g>
</svg>
