<?xml version="1.0" standalone="no"?>
<!DOCTYPE svg PUBLIC "-//W3C//DTD SVG 20010904//EN"
 "http://www.w3.org/TR/2001/REC-SVG-20010904/DTD/svg10.dtd">
<svg version="1.0" xmlns="http://www.w3.org/2000/svg"
 width="300.000000pt" height="300.000000pt" viewBox="0 0 300.000000 300.000000"
 preserveAspectRatio="xMidYMid meet">
<metadata>
Created by potrace 1.10, written by Peter Selinger 2001-2011
</metadata>
<g transform="translate(0.000000,300.000000) scale(0.100000,-0.100000)"
fill="#fff" stroke="none">
<path d="M1345 2991 c-356 -42 -648 -183 -901 -435 -224 -225 -354 -469 -416
-779 -31 -158 -31 -396 0 -554 62 -310 192 -554 416 -779 225 -224 469 -354
779 -416 158 -31 396 -31 554 0 310 62 554 192 779 416 224 225 355 470 415
779 31 158 31 396 0 554 -60 309 -191 554 -415 779 -223 223 -471 356 -772
414 -119 23 -333 33 -439 21z m410 -47 c197 -33 428 -130 599 -251 104 -74
265 -235 339 -339 121 -171 216 -397 253 -604 23 -128 23 -372 0 -500 -37
-207 -132 -433 -253 -604 -74 -104 -235 -265 -339 -339 -171 -121 -397 -216
-604 -253 -128 -23 -372 -23 -500 0 -207 37 -433 132 -604 253 -104 74 -265
235 -339 339 -121 171 -216 397 -253 604 -23 128 -23 372 0 500 37 207 132
433 253 604 74 104 235 265 339 339 322 228 717 317 1109 251z"/>
<path d="M1482 2478 c-10 -18 -54 -95 -96 -170 -49 -87 -84 -139 -97 -143 -13
-5 -49 7 -105 34 -46 22 -84 37 -84 32 0 -4 23 -123 50 -264 53 -271 54 -297
8 -297 -21 0 -48 25 -194 182 l-81 86 -17 -61 c-28 -101 -26 -101 -220 -61
-70 14 -130 24 -132 21 -2 -2 16 -75 42 -163 27 -94 42 -164 37 -172 -4 -7
-35 -25 -68 -40 l-59 -28 254 -198 c140 -108 258 -206 263 -218 5 -14 -1 -46
-17 -95 -14 -40 -22 -73 -18 -73 4 0 116 14 250 32 181 24 247 30 260 22 20
-13 21 -60 9 -347 l-9 -187 42 0 42 0 -6 62 c-9 98 -11 452 -3 466 13 19 30
18 479 -44 l47 -7 -23 76 c-19 61 -21 80 -12 99 6 13 124 111 263 218 l251
195 -61 28 c-34 15 -64 32 -68 38 -8 13 -2 39 46 202 20 71 35 131 32 133 -3
3 -62 -6 -131 -20 -140 -29 -179 -32 -193 -13 -5 6 -17 39 -27 72 l-19 60
-126 -133 c-90 -95 -132 -132 -149 -132 -43 0 -42 31 9 295 27 138 49 255 49
262 0 7 -33 -4 -82 -27 -53 -25 -91 -38 -104 -34 -15 4 -50 56 -117 175 l-95
170 -20 -33z"/>
</g>
</svg>
