<?xml version="1.0" standalone="no"?>
<!DOCTYPE svg PUBLIC "-//W3C//DTD SVG 20010904//EN"
 "http://www.w3.org/TR/2001/REC-SVG-20010904/DTD/svg10.dtd">
<svg version="1.0" xmlns="http://www.w3.org/2000/svg"
 width="300.000000pt" height="300.000000pt" viewBox="0 0 300.000000 300.000000"
 preserveAspectRatio="xMidYMid meet">
<metadata>
Created by potrace 1.10, written by Peter Selinger 2001-2011
</metadata>
<g transform="translate(0.000000,300.000000) scale(0.050000,-0.050000)"
fill="#1175ee" stroke="none">
<path d="M2690 5981 c-2514 -293 -3582 -3312 -1801 -5092 1701 -1701 4592
-811 5054 1556 378 1939 -1301 3763 -3253 3536z m820 -93 c2318 -392 3229
-3288 1560 -4958 -1539 -1538 -4162 -921 -4848 1141 -701 2107 1092 4189 3288
3817z"/>
<path d="M4180 4126 c-826 -15 -2017 -242 -2580 -490 -720 -318 -1105 -635
-1183 -973 -67 -289 317 -605 990 -813 272 -84 313 -82 121 8 -1666 780 402
2211 3212 2224 263 1 389 8 350 19 -64 18 -559 32 -910 25z"/>
<path d="M4205 3635 c-11 -14 -35 -90 -54 -170 l-35 -145 -98 0 c-54 0 -98 -9
-98 -20 0 -34 -58 -22 -100 20 -78 78 -256 35 -346 -83 -124 -163 -131 -304
-22 -476 43 -67 107 -169 143 -226 165 -263 -55 -492 -271 -281 -54 53 -104
32 -104 -44 0 -217 334 -174 471 60 111 189 102 294 -40 487 -175 237 -211
367 -130 470 55 70 121 67 206 -7 80 -71 104 -74 133 -20 22 41 206 61 226 25
5 -8 -34 -199 -87 -425 -114 -483 -131 -610 -94 -680 56 -108 172 -65 367 134
150 154 172 213 30 80 -206 -193 -335 -117 -264 155 12 45 44 185 71 311 28
127 62 275 76 330 l25 100 140 10 c203 15 220 80 21 80 -150 0 -150 -1 -103
181 34 130 -3 210 -63 134z"/>
<path d="M3132 3330 c-24 -36 -51 -50 -97 -50 -356 -3 -915 -825 -769 -1131
81 -169 438 76 554 381 17 46 58 65 84 40 5 -6 -6 -86 -25 -178 -61 -294 9
-419 153 -273 86 87 101 108 168 232 78 143 70 184 -10 51 -66 -110 -123 -149
-176 -119 -59 33 -33 198 118 749 48 177 88 328 88 335 0 33 -59 8 -88 -37z
m-136 -174 c123 -123 -319 -917 -510 -916 -202 2 -82 497 191 786 128 134 260
189 319 130z"/>
<path d="M1998 3333 c-451 -166 -667 -998 -320 -1228 119 -79 307 -31 411 105
75 99 59 128 -27 48 -177 -166 -402 -7 -402 285 0 484 444 1019 538 647 25
-100 83 -123 122 -49 70 130 -144 258 -322 192z"/>
</g>
</svg>
