<?xml version="1.0" standalone="no"?>
<!DOCTYPE svg PUBLIC "-//W3C//DTD SVG 20010904//EN"
 "http://www.w3.org/TR/2001/REC-SVG-20010904/DTD/svg10.dtd">
<svg version="1.0" xmlns="http://www.w3.org/2000/svg"
 width="40pt" height="40pt" viewBox="0 0 52.000000 52.000000"
 preserveAspectRatio="xMidYMid meet">
<metadata>
Created by potrace 1.10, written by Peter Selinger 2001-2011
</metadata>
<g transform="translate(0.000000,52.000000) scale(0.100000,-0.100000)"
fill="#1175ee" stroke="none">
<path d="M117 373 l-43 -67 13 -75 c25 -152 21 -141 53 -141 23 0 30 5 30 19
0 11 5 23 10 26 6 4 10 -5 10 -19 0 -25 2 -26 65 -26 63 0 65 1 65 25 0 14 5
25 10 25 6 0 10 -11 10 -25 0 -21 5 -25 30 -25 35 0 34 -4 52 120 l15 95 -41
67 -41 67 -98 1 -97 0 -43 -67z m108 -14 c-4 -5 10 -9 30 -9 22 0 34 4 30 10
-4 6 7 10 25 10 46 0 65 -46 54 -131 l-9 -64 -100 0 -100 0 -8 67 c-9 77 7
124 45 130 28 5 40 0 33 -13z"/>
<path d="M194 267 c-7 -20 -2 -47 11 -50 14 -3 19 43 6 56 -7 7 -12 6 -17 -6z"/>
<path d="M300 250 c0 -16 5 -30 10 -30 6 0 10 14 10 30 0 17 -4 30 -10 30 -5
0 -10 -13 -10 -30z"/>
</g>
</svg>
