<?xml version="1.0" standalone="no"?>
<!DOCTYPE svg PUBLIC "-//W3C//DTD SVG 20010904//EN"
 "http://www.w3.org/TR/2001/REC-SVG-20010904/DTD/svg10.dtd">
<svg version="1.0" xmlns="http://www.w3.org/2000/svg"
 width="40pt" height="43pt" viewBox="0 0 156.000000 156.000000"
 preserveAspectRatio="xMidYMid meet">
<metadata>
Created by potrace 1.10, written by Peter Selinger 2001-2011
</metadata>
<g transform="translate(0.000000,156.000000) scale(0.100000,-0.100000)"
fill="#1175ee" stroke="none">
<path d="M717 1348 c-35 -17 -38 -22 -35 -56 2 -28 8 -38 23 -40 25 -5 66 -42
59 -53 -8 -14 -40 -10 -54 6 -16 19 -30 10 -30 -20 0 -26 17 -35 64 -35 38 0
86 38 86 68 0 18 -38 52 -74 66 -23 8 -11 23 23 28 35 4 37 24 4 41 -25 14
-32 13 -66 -5z"/>
<path d="M535 1346 c-38 -17 -70 -75 -61 -112 12 -46 59 -84 104 -84 55 0 72
8 72 34 0 31 -8 36 -35 26 -18 -7 -30 -4 -47 9 -19 16 -21 23 -12 47 9 26 14
29 52 26 39 -2 42 0 42 22 0 43 -55 58 -115 32z"/>
<path d="M883 1348 c-44 -22 -38 -98 8 -98 24 0 45 -38 30 -53 -7 -7 -16 -6
-29 6 -21 19 -42 6 -42 -25 0 -39 111 -36 142 4 27 35 18 59 -29 82 -46 23
-51 41 -10 41 34 1 44 12 31 33 -13 20 -69 26 -101 10z"/>
<path d="M412 1010 l3 -59 210 -6 c116 -4 244 -9 285 -13 l75 -7 0 -75 0 -75
-185 -1 c-102 -1 -190 -2 -197 -2 -15 -2 -15 -82 0 -101 9 -11 46 -13 177 -10
l165 4 3 -95 3 -95 -50 -18 c-27 -9 -58 -17 -69 -17 -11 0 -25 -7 -32 -15 -7
-8 -23 -15 -35 -15 -12 0 -28 7 -35 15 -7 8 -22 15 -33 15 -12 0 -41 7 -64 16
l-43 17 0 58 0 59 -74 0 c-42 0 -78 -5 -81 -11 -4 -5 0 -40 9 -77 8 -37 17
-78 18 -92 4 -31 56 -59 114 -60 22 0 49 -7 60 -15 10 -8 28 -15 40 -15 11 0
29 -7 40 -15 24 -18 64 -18 88 0 11 8 27 15 37 15 9 0 22 7 29 15 7 8 27 15
44 15 17 1 42 7 56 15 14 8 37 14 51 15 15 0 31 6 36 13 6 6 13 68 17 137 3
69 11 152 16 185 5 33 10 126 10 208 l0 147 -345 0 -346 0 3 -60z"/>
</g>
</svg>
