<?xml version="1.0" standalone="no"?>
<!DOCTYPE svg PUBLIC "-//W3C//DTD SVG 20010904//EN"
 "http://www.w3.org/TR/2001/REC-SVG-20010904/DTD/svg10.dtd">
<svg version="1.0" xmlns="http://www.w3.org/2000/svg"
 width="300.000000pt" height="300.000000pt" viewBox="0 0 300.000000 300.000000"
 preserveAspectRatio="xMidYMid meet">
<metadata>
Created by potrace 1.10, written by Peter Selinger 2001-2011
</metadata>
<g transform="translate(0.000000,300.000000) scale(0.050000,-0.050000)"
fill="#fff" stroke="none">
<path d="M4095 4659 c-559 -136 -723 -1019 -336 -1811 544 -1114 1600 -1001
1600 172 1 898 -681 1781 -1264 1639z m384 -97 c704 -267 1110 -1675 638
-2213 -378 -430 -1089 79 -1306 937 -212 833 128 1481 668 1276z"/>
<path d="M4322 3825 l-408 -6 12 -164 c17 -253 221 -847 309 -902 11 -7 168
75 348 183 180 108 354 205 387 215 206 68 28 705 -192 684 -26 -2 -232 -7
-456 -10z m543 -80 c130 -136 211 -436 141 -523 -117 -144 -375 335 -294 546
19 49 95 38 153 -23z"/>
<path d="M3320 4157 c-236 -165 -725 -457 -1138 -678 l-348 -186 12 -192 c15
-244 61 -466 141 -681 l63 -170 870 -12 c479 -7 906 -18 950 -25 44 -6 128
-17 187 -23 l107 -12 -107 87 c-494 402 -770 1301 -581 1890 48 150 55 150
-156 2z"/>
<path d="M1473 3169 c-259 -119 -554 -229 -615 -229 -21 0 -38 -9 -38 -19 0
-11 -26 -33 -57 -50 -264 -136 -86 -664 227 -674 340 -10 932 29 918 61 -116
266 -188 575 -194 839 -2 100 -4 182 -4 181 0 0 -107 -50 -237 -109z"/>
<path d="M1825 2165 c-100 -5 -145 -15 -145 -32 0 -49 81 -465 130 -668 85
-353 103 -369 420 -370 330 -1 611 69 609 152 -5 168 -88 342 -189 395 -123
65 -195 171 -244 363 -48 188 -41 186 -581 160z"/>
</g>
</svg>
