<?xml version="1.0" standalone="no"?>
<!DOCTYPE svg PUBLIC "-//W3C//DTD SVG 20010904//EN"
 "http://www.w3.org/TR/2001/REC-SVG-20010904/DTD/svg10.dtd">
<svg version="1.0" xmlns="http://www.w3.org/2000/svg"
 width="40pt" height="40pt" viewBox="0 0 52.000000 52.000000"
 preserveAspectRatio="xMidYMid meet">
<metadata>
Created by potrace 1.10, written by Peter Selinger 2001-2011
</metadata>
<g transform="translate(0.000000,52.000000) scale(0.100000,-0.100000)"
fill="#1175ee" stroke="none">
<path d="M119 403 c-1 -10 -1 -24 0 -30 1 -7 -6 -24 -15 -38 -35 -54 6 -125
81 -139 31 -6 34 -9 22 -26 -16 -27 -56 -25 -97 5 -44 33 -46 32 -15 -9 26
-34 73 -54 95 -41 6 4 10 -4 10 -19 0 -25 2 -26 70 -26 l70 0 0 36 c0 19 -4
43 -10 53 -8 15 -3 20 33 31 54 15 63 24 77 66 9 27 9 40 -4 65 -9 18 -16 42
-16 54 0 30 -8 35 -39 23 -35 -13 -189 -13 -224 1 -36 14 -37 14 -38 -6z"/>
</g>
</svg>
