<?xml version="1.0" standalone="no"?>
<!DOCTYPE svg PUBLIC "-//W3C//DTD SVG 20010904//EN"
 "http://www.w3.org/TR/2001/REC-SVG-20010904/DTD/svg10.dtd">
<svg version="1.0" xmlns="http://www.w3.org/2000/svg"
 width="40pt" height="40pt" viewBox="0 0 156.000000 156.000000"
 preserveAspectRatio="xMidYMid meet">
<metadata>
Created by potrace 1.10, written by Peter Selinger 2001-2011
</metadata>
<g transform="translate(0.000000,156.000000) scale(0.100000,-0.100000)"
fill="#1175ee" stroke="none">
<path d="M1030 1439 c0 -6 -36 -48 -80 -93 -55 -57 -80 -90 -80 -107 0 -13
-10 -44 -23 -69 l-22 -45 -173 -3 c-135 -2 -172 -5 -172 -16 0 -24 278 -36
339 -15 22 8 40 8 59 1 32 -13 157 -2 157 13 0 6 -34 12 -75 15 l-75 5 -3 33
c-5 49 30 110 109 192 42 43 68 77 65 86 -6 17 -26 19 -26 3z"/>
<path d="M1030 1048 c-14 -18 -29 -19 -262 -20 -136 0 -256 3 -268 7 -20 6
-20 4 -19 -125 l1 -131 19 25 c10 13 19 30 19 36 0 26 50 60 88 60 43 -1 85
-31 80 -57 -4 -23 -51 -29 -67 -9 -11 13 -15 12 -32 -5 -10 -10 -19 -25 -19
-33 0 -7 -7 -19 -15 -26 -8 -7 -15 -23 -15 -35 0 -13 -8 -26 -17 -29 -11 -5
-13 -10 -6 -17 17 -17 41 1 62 46 11 23 27 45 37 49 23 9 44 -11 44 -43 1 -25
1 -25 15 7 8 19 20 32 27 30 20 -7 21 -53 3 -72 -15 -15 -15 -16 4 -16 16 0
21 6 21 29 0 39 41 68 64 46 22 -22 26 -19 26 19 0 18 7 39 15 46 8 7 15 18
15 26 0 16 39 29 52 16 12 -12 0 -79 -18 -97 -8 -7 -14 -20 -14 -27 0 -8 -7
-23 -15 -34 -16 -22 -19 -34 -7 -34 5 0 17 15 27 33 19 37 65 67 100 67 25 0
40 -14 48 -45 2 -11 5 39 6 111 1 104 4 134 16 144 16 13 20 47 7 66 -5 8 -12
5 -22 -8z"/>
<path d="M630 653 c0 -57 -6 -68 -43 -77 -24 -6 -30 -3 -34 14 -3 11 -14 20
-24 20 -17 0 -19 -8 -19 -65 0 -82 22 -140 50 -132 10 3 24 -1 31 -9 9 -11 45
-14 160 -14 82 0 157 4 167 9 9 5 25 12 34 15 32 10 46 49 50 138 3 78 2 85
-13 72 -21 -19 -69 -18 -69 1 0 8 -4 15 -10 15 -5 0 -10 -11 -10 -24 0 -29
-40 -95 -57 -96 -18 0 -27 21 -24 57 3 33 3 33 -46 34 -26 1 -65 0 -85 -1 -32
-1 -38 2 -44 24 -3 15 -4 35 -1 46 3 11 1 20 -4 20 -5 0 -9 -21 -9 -47z"/>
<path d="M570 339 c1 -8 7 -25 15 -39 9 -17 14 -56 15 -117 l0 -93 26 0 c14 0
32 -7 40 -15 22 -21 172 -21 180 0 4 8 18 15 34 15 27 0 28 2 33 63 3 34 10
91 16 126 7 35 10 65 8 67 -2 2 -42 -3 -88 -12 -81 -15 -161 -12 -255 12 -17
4 -24 2 -24 -7z"/>
</g>
</svg>
