<?xml version="1.0" standalone="no"?>
<!DOCTYPE svg PUBLIC "-//W3C//DTD SVG 20010904//EN"
 "http://www.w3.org/TR/2001/REC-SVG-20010904/DTD/svg10.dtd">
<svg version="1.0" xmlns="http://www.w3.org/2000/svg"
 width="40pt" height="43pt" viewBox="0 0 156.000000 156.000000"
 preserveAspectRatio="xMidYMid meet">
<metadata>
Created by potrace 1.10, written by Peter Selinger 2001-2011
</metadata>
<g transform="translate(0.000000,156.000000) scale(0.100000,-0.100000)"
fill="#1175ee" stroke="none">
<path d="M371 1281 c-22 -14 -21 -138 2 -158 24 -23 67 -3 67 31 0 14 5 28 10
31 15 9 40 -13 40 -35 0 -10 7 -23 16 -30 12 -11 18 -10 33 6 15 16 17 30 12
84 -6 60 -8 65 -31 68 -20 2 -28 -3 -37 -28 -14 -37 -43 -41 -43 -5 0 34 -39
55 -69 36z"/>
<path d="M587 1278 c-8 -5 -4 -14 11 -31 17 -18 22 -35 22 -75 0 -38 4 -54 15
-58 28 -11 45 16 45 70 0 41 4 54 21 64 16 10 18 17 10 25 -12 12 -106 16
-124 5z"/>
<path d="M993 1282 c-15 -9 -12 -137 3 -152 5 -5 28 -13 52 -18 35 -8 46 -7
64 7 27 22 17 38 -27 47 -35 6 -35 7 -35 59 0 39 -4 54 -16 59 -20 8 -26 7
-41 -2z"/>
<path d="M752 1263 c-16 -29 -19 -145 -5 -150 7 -3 18 7 24 21 16 34 43 33 58
-1 l12 -27 22 28 22 28 19 -21 c37 -41 48 -28 40 52 -3 39 -9 75 -11 80 -2 4
-18 7 -34 7 -25 0 -30 -5 -35 -30 -8 -38 -32 -39 -36 -2 -2 22 -8 28 -35 30
-23 2 -34 -2 -41 -15z"/>
<path d="M352 1012 c-2 -7 2 -46 11 -85 9 -40 18 -117 21 -171 3 -54 8 -102
11 -105 8 -8 328 -29 453 -30 l102 -1 0 -86 c0 -77 -2 -88 -22 -105 -15 -11
-39 -19 -68 -19 -25 0 -56 -7 -70 -15 -32 -18 -78 -18 -110 0 -14 8 -43 14
-66 15 -60 0 -89 36 -62 79 21 34 4 48 -69 54 -84 7 -101 -4 -84 -54 6 -17 11
-57 11 -88 0 -66 11 -81 60 -81 19 -1 46 -7 60 -15 14 -8 41 -15 60 -15 19 0
46 -7 60 -15 33 -19 139 -19 164 0 11 8 31 15 45 15 14 1 37 7 51 15 14 8 36
15 50 15 25 0 95 22 105 32 4 3 8 34 11 69 2 35 8 84 13 109 16 76 20 208 8
217 -7 4 -136 6 -287 3 -151 -3 -283 -2 -293 3 -15 7 -17 19 -15 85 l3 77 313
0 312 0 0 55 0 55 -386 0 c-311 0 -388 -3 -392 -13z"/>
</g>
</svg>
