<?xml version="1.0" standalone="no"?>
<!DOCTYPE svg PUBLIC "-//W3C//DTD SVG 20010904//EN"
 "http://www.w3.org/TR/2001/REC-SVG-20010904/DTD/svg10.dtd">
<svg version="1.0" xmlns="http://www.w3.org/2000/svg"
 width="40pt" height="40pt" viewBox="0 0 52.000000 52.000000"
 preserveAspectRatio="xMidYMid meet">
<metadata>
Created by potrace 1.10, written by Peter Selinger 2001-2011
</metadata>
<g transform="translate(0.000000,52.000000) scale(0.050000,-0.050000)"
fill="#1175ee" stroke="none">
<path d="M307 713 c-199 -200 -69 -513 213 -513 223 0 382 246 281 435 -10 19
-23 50 -29 69 -38 125 -343 130 -465 9z m310 45 c35 -12 63 -35 63 -52 0 -16
18 -34 39 -40 23 -6 49 -40 62 -79 86 -262 -228 -473 -439 -296 -234 197 -15
568 275 467z"/>
<path d="M433 583 c-72 -79 -17 -203 90 -203 103 0 156 138 80 207 -48 44
-129 42 -170 -4z"/>
</g>
</svg>
