<?xml version="1.0" standalone="no"?>
<!DOCTYPE svg PUBLIC "-//W3C//DTD SVG 20010904//EN"
 "http://www.w3.org/TR/2001/REC-SVG-20010904/DTD/svg10.dtd">
<svg version="1.0" xmlns="http://www.w3.org/2000/svg"
 width="33pt" height="35pt" viewBox="0 0 40.000000 40.000000"
 preserveAspectRatio="xMidYMid meet">
<metadata>
Created by potrace 1.10, written by Peter Selinger 2001-2011
</metadata>
<g transform="translate(0.000000,52.000000) scale(0.100000,-0.100000)"
fill="#1175ee" stroke="none">
<path d="M272 408 c-37 -37 19 -118 81 -118 31 0 100 39 70 40 -6 0 -15 -4
-18 -10 -12 -19 -63 -10 -95 17 -26 21 -31 31 -26 55 6 31 5 33 -12 16z"/>
<path d="M186 378 c-28 -40 -20 -86 22 -128 41 -42 89 -57 146 -46 34 7 93 52
82 63 -3 3 -14 -1 -24 -10 -30 -27 -77 -32 -127 -13 -60 23 -89 65 -82 117 6
45 4 47 -17 17z"/>
<path d="M80 338 c-80 -132 109 -289 268 -223 36 16 82 52 82 65 0 4 -21 -3
-47 -16 -79 -40 -158 -27 -229 38 -48 44 -64 93 -46 140 14 39 -4 36 -28 -4z"/>
</g>
</svg>
