<?xml version="1.0" standalone="no"?>
<!DOCTYPE svg PUBLIC "-//W3C//DTD SVG 20010904//EN"
 "http://www.w3.org/TR/2001/REC-SVG-20010904/DTD/svg10.dtd">
<svg version="1.0" xmlns="http://www.w3.org/2000/svg"
 width="40pt" height="43pt" viewBox="0 0 156.000000 156.000000"
 preserveAspectRatio="xMidYMid meet">
<metadata>
Created by potrace 1.10, written by Peter Selinger 2001-2011
</metadata>
<g transform="translate(0.000000,156.000000) scale(0.100000,-0.100000)"
fill="#1175ee" stroke="none">
<path d="M692 1358 c-6 -6 -12 -31 -12 -55 0 -32 -5 -45 -21 -53 -32 -18 -21
-54 17 -58 49 -5 66 22 62 104 -2 52 -7 70 -18 72 -9 1 -21 -3 -28 -10z"/>
<path d="M793 1351 c-31 -26 -30 -59 2 -71 26 -10 43 -36 31 -47 -3 -3 -13 0
-21 7 -19 16 -39 1 -33 -26 5 -27 82 -32 109 -8 35 31 19 83 -25 85 -18 1 -17
2 4 8 19 5 26 14 28 39 3 31 2 32 -35 32 -22 -1 -47 -8 -60 -19z"/>
<path d="M480 1132 c-6 -2 -10 -40 -10 -87 0 -45 -6 -100 -14 -122 -7 -21 -15
-86 -17 -143 l-4 -104 245 0 245 -1 -1 -22 c0 -13 -1 -52 -2 -88 l-2 -65 -32
0 c-18 -1 -44 -7 -58 -15 -14 -8 -50 -14 -80 -14 -30 0 -66 6 -80 14 -14 8
-37 14 -52 15 -25 0 -28 4 -28 33 0 17 -4 38 -9 46 -10 16 -130 36 -143 23 -4
-4 -4 -50 0 -101 l7 -94 45 -13 c25 -8 61 -14 81 -14 19 0 44 -7 55 -15 24
-18 224 -21 242 -3 6 6 38 15 70 19 33 3 72 13 88 20 35 17 43 51 43 187 1 58
7 106 16 129 8 19 15 46 15 60 l0 24 -249 -2 c-138 0 -254 1 -258 4 -12 8 2
145 18 179 l12 28 140 -5 c164 -5 172 -9 183 -91 l6 -54 74 0 c73 0 74 0 74
26 0 14 -5 35 -12 47 -6 12 -14 62 -17 110 l-6 88 -287 2 c-159 1 -292 1 -298
-1z"/>
</g>
</svg>
