<?xml version="1.0" standalone="no"?>
<!DOCTYPE svg PUBLIC "-//W3C//DTD SVG 20010904//EN"
 "http://www.w3.org/TR/2001/REC-SVG-20010904/DTD/svg10.dtd">
<svg version="1.0" xmlns="http://www.w3.org/2000/svg"
 width="40pt" height="40pt" viewBox="0 0 52.000000 52.000000"
 preserveAspectRatio="xMidYMid meet">
<metadata>
Created by potrace 1.10, written by Peter Selinger 2001-2011
</metadata>
<g transform="translate(0.000000,52.000000) scale(0.100000,-0.100000)"
fill="#1175ee" stroke="none">
<path d="M28 295 c-7 -59 2 -105 21 -104 10 0 11 2 4 6 -17 6 -17 105 -1 121
9 9 8 12 -4 12 -11 0 -17 -11 -20 -35z"/>
<path d="M479 293 c4 -21 4 -53 0 -71 -5 -23 -3 -32 5 -29 15 5 15 129 0 134
-8 3 -9 -8 -5 -34z"/>
<path d="M88 305 c-4 -4 -4 -21 -1 -37 4 -20 1 -33 -8 -38 -7 -5 -10 -12 -6
-16 15 -15 28 14 25 56 -2 23 -6 39 -10 35z"/>
<path d="M429 303 c-4 -46 -2 -73 6 -73 6 0 9 17 7 40 -4 35 -11 53 -13 33z"/>
<path d="M171 286 c-16 -20 -10 -50 11 -54 23 -4 34 36 16 55 -13 12 -16 12
-27 -1z m24 -36 c-5 -8 -11 -8 -17 -2 -6 6 -7 16 -3 22 5 8 11 8 17 2 6 -6 7
-16 3 -22z"/>
<path d="M115 281 c-3 -5 -1 -12 5 -16 5 -3 10 -1 10 5 0 6 5 8 10 5 6 -3 10
-1 10 4 0 13 -27 14 -35 2z"/>
<path d="M220 280 c0 -7 7 -10 15 -6 11 4 15 -1 15 -19 0 -14 4 -25 9 -25 6 0
9 12 8 28 -2 20 -8 28 -25 30 -12 2 -22 -2 -22 -8z"/>
<path d="M310 280 c0 -5 6 -7 14 -4 9 4 14 0 12 -10 -3 -19 -16 -34 -16 -18 0
7 -4 12 -10 12 -5 0 -7 -7 -4 -15 4 -8 17 -15 30 -15 27 0 27 0 14 34 -9 25
-40 37 -40 16z"/>
<path d="M365 250 c-1 -29 3 -40 14 -40 8 0 12 3 8 6 -3 4 3 14 14 23 25 20
16 51 -15 51 -18 0 -21 -6 -21 -40z m35 9 c0 -11 -4 -17 -10 -14 -5 3 -10 13
-10 21 0 8 5 14 10 14 6 0 10 -9 10 -21z"/>
<path d="M140 250 c0 -5 -7 -7 -15 -4 -8 4 -15 1 -15 -5 0 -6 9 -11 20 -11 11
0 20 7 20 15 0 8 -2 15 -5 15 -3 0 -5 -4 -5 -10z"/>
<path d="M220 240 c0 -5 5 -10 10 -10 6 0 10 5 10 10 0 6 -4 10 -10 10 -5 0
-10 -4 -10 -10z"/>
<path d="M280 240 c0 -5 5 -10 11 -10 5 0 7 5 4 10 -3 6 -8 10 -11 10 -2 0 -4
-4 -4 -10z"/>
</g>
</svg>
