<?xml version="1.0" standalone="no"?>
<!DOCTYPE svg PUBLIC "-//W3C//DTD SVG 20010904//EN"
 "http://www.w3.org/TR/2001/REC-SVG-20010904/DTD/svg10.dtd">
<svg version="1.0" xmlns="http://www.w3.org/2000/svg"
 width="40pt" height="40pt" viewBox="0 0 52.000000 52.000000"
 preserveAspectRatio="xMidYMid meet">
<metadata>
Created by potrace 1.10, written by Peter Selinger 2001-2011
</metadata>
<g transform="translate(0.000000,52.000000) scale(0.100000,-0.100000)"
fill="#1175ee" stroke="none">
<path d="M62 382 c-9 -7 -2 -32 33 -106 l45 -98 36 7 c19 3 41 8 48 11 8 3 24
-14 41 -41 20 -35 31 -45 43 -40 10 4 42 16 72 27 30 11 57 22 59 24 3 3 -5
18 -18 34 -24 33 -21 50 10 50 25 0 24 9 -9 48 -24 28 -31 32 -59 26 -37 -7
-41 -19 -16 -46 9 -10 14 -21 11 -24 -11 -10 -113 -33 -116 -26 -1 4 -23 43
-47 85 -44 74 -47 77 -83 77 -20 0 -43 -4 -50 -8z m121 -82 c48 -84 48 -89 -6
-93 -23 -2 -30 6 -66 80 l-40 82 27 4 c15 2 30 5 33 6 4 0 27 -35 52 -79z
m227 -9 c14 -26 13 -28 -10 -34 -13 -3 -24 3 -35 19 -20 31 -19 34 10 34 14 0
29 -8 35 -19z m10 -111 c0 -3 -21 -12 -47 -19 -27 -7 -55 -15 -63 -18 -13 -4
-58 53 -48 62 1 2 28 9 58 17 54 14 55 14 77 -11 12 -15 22 -28 23 -31z"/>
</g>
</svg>
