<?xml version="1.0" standalone="no"?>
<!DOCTYPE svg PUBLIC "-//W3C//DTD SVG 20010904//EN"
 "http://www.w3.org/TR/2001/REC-SVG-20010904/DTD/svg10.dtd">
<svg version="1.0" xmlns="http://www.w3.org/2000/svg"
 width="40pt" height="40pt" viewBox="0 0 156.000000 156.000000"
 preserveAspectRatio="xMidYMid meet">
<metadata>
Created by potrace 1.10, written by Peter Selinger 2001-2011
</metadata>
<g transform="translate(0.000000,156.000000) scale(0.100000,-0.100000)"
fill="#1175ee" stroke="none">
<path d="M1178 1099 c-26 -15 -22 -48 6 -59 59 -22 66 -37 66 -138 0 -73 3
-94 15 -98 19 -8 19 -31 0 -41 -10 -6 -15 -33 -17 -103 l-3 -94 -42 -29 c-47
-31 -54 -51 -22 -67 27 -15 67 -5 101 25 26 22 27 29 30 127 3 101 3 103 31
116 40 19 38 70 -3 94 l-30 17 0 99 0 100 -35 31 c-37 32 -67 38 -97 20z"/>
<path d="M167 1072 c-26 -27 -27 -33 -27 -126 l0 -97 -30 -17 c-41 -24 -43
-75 -3 -94 27 -13 28 -17 30 -88 2 -133 3 -134 31 -156 57 -45 133 -36 118 14
-4 12 -13 22 -20 22 -7 0 -25 9 -40 21 -25 19 -26 25 -26 114 0 73 -3 94 -15
99 -8 3 -15 12 -15 20 0 7 7 16 15 20 12 4 15 25 15 98 1 77 4 97 20 116 12
15 28 22 42 20 23 -3 23 -3 26 -206 2 -188 4 -204 23 -223 11 -11 35 -21 57
-22 32 -2 37 1 40 21 2 15 -7 34 -28 55 l-32 32 6 105 c3 58 9 149 12 203 l7
97 -90 0 c-85 0 -91 -1 -116 -28z"/>
<path d="M515 933 c-43 -22 -75 -54 -75 -74 0 -9 -7 -22 -15 -29 -10 -8 -15
-31 -15 -68 0 -55 17 -95 63 -149 23 -26 93 -38 161 -28 47 7 47 8 44 44 -2
26 -7 35 -18 32 -8 -3 -37 -6 -65 -8 -43 -4 -54 0 -78 22 -51 49 -36 60 86 63
l107 3 0 34 c0 18 -7 46 -14 62 -8 15 -17 36 -20 45 -7 23 -80 68 -108 68 -13
-1 -36 -8 -53 -17z m78 -64 c29 -13 52 -55 36 -65 -16 -9 -115 -12 -129 -4
-27 17 18 70 67 80 1 0 13 -5 26 -11z"/>
<path d="M795 934 c-44 -24 -55 -42 -55 -97 0 -53 28 -96 62 -97 9 0 33 -10
53 -21 26 -16 35 -27 33 -43 -3 -19 -9 -21 -75 -21 -81 0 -101 -11 -84 -44 15
-27 49 -35 116 -28 60 6 98 29 115 68 9 21 8 34 -7 65 -17 36 -30 46 -133 94
-8 4 -16 16 -18 27 -4 27 47 50 76 34 28 -15 38 -14 56 5 25 24 19 44 -19 60
-44 18 -82 17 -120 -2z"/>
<path d="M1045 933 c-54 -29 -66 -48 -63 -104 3 -55 -1 -52 111 -105 30 -15
37 -24 37 -47 l0 -28 -72 2 -73 2 -3 -30 c-3 -29 -1 -31 38 -38 55 -9 135 3
153 23 51 61 37 134 -33 171 -22 11 -46 21 -53 21 -16 0 -49 38 -43 49 3 5 19
14 36 21 23 10 34 10 43 1 6 -6 24 -11 39 -11 25 0 28 4 28 31 0 25 -6 32 -35
45 -44 18 -72 17 -110 -3z"/>
</g>
</svg>
