<?xml version="1.0" standalone="no"?>
<!DOCTYPE svg PUBLIC "-//W3C//DTD SVG 20010904//EN"
 "http://www.w3.org/TR/2001/REC-SVG-20010904/DTD/svg10.dtd">
<svg version="1.0" xmlns="http://www.w3.org/2000/svg"
 width="40pt" height="40pt" viewBox="0 0 52.000000 52.000000"
 preserveAspectRatio="xMidYMid meet">
<metadata>
Created by potrace 1.10, written by Peter Selinger 2001-2011
</metadata>
<g transform="translate(0.000000,52.000000) scale(0.100000,-0.100000)"
fill="#1175ee" stroke="none">
<path d="M137 408 c-20 -5 -43 -20 -49 -31 -14 -27 -13 -122 1 -159 16 -42 86
-113 131 -133 39 -17 41 -17 80 0 65 29 126 102 139 166 16 77 4 130 -34 149
-37 18 -214 23 -268 8z m251 -24 c31 -13 32 -15 32 -74 0 -73 -22 -121 -79
-173 -53 -48 -82 -54 -123 -29 -78 48 -118 117 -118 201 0 70 12 80 120 94 43
5 133 -5 168 -19z"/>
<path d="M238 353 c-50 -57 -52 -126 -7 -178 l32 -36 24 22 c34 33 47 90 30
131 -14 31 -49 78 -59 78 -3 0 -12 -8 -20 -17z"/>
</g>
</svg>
