<?xml version="1.0" standalone="no"?>
<!DOCTYPE svg PUBLIC "-//W3C//DTD SVG 20010904//EN"
 "http://www.w3.org/TR/2001/REC-SVG-20010904/DTD/svg10.dtd">
<svg version="1.0" xmlns="http://www.w3.org/2000/svg"
 width="40pt" height="40pt" viewBox="0 0 52.000000 52.000000"
 preserveAspectRatio="xMidYMid meet">
<metadata>
Created by potrace 1.10, written by Peter Selinger 2001-2011
</metadata>
<g transform="translate(0.000000,52.000000) scale(0.100000,-0.100000)"
fill="#1175ee" stroke="none">
<path d="M110 301 c0 -10 -3 -33 -6 -50 -5 -24 -3 -31 10 -31 10 0 16 9 17 23
l0 22 11 -22 c6 -13 15 -23 20 -23 5 0 13 10 18 23 l9 22 0 -22 c1 -14 7 -23
17 -23 14 0 15 8 9 48 -4 26 -9 49 -11 51 -9 10 -34 -11 -34 -29 0 -12 -4 -18
-10 -15 -5 3 -10 15 -10 26 0 12 -7 19 -20 19 -13 0 -20 -7 -20 -19z"/>
<path d="M234 308 c2 -7 10 -30 17 -50 8 -24 18 -38 29 -38 11 0 21 14 29 38
7 20 15 43 17 50 3 6 -1 12 -10 12 -9 0 -18 -11 -22 -25 -3 -14 -10 -25 -14
-25 -4 0 -11 11 -14 25 -4 14 -13 25 -22 25 -9 0 -13 -6 -10 -12z"/>
<path d="M350 301 c-13 -26 -13 -54 2 -69 18 -18 68 -15 68 3 0 9 -8 14 -22
12 -15 -1 -23 4 -26 17 -6 27 13 42 33 26 13 -10 15 -9 15 9 0 17 -6 21 -30
21 -19 0 -33 -7 -40 -19z"/>
</g>
</svg>
