<?xml version="1.0" standalone="no"?>
<!DOCTYPE svg PUBLIC "-//W3C//DTD SVG 20010904//EN"
 "http://www.w3.org/TR/2001/REC-SVG-20010904/DTD/svg10.dtd">
<svg version="1.0" xmlns="http://www.w3.org/2000/svg"
 width="40pt" height="40pt" viewBox="0 0 156.000000 156.000000"
 preserveAspectRatio="xMidYMid meet">
<metadata>
Created by potrace 1.10, written by Peter Selinger 2001-2011
</metadata>
<g transform="translate(0.000000,156.000000) scale(0.100000,-0.100000)"
fill="#1175ee" stroke="none">
<path d="M362 1267 c-31 -32 -27 -67 10 -118 41 -56 58 -87 58 -108 0 -9 15
-45 33 -80 32 -60 38 -103 16 -117 -5 -3 -9 -35 -9 -72 0 -66 10 -96 50 -159
21 -33 65 -31 82 4 20 40 34 38 58 -9 18 -36 84 -98 104 -98 15 0 3 38 -22 67
-47 55 -62 77 -62 89 0 7 -7 14 -15 18 -8 3 -15 12 -15 20 0 28 -23 66 -41 66
-12 0 -21 -14 -30 -50 -14 -54 -35 -83 -43 -59 -17 52 -7 198 15 225 10 12
-19 74 -33 74 -5 0 -8 6 -8 13 -1 6 -9 30 -20 52 -11 22 -19 46 -20 53 0 17
-62 112 -72 112 -5 0 -8 11 -8 25 0 33 11 32 85 -10 34 -19 82 -37 106 -41 24
-4 62 -16 83 -28 53 -27 186 -161 210 -211 10 -22 23 -48 27 -57 5 -10 9 -24
9 -31 0 -8 9 -24 20 -37 11 -13 20 -28 20 -35 0 -35 58 -114 85 -115 23 0 153
-74 149 -85 -3 -6 -30 -18 -62 -26 -50 -14 -57 -18 -54 -39 3 -25 5 -27 105
-97 101 -71 125 -84 133 -72 11 18 -28 61 -97 107 -72 49 -82 62 -46 62 40 0
97 28 97 48 0 21 -125 122 -167 136 -15 5 -36 16 -46 24 -18 16 -67 106 -67
124 0 5 -7 16 -15 24 -8 9 -15 24 -15 36 0 31 -68 126 -142 198 -76 74 -172
130 -225 130 -23 0 -56 12 -93 35 -67 41 -98 44 -128 12z"/>
<path d="M540 1102 c0 -23 19 -42 42 -42 21 0 24 30 6 48 -18 18 -48 15 -48
-6z"/>
</g>
</svg>
