<?xml version="1.0" standalone="no"?>
<!DOCTYPE svg PUBLIC "-//W3C//DTD SVG 20010904//EN"
 "http://www.w3.org/TR/2001/REC-SVG-20010904/DTD/svg10.dtd">
<svg version="1.0" xmlns="http://www.w3.org/2000/svg"
 width="40pt" height="40pt" viewBox="0 0 156.000000 156.000000"
 preserveAspectRatio="xMidYMid meet">
<metadata>
Created by potrace 1.10, written by Peter Selinger 2001-2011
</metadata>
<g transform="translate(0.000000,156.000000) scale(0.100000,-0.100000)"
fill="#1175ee" stroke="none">
<path d="M965 1006 c-17 -12 -17 -18 -6 -75 12 -63 6 -91 -22 -91 -22 0 -103
-44 -117 -64 -10 -14 -15 -45 -16 -88 0 -63 2 -70 30 -95 31 -28 50 -41 94
-64 19 -11 27 -9 52 9 16 12 33 22 38 22 5 0 18 10 29 23 18 20 20 37 22 204
1 179 1 182 -21 194 -12 7 -29 18 -36 26 -17 16 -24 16 -47 -1z m14 -299 c15
-19 -30 -73 -53 -64 -16 6 -23 57 -9 70 11 12 50 8 62 -6z"/>
<path d="M255 834 c-16 -13 -41 -30 -55 -37 -24 -12 -25 -16 -28 -123 -2 -97
0 -112 14 -118 27 -10 52 3 74 39 16 25 19 39 12 52 -14 24 13 75 36 71 13 -3
17 -14 17 -46 0 -35 6 -49 38 -83 61 -64 72 -53 72 68 1 118 -9 137 -92 173
-13 5 -23 14 -23 20 0 18 -34 10 -65 -16z"/>
<path d="M570 830 c-19 -16 -40 -30 -47 -30 -22 0 -30 -34 -29 -113 2 -73 4
-80 32 -102 16 -13 34 -24 41 -25 7 0 16 -6 20 -14 14 -24 48 -28 74 -8 13 10
32 21 41 25 37 13 46 47 40 142 -7 84 -8 90 -30 93 -13 2 -26 10 -29 18 -3 8
-12 14 -19 14 -8 0 -17 7 -20 15 -9 23 -35 18 -74 -15z"/>
<path d="M1230 845 c-7 -8 -19 -15 -26 -15 -8 0 -14 -4 -14 -9 0 -6 -12 -16
-27 -23 -27 -13 -28 -16 -31 -102 -3 -87 -2 -90 25 -112 15 -13 33 -23 40 -24
7 0 16 -7 21 -17 13 -22 60 -21 95 2 36 23 34 66 -3 75 -18 4 -26 13 -28 33
-3 28 6 35 25 16 13 -13 68 14 86 43 13 20 -19 88 -41 88 -8 0 -31 14 -52 30
-43 34 -52 36 -70 15z"/>
</g>
</svg>
