<?xml version="1.0" standalone="no"?>
<!DOCTYPE svg PUBLIC "-//W3C//DTD SVG 20010904//EN"
 "http://www.w3.org/TR/2001/REC-SVG-20010904/DTD/svg10.dtd">
<svg version="1.0" xmlns="http://www.w3.org/2000/svg"
 width="40pt" height="40pt" viewBox="0 0 52.000000 52.000000"
 preserveAspectRatio="xMidYMid meet">
<metadata>
Created by potrace 1.10, written by Peter Selinger 2001-2011
</metadata>
<g transform="translate(0.000000,52.000000) scale(0.100000,-0.100000)"
fill="#1175ee" stroke="none">
<path d="M67 343 c-4 -3 -7 -19 -7 -34 0 -16 -8 -33 -17 -39 -17 -10 -17 -10
0 -20 10 -7 17 -23 17 -41 0 -17 6 -32 15 -36 22 -8 30 4 15 22 -15 18 -16
113 -1 128 6 6 11 15 11 19 0 10 -24 11 -33 1z"/>
<path d="M420 341 c0 -6 5 -11 10 -11 6 0 10 -10 10 -23 0 -13 6 -29 13 -36
10 -11 10 -14 0 -18 -7 -3 -13 -18 -13 -34 0 -16 -4 -29 -10 -29 -5 0 -10 -5
-10 -11 0 -6 10 -9 23 -7 16 2 23 11 25 33 2 17 11 36 20 43 15 11 15 13 0 25
-9 6 -18 26 -20 42 -2 22 -9 31 -25 33 -13 2 -23 -1 -23 -7z"/>
<path d="M140 310 c-39 -39 -18 -115 30 -108 46 6 53 95 10 118 -15 8 -24 6
-40 -10z m50 -46 c0 -23 -12 -44 -26 -44 -19 0 -28 44 -14 71 12 22 13 22 26
4 8 -10 14 -24 14 -31z"/>
<path d="M250 310 c-22 -22 -26 -60 -10 -91 26 -48 88 2 75 61 -9 43 -39 56
-65 30z m40 -35 c4 -38 0 -55 -14 -55 -25 0 -36 56 -14 78 14 14 25 5 28 -23z"/>
<path d="M340 260 c0 -49 3 -60 16 -60 12 0 15 6 11 21 -4 15 0 23 13 26 44
12 35 73 -11 73 -29 0 -29 0 -29 -60z m48 23 c-4 -22 -22 -20 -26 1 -2 10 3
16 13 16 10 0 15 -7 13 -17z"/>
</g>
</svg>
