<?xml version="1.0" standalone="no"?>
<!DOCTYPE svg PUBLIC "-//W3C//DTD SVG 20010904//EN"
 "http://www.w3.org/TR/2001/REC-SVG-20010904/DTD/svg10.dtd">
<svg version="1.0" xmlns="http://www.w3.org/2000/svg"
 width="40pt" height="40pt" viewBox="0 0 156.000000 156.000000"
 preserveAspectRatio="xMidYMid meet">
<metadata>
Created by potrace 1.10, written by Peter Selinger 2001-2011
</metadata>
<g transform="translate(0.000000,156.000000) scale(0.100000,-0.100000)"
fill="#1175ee" stroke="none">
<path d="M676 1058 c-6 -17 -15 -78 -24 -158 -4 -36 -13 -75 -20 -87 -7 -12
-12 -42 -12 -68 0 -25 -7 -60 -16 -76 -22 -43 -15 -93 13 -97 40 -6 63 15 63
58 0 21 5 51 12 67 6 15 14 57 17 93 l6 65 70 0 70 0 3 -55 c2 -34 -3 -67 -13
-90 -8 -19 -16 -60 -18 -90 -2 -50 0 -55 20 -58 12 -2 33 4 47 14 21 13 26 24
26 59 0 23 7 64 15 91 8 27 15 73 15 102 0 76 -19 92 -123 100 -81 7 -82 7
-85 35 -2 16 3 36 11 45 9 10 17 26 19 37 3 17 -3 20 -45 23 -32 2 -49 -1 -51
-10z"/>
<path d="M243 938 c-6 -7 -13 -44 -16 -82 -4 -37 -10 -73 -15 -80 -5 -6 -12
-40 -16 -75 -3 -35 -10 -69 -15 -75 -5 -6 -11 -29 -14 -51 -2 -22 -11 -55 -18
-73 -13 -31 -12 -35 6 -48 11 -8 31 -14 45 -12 26 3 43 37 55 111 l6 39 52 -3
c117 -5 132 -2 176 42 22 23 41 47 41 54 0 7 7 18 15 25 11 9 15 32 15 84 -1
61 -4 75 -25 98 -13 15 -43 34 -67 43 -54 19 -211 21 -225 3z m219 -84 c4 -3
8 -34 8 -69 0 -62 -1 -64 -42 -100 -38 -32 -48 -36 -93 -33 l-50 3 3 60 c1 33
10 82 20 109 l17 48 64 -6 c35 -4 68 -9 73 -12z"/>
<path d="M1057 913 c-11 -13 -17 -36 -17 -72 0 -28 -7 -68 -15 -88 -8 -19 -15
-59 -15 -87 0 -29 -7 -59 -15 -70 -8 -11 -15 -32 -15 -48 0 -15 -8 -43 -17
-63 -15 -31 -15 -37 -3 -46 8 -5 31 -8 50 -7 37 3 43 13 55 91 l6 37 68 0
c132 0 208 59 239 185 15 60 2 103 -45 147 -26 24 -37 27 -143 33 -106 7 -116
6 -133 -12z m186 -69 c44 -23 48 -31 40 -89 -8 -62 -37 -105 -72 -105 -15 0
-42 -4 -61 -10 -50 -14 -61 1 -51 70 5 30 14 71 21 90 7 19 14 41 16 48 5 17
69 15 107 -4z"/>
</g>
</svg>
