<?xml version="1.0" standalone="no"?>
<!DOCTYPE svg PUBLIC "-//W3C//DTD SVG 20010904//EN"
 "http://www.w3.org/TR/2001/REC-SVG-20010904/DTD/svg10.dtd">
<svg version="1.0" xmlns="http://www.w3.org/2000/svg"
 width="40pt" height="40pt" viewBox="0 0 52.000000 52.000000"
 preserveAspectRatio="xMidYMid meet">
<metadata>
Created by potrace 1.10, written by Peter Selinger 2001-2011
</metadata>
<g transform="translate(0.000000,52.000000) scale(0.100000,-0.100000)"
fill="#1175ee" stroke="none">
<path d="M116 399 c-27 -21 -28 -26 -23 -79 3 -32 14 -79 26 -105 18 -42 24
-46 45 -41 14 3 28 1 31 -5 4 -6 18 -8 31 -5 22 6 24 4 24 -33 0 -82 83 -74
96 9 5 33 11 40 29 40 25 0 52 25 36 34 -5 3 -16 3 -25 0 -20 -8 -20 -6 5 46
12 24 24 60 26 80 4 31 1 40 -23 59 -29 23 -37 23 -179 11 -5 0 -24 2 -40 6
-23 4 -38 0 -59 -17z m271 -11 c24 -20 4 -136 -25 -146 -13 -4 -44 57 -36 70
13 20 30 6 26 -21 -2 -16 1 -32 7 -35 17 -11 14 70 -4 104 -9 17 -20 30 -25
30 -6 0 -10 5 -10 11 0 13 47 4 67 -13z m-193 -5 c-5 -10 -9 -55 -10 -99 -1
-82 -7 -104 -25 -104 -13 0 -36 56 -50 120 -14 68 4 100 57 100 31 0 35 -3 28
-17z m133 -9 l25 -25 -21 -15 c-26 -19 -27 -40 -1 -81 15 -26 17 -38 10 -59
-6 -14 -10 -38 -10 -53 0 -31 -16 -51 -41 -51 -21 0 -29 20 -29 75 0 24 -5 45
-11 47 -7 2 -7 12 1 32 12 33 4 85 -13 87 -7 1 -20 1 -29 0 -13 -2 -16 3 -11
16 20 58 85 72 130 27z m-107 -65 c0 -5 5 -7 12 -3 8 5 9 -5 5 -35 -6 -51 -12
-58 -32 -41 -15 12 -21 71 -8 83 10 10 23 8 23 -4z m-6 -110 c-4 -8 1 -9 17
-5 23 7 23 6 5 -8 -14 -11 -21 -12 -31 -3 -14 13 -10 27 6 27 6 0 7 -5 3 -11z"/>
</g>
</svg>
