<?xml version="1.0" standalone="no"?>
<!DOCTYPE svg PUBLIC "-//W3C//DTD SVG 20010904//EN"
 "http://www.w3.org/TR/2001/REC-SVG-20010904/DTD/svg10.dtd">
<svg version="1.0" xmlns="http://www.w3.org/2000/svg"
 width="40pt" height="40pt" viewBox="0 0 156.000000 156.000000"
 preserveAspectRatio="xMidYMid meet">
<metadata>
Created by potrace 1.10, written by Peter Selinger 2001-2011
</metadata>
<g transform="translate(0.000000,156.000000) scale(0.100000,-0.100000)"
fill="#1175ee" stroke="none">
<path d="M469 1287 c-54 -47 -64 -75 -62 -175 1 -55 6 -99 13 -108 17 -19 -2
-41 -43 -49 -56 -12 -117 -46 -162 -92 -72 -72 -69 -120 9 -196 42 -41 92 -69
146 -81 14 -4 34 -13 44 -21 15 -12 17 -17 7 -29 -7 -9 -13 -51 -14 -103 -2
-115 17 -162 80 -193 46 -23 79 -21 131 6 15 8 32 14 37 14 6 0 36 23 68 50
32 28 60 50 62 50 2 0 25 -18 52 -40 71 -59 71 -60 80 -60 4 0 20 -6 35 -14
52 -27 85 -29 131 -6 63 32 82 78 80 195 -1 54 -6 91 -12 93 -33 11 24 62 69
62 51 0 171 104 185 162 18 71 -81 167 -209 202 -42 12 -69 41 -50 54 7 4 15
44 19 89 6 74 5 87 -15 125 -32 63 -66 87 -122 88 -55 0 -139 -40 -197 -95
-20 -19 -40 -35 -46 -35 -5 0 -25 15 -45 34 -90 87 -215 121 -271 73z m175
-74 c75 -46 96 -64 96 -81 0 -8 -20 -35 -45 -60 -25 -25 -45 -49 -45 -54 0 -4
-17 -8 -39 -8 -21 0 -55 -7 -76 -16 -61 -25 -65 -19 -65 103 0 96 2 109 22
130 32 34 79 30 152 -14z m436 12 c21 -22 23 -33 22 -126 -1 -57 -6 -107 -11
-112 -7 -7 -25 -4 -53 6 -24 10 -60 17 -81 17 -20 0 -37 4 -37 8 0 5 -20 29
-45 54 -51 52 -55 68 -22 92 116 88 185 106 227 61z m-243 -175 c26 -32 15
-40 -52 -40 -76 0 -82 11 -33 59 30 30 32 30 52 13 11 -9 26 -24 33 -32z m59
-98 c11 -6 29 -28 40 -49 10 -21 25 -44 32 -51 6 -7 12 -20 12 -28 0 -8 7 -17
15 -20 8 -4 15 -18 15 -34 0 -16 -7 -30 -15 -34 -8 -3 -15 -12 -15 -20 0 -21
-76 -132 -95 -140 -9 -3 -57 -6 -107 -6 -88 0 -91 1 -119 31 -16 17 -32 42
-35 54 -3 13 -12 26 -20 29 -8 3 -14 15 -14 26 0 11 -7 23 -15 26 -19 8 -19
48 0 64 8 7 15 21 15 32 0 10 6 21 14 24 8 3 17 16 20 29 3 12 18 36 33 51 27
28 31 29 123 28 53 0 105 -6 116 -12z m-306 -21 c0 -11 -5 -23 -10 -26 -6 -4
-16 -20 -23 -36 -11 -28 -13 -29 -34 -14 -16 11 -23 26 -23 49 0 42 5 46 52
46 31 0 38 -4 38 -19z m478 -23 c2 -28 -2 -40 -20 -52 -22 -16 -23 -16 -35 13
-7 16 -17 32 -23 36 -5 3 -10 15 -10 26 0 17 6 20 43 17 41 -3 42 -4 45 -40z
m-615 -17 c9 -16 17 -38 17 -49 0 -11 7 -25 15 -32 19 -16 19 -50 1 -87 -7
-15 -22 -45 -31 -65 -19 -40 -44 -49 -65 -23 -7 8 -20 15 -29 15 -9 0 -39 15
-66 33 -79 52 -86 112 -18 157 21 14 44 31 51 37 7 7 22 13 31 13 10 0 24 7
31 15 19 23 44 18 63 -14z m727 14 c7 -8 20 -15 30 -15 10 0 23 -7 30 -15 7
-8 18 -15 25 -15 8 0 27 -14 44 -31 34 -34 40 -72 16 -106 -15 -22 -96 -73
-115 -73 -6 0 -18 -7 -26 -15 -26 -25 -50 -18 -69 23 -10 20 -24 49 -32 64
-17 35 -17 73 2 88 8 7 15 21 15 32 0 29 32 78 51 78 9 0 22 -7 29 -15z m-620
-237 c6 -13 15 -30 22 -39 21 -29 4 -47 -39 -40 -34 6 -38 10 -41 37 -2 19 3
38 13 48 22 22 34 20 45 -6z m500 3 c5 -11 10 -33 10 -50 0 -30 -1 -31 -45
-31 -38 0 -45 3 -45 19 0 11 5 23 11 26 5 4 14 18 19 31 11 29 35 31 50 5z
m-530 -126 c14 -8 46 -14 73 -15 26 0 47 -4 47 -8 0 -5 20 -29 45 -54 25 -25
45 -54 45 -64 -1 -22 -29 -44 -106 -85 -61 -33 -103 -36 -139 -13 -24 16 -25
20 -25 128 0 135 4 143 60 111z m570 -60 c12 -143 -8 -195 -76 -195 -56 0
-193 80 -194 113 0 9 20 38 45 64 25 25 45 50 45 54 0 5 21 9 48 9 26 1 58 7
72 15 45 26 54 16 60 -60z m-253 30 c3 -10 -50 -75 -62 -75 -8 0 -65 62 -65
71 0 15 18 20 69 17 30 -2 56 -8 58 -13z"/>
<path d="M740 863 c-41 -16 -60 -46 -60 -94 0 -40 4 -51 30 -72 55 -47 95 -47
149 -1 27 22 31 33 31 73 0 37 -5 52 -24 70 -25 23 -95 37 -126 24z"/>
</g>
</svg>
