<?xml version="1.0" standalone="no"?>
<!DOCTYPE svg PUBLIC "-//W3C//DTD SVG 20010904//EN"
 "http://www.w3.org/TR/2001/REC-SVG-20010904/DTD/svg10.dtd">
<svg version="1.0" xmlns="http://www.w3.org/2000/svg"
 width="40pt" height="40pt" viewBox="0 0 52.000000 52.000000"
 preserveAspectRatio="xMidYMid meet">
<metadata>
Created by potrace 1.10, written by Peter Selinger 2001-2011
</metadata>
<g transform="translate(0.000000,52.000000) scale(0.100000,-0.100000)"
fill="#1175ee" stroke="none">
<path d="M214 432 c-31 -25 -44 -55 -44 -104 0 -58 24 -132 43 -136 27 -5 32
20 7 40 -17 14 -24 32 -28 68 -6 62 11 105 48 120 38 16 65 0 80 -45 6 -19 16
-35 21 -35 25 0 -8 82 -40 100 -29 15 -63 12 -87 -8z"/>
<path d="M224 337 c-10 -27 5 -37 45 -31 44 7 89 -12 120 -52 42 -54 11 -118
-54 -112 -19 2 -35 -1 -35 -7 0 -5 17 -11 38 -13 82 -6 121 82 66 147 -31 37
-56 52 -104 61 -19 4 -43 11 -52 15 -12 5 -20 2 -24 -8z"/>
<path d="M121 264 c-29 -37 -28 -88 4 -119 46 -47 128 -26 189 49 38 45 42 76
11 76 -16 0 -16 -1 -20 -40 -3 -30 -59 -78 -101 -86 -67 -12 -102 40 -69 103
23 42 14 53 -14 17z"/>
</g>
</svg>
