<?xml version="1.0" standalone="no"?>
<!DOCTYPE svg PUBLIC "-//W3C//DTD SVG 20010904//EN"
 "http://www.w3.org/TR/2001/REC-SVG-20010904/DTD/svg10.dtd">
<svg version="1.0" xmlns="http://www.w3.org/2000/svg"
 width="40pt" height="40pt" viewBox="0 0 52.000000 52.000000"
 preserveAspectRatio="xMidYMid meet">
<metadata>
Created by potrace 1.10, written by Peter Selinger 2001-2011
</metadata>
<g transform="translate(0.000000,52.000000) scale(0.100000,-0.100000)"
fill="#1175ee" stroke="none">
<path d="M195 428 c-49 -18 -99 -53 -114 -82 -18 -33 -4 -64 41 -90 l30 -18
-28 -18 c-34 -23 -46 -43 -38 -64 16 -42 99 8 92 55 -2 12 2 24 9 26 7 3 9 -3
6 -16 -3 -12 1 -28 8 -37 12 -14 14 -14 26 2 7 10 13 12 13 6 0 -25 20 -10 40
29 12 23 23 39 26 36 9 -8 13 -48 5 -42 -5 2 -14 -2 -21 -10 -10 -12 -9 -15 8
-15 21 0 49 26 39 37 -4 3 -1 15 5 26 10 20 11 20 24 2 17 -23 18 -35 3 -35
-5 0 -7 5 -4 10 3 6 1 10 -4 10 -6 0 -11 -9 -11 -21 0 -15 4 -19 16 -15 9 3
18 6 20 6 2 0 4 9 4 20 0 15 7 20 29 20 31 0 57 -22 46 -40 -3 -5 -1 -10 4
-10 18 0 12 36 -9 55 -14 12 -28 16 -50 12 -28 -6 -30 -5 -30 23 0 39 -18 39
-31 0 -12 -33 -34 -42 -26 -10 11 41 -13 29 -38 -20 -26 -52 -41 -67 -25 -26
6 16 5 29 -4 41 -11 16 -15 15 -50 -9 l-38 -26 -29 23 c-54 43 -47 80 24 121
56 33 106 41 131 23 19 -14 19 -16 3 -40 -24 -37 -54 -50 -99 -44 -34 5 -37 3
-26 -10 9 -11 24 -14 52 -10 48 7 88 35 101 72 18 52 -52 81 -130 53z m43
-185 c-16 -38 -28 -51 -28 -29 0 22 18 56 30 56 6 0 5 -12 -2 -27z m-78 -37
c0 -16 -26 -46 -41 -46 -14 0 -11 22 8 42 19 22 33 23 33 4z"/>
</g>
</svg>
