<?xml version="1.0" standalone="no"?>
<!DOCTYPE svg PUBLIC "-//W3C//DTD SVG 20010904//EN"
 "http://www.w3.org/TR/2001/REC-SVG-20010904/DTD/svg10.dtd">
<svg version="1.0" xmlns="http://www.w3.org/2000/svg"
 width="40pt" height="40pt" viewBox="0 0 52.000000 52.000000"
 preserveAspectRatio="xMidYMid meet">
<metadata>
Created by potrace 1.10, written by Peter Selinger 2001-2011
</metadata>
<g transform="translate(0.000000,52.000000) scale(0.100000,-0.100000)"
fill="#1175ee" stroke="none">
<path d="M233 408 c-58 -15 -82 -82 -45 -127 9 -12 40 -34 67 -49 34 -19 50
-33 50 -47 0 -29 -47 -32 -89 -5 -31 18 -36 19 -50 5 -21 -21 -12 -38 33 -63
85 -48 170 -13 171 69 0 41 -21 65 -87 98 -48 24 -55 33 -47 55 8 20 53 21 81
1 26 -18 53 -10 53 16 0 35 -80 63 -137 47z"/>
</g>
</svg>
