<?xml version="1.0" standalone="no"?>
<!DOCTYPE svg PUBLIC "-//W3C//DTD SVG 20010904//EN"
 "http://www.w3.org/TR/2001/REC-SVG-20010904/DTD/svg10.dtd">
<svg version="1.0" xmlns="http://www.w3.org/2000/svg"
 width="38pt" height="40pt" viewBox="0 0 52.000000 52.000000"
 preserveAspectRatio="xMidYMid meet">
<metadata>
Created by potrace 1.10, written by Peter Selinger 2001-2011
</metadata>
<g transform="translate(0.000000,52.000000) scale(0.050000,-0.050000)"
fill="#1175ee" stroke="none">
<path d="M80 796 c-39 -65 -71 -172 -55 -187 4 -5 75 14 157 42 193 66 498
145 621 161 214 29 100 48 -282 48 l-402 0 -39 -64z"/>
<path d="M750 748 c-578 -138 -609 -227 -61 -175 l347 33 -30 87 c-34 100 -52
104 -256 55z"/>
<path d="M266 432 c-261 -26 -257 -23 -215 -130 41 -101 56 -102 371 -24 597
148 523 221 -156 154z"/>
<path d="M880 339 c-49 -20 -211 -64 -360 -99 -423 -97 -423 -96 -18 -98 413
-2 407 -4 486 152 51 102 41 106 -108 45z"/>
</g>
</svg>
