
<?xml version="1.0" standalone="no"?>
<!DOCTYPE svg PUBLIC "-//W3C//DTD SVG 20010904//EN"
 "http://www.w3.org/TR/2001/REC-SVG-20010904/DTD/svg10.dtd">
<svg version="1.0" xmlns="http://www.w3.org/2000/svg"
 width="50px" height="50px" viewBox="0 0 619.000000 421.000000"
 preserveAspectRatio="xMidYMid meet">
<metadata>
Created by potrace 1.14, written by Peter Selinger 2001-2017
</metadata>
<g transform="translate(0.000000,421.000000) scale(0.100000,-0.100000)"
fill="#fff" stroke="none">
<path d="M2987 4203 c-4 -3 -7 -44 -7 -89 0 -52 -4 -85 -12 -90 -6 -4 -69 -7
-140 -6 -115 1 -131 -1 -149 -19 -21 -21 -24 -45 -9 -69 7 -12 39 -16 161 -18
l151 -3 -5 -467 c-3 -257 -10 -559 -16 -672 -6 -113 -15 -297 -20 -410 -13
-259 -13 -996 -1 -1240 6 -102 14 -293 20 -424 5 -132 14 -278 20 -325 5 -47
12 -112 15 -143 6 -58 7 -58 40 -58 l33 0 7 108 c3 59 10 159 16 222 47 565
49 1906 4 2425 -19 224 -21 984 -2 986 6 1 64 0 127 0 145 -2 174 5 178 45 5
56 -3 59 -160 59 -84 0 -146 4 -150 10 -4 6 -8 49 -8 98 l0 87 -43 0 c-24 0
-47 -3 -50 -7z"/>
<path d="M2560 3595 c-13 -16 -3 -95 25 -200 7 -27 16 -72 19 -100 4 -27 13
-77 20 -110 40 -173 51 -288 51 -540 -1 -216 -4 -264 -23 -356 -36 -176 -79
-318 -137 -444 -7 -16 -23 -52 -35 -80 -12 -27 -26 -57 -31 -65 -15 -26 -125
-252 -168 -345 -23 -49 -46 -97 -52 -105 -5 -8 -12 -22 -15 -30 -3 -8 -14 -33
-24 -55 -10 -22 -21 -47 -24 -55 -3 -8 -10 -22 -15 -30 -10 -14 -71 -144 -160
-335 -23 -49 -46 -97 -52 -105 -5 -8 -12 -22 -15 -30 -7 -21 -45 -102 -56
-120 -4 -8 -11 -22 -15 -30 -3 -8 -23 -52 -44 -98 -43 -92 -45 -100 -25 -127
12 -16 15 -17 34 -3 19 13 72 82 72 94 0 2 15 26 33 52 18 26 59 90 91 142 88
141 126 202 147 232 11 15 19 29 19 32 0 3 17 31 39 63 47 71 110 169 182 286
30 48 71 113 91 145 20 31 51 80 68 107 17 28 49 77 70 110 54 82 152 285 178
370 12 39 28 93 37 120 8 28 22 127 32 222 17 170 17 175 -5 375 -27 250 -39
313 -108 558 -14 52 -32 116 -40 143 -7 26 -16 52 -20 58 -3 6 -12 32 -19 57
-17 59 -41 126 -62 175 -17 39 -41 48 -63 22z"/>
<path d="M3458 3598 c-9 -7 -29 -49 -43 -93 -14 -44 -30 -88 -35 -97 -6 -10
-14 -34 -19 -55 -10 -38 -32 -111 -52 -168 -6 -16 -17 -55 -24 -85 -7 -30 -18
-73 -23 -95 -59 -237 -75 -358 -79 -589 -5 -268 9 -360 90 -601 40 -120 107
-240 287 -520 22 -33 53 -82 70 -110 17 -27 64 -102 105 -165 41 -63 91 -144
112 -179 21 -35 43 -71 48 -80 21 -34 108 -167 126 -193 10 -15 19 -29 19 -32
0 -3 24 -40 53 -83 28 -43 58 -89 65 -103 7 -14 29 -46 48 -72 36 -50 62 -60
85 -32 11 13 10 21 -4 47 -9 18 -41 86 -72 152 -31 66 -72 152 -90 190 -66
137 -144 301 -183 385 -211 448 -291 615 -342 708 -5 9 -17 37 -28 62 -11 25
-29 66 -41 91 -11 25 -21 53 -21 61 0 8 -4 18 -9 24 -9 10 -44 122 -67 214
-25 98 -54 352 -54 465 1 109 29 400 50 505 7 30 20 100 31 155 11 55 27 127
35 160 27 106 9 169 -38 133z"/>
<path d="M2200 3525 c-14 -17 -14 -18 31 -170 12 -38 27 -84 35 -102 8 -17 14
-41 14 -53 0 -11 6 -33 14 -48 7 -15 16 -45 20 -67 4 -22 14 -60 21 -85 20
-61 43 -171 55 -255 6 -38 14 -95 19 -125 12 -72 13 -194 1 -250 -6 -25 -15
-70 -20 -101 -6 -32 -17 -70 -25 -85 -8 -16 -15 -34 -15 -39 0 -6 -13 -35 -30
-65 -16 -30 -33 -62 -37 -70 -4 -8 -24 -37 -45 -65 -21 -27 -49 -63 -61 -80
-38 -51 -288 -299 -788 -780 -563 -542 -629 -608 -629 -630 0 -38 36 -42 80
-9 54 41 341 259 365 278 11 9 56 44 99 78 43 35 91 72 105 83 14 11 31 24 37
30 7 5 51 42 99 80 48 39 164 135 259 214 94 79 209 175 256 214 181 151 334
319 394 431 14 27 31 55 36 61 6 7 15 26 20 42 5 15 20 59 34 97 54 144 74
361 48 521 -36 220 -90 406 -180 615 -33 78 -53 120 -107 233 -58 120 -76 137
-105 102z"/>
<path d="M3806 3518 c-12 -19 -48 -92 -141 -293 -21 -46 -67 -165 -110 -285
-62 -174 -102 -454 -90 -625 26 -354 189 -608 615 -955 30 -25 62 -52 70 -60
16 -14 94 -80 240 -202 329 -273 863 -681 887 -676 9 2 21 11 27 21 13 21 31
3 -1099 1097 -258 249 -330 329 -399 435 -22 33 -48 72 -58 87 -10 15 -18 33
-18 40 0 8 -6 23 -14 34 -8 11 -18 38 -22 60 -3 21 -14 53 -22 69 -24 45 -22
401 2 505 9 41 26 116 37 165 12 50 27 110 34 135 8 25 24 79 36 120 39 133
61 204 75 243 8 20 14 53 14 72 0 31 -3 35 -25 35 -14 0 -30 -9 -39 -22z"/>
<path d="M4113 3425 c-11 -7 -32 -33 -49 -57 -16 -24 -31 -45 -34 -48 -5 -5
-86 -129 -107 -165 -55 -91 -163 -336 -163 -367 0 -8 -9 -44 -20 -78 -16 -51
-20 -90 -20 -216 0 -108 4 -165 14 -191 8 -21 17 -51 20 -68 6 -28 27 -79 47
-115 5 -8 15 -28 24 -45 61 -124 231 -310 385 -422 149 -108 337 -234 580
-388 41 -26 91 -58 110 -70 94 -61 181 -115 234 -146 32 -19 71 -42 87 -51 16
-10 42 -26 58 -35 16 -10 70 -43 121 -73 96 -58 129 -77 183 -110 17 -11 42
-24 55 -30 13 -6 30 -17 38 -25 9 -8 21 -15 28 -15 8 0 19 -7 26 -15 7 -8 28
-15 46 -15 29 0 34 3 34 24 0 24 -26 46 -195 169 -200 145 -347 251 -425 307
-50 36 -120 85 -154 110 -133 95 -260 187 -331 240 -41 30 -97 71 -125 90
-523 358 -680 577 -667 930 4 113 32 274 55 317 7 12 12 30 12 40 0 10 9 40
19 68 11 27 36 93 57 145 36 94 55 139 95 225 30 65 8 112 -38 80z"/>
<path d="M1899 3414 c-11 -13 -10 -22 5 -52 35 -73 73 -162 106 -247 12 -33
26 -69 31 -80 13 -32 55 -164 73 -230 36 -136 46 -317 22 -440 -49 -253 -186
-415 -596 -705 -50 -36 -124 -88 -163 -117 -40 -29 -94 -68 -122 -87 -27 -19
-68 -48 -90 -65 -46 -36 -56 -43 -125 -91 -28 -19 -84 -60 -125 -90 -41 -30
-98 -72 -127 -93 -417 -299 -522 -377 -531 -393 -13 -23 0 -44 27 -44 13 0 56
19 96 43 39 23 84 49 98 57 44 24 162 94 187 110 13 8 53 33 90 55 37 22 78
47 90 55 13 8 64 40 115 70 51 30 107 64 124 75 18 11 54 33 82 50 27 16 51
32 54 35 3 3 28 19 55 35 28 16 70 43 95 60 25 18 52 35 60 38 12 6 87 56 125
84 6 5 53 37 105 72 52 35 105 71 116 80 12 9 32 23 44 31 52 35 129 97 189
154 76 73 211 239 211 260 0 8 4 18 10 21 12 7 60 102 60 118 0 7 7 25 15 41
52 98 51 458 -1 558 -8 15 -14 35 -14 45 -1 10 -9 36 -20 58 -11 22 -19 45
-20 51 0 5 -20 48 -45 95 -24 46 -51 98 -59 114 -8 17 -40 69 -71 115 -111
165 -143 193 -176 154z"/>
</g>
</svg>
