<?xml version="1.0" standalone="no"?>
<!DOCTYPE svg PUBLIC "-//W3C//DTD SVG 20010904//EN"
 "http://www.w3.org/TR/2001/REC-SVG-20010904/DTD/svg10.dtd">
<svg version="1.0" xmlns="http://www.w3.org/2000/svg"
 width="300.000000pt" height="300.000000pt" viewBox="0 0 300.000000 300.000000"
 preserveAspectRatio="xMidYMid meet">
<metadata>
Created by potrace 1.10, written by Peter Selinger 2001-2011
</metadata>
<g transform="translate(0.000000,300.000000) scale(0.050000,-0.050000)"
fill="#fff" stroke="none">
<path d="M2690 5981 c-2078 -242 -3304 -2466 -2376 -4309 l71 -141 -93 -82
c-112 -99 -100 -130 19 -48 107 73 112 73 157 -3 20 -34 81 -120 134 -191 54
-71 98 -132 98 -135 0 -27 418 -407 556 -506 1322 -945 3167 -660 4140 639
138 185 142 189 180 151 38 -38 54 0 17 41 -31 34 -28 47 65 225 1093 2087
-639 4630 -2968 4359z m820 -93 c1744 -295 2832 -2122 2270 -3810 -65 -198
-190 -476 -257 -576 -19 -28 -508 382 -974 817 -78 72 -228 210 -333 306 -496
451 -560 812 -294 1662 88 281 92 346 14 222 -464 -735 -447 -1413 49 -1915
191 -193 545 -478 1090 -877 212 -155 385 -291 385 -302 0 -44 -233 -332 -409
-505 -1140 -1121 -2938 -1123 -4099 -5 l-182 175 220 204 c348 323 880 849
1059 1049 489 545 547 1108 212 2045 -147 411 -194 452 -102 90 206 -816 214
-1200 30 -1565 -84 -166 -176 -283 -871 -1104 -51 -60 -199 -235 -329 -389
-130 -154 -241 -280 -246 -280 -13 0 -263 351 -263 370 0 8 169 141 375 294
1133 843 1334 1084 1360 1621 16 326 -38 536 -240 930 -175 341 -200 326 -75
-43 317 -930 230 -1234 -544 -1913 -212 -186 -504 -445 -649 -574 -145 -129
-267 -235 -272 -235 -5 0 -46 79 -90 175 -995 2155 822 4529 3165 4133z"/>
<path d="M2880 5430 l0 -170 -150 0 c-137 0 -150 -4 -150 -40 0 -36 13 -40
150 -40 l150 0 0 -455 c-1 -250 -10 -616 -21 -813 -57 -1031 2 -3707 68 -3102
54 490 75 2406 33 3070 -10 171 -19 535 -20 810 l0 500 150 -7 c141 -6 150 -4
150 35 0 39 -11 42 -150 42 l-150 0 0 170 c0 138 -6 170 -30 170 -24 0 -30
-32 -30 -170z"/>
<path d="M2462 4772 c-1 -21 23 -179 53 -350 126 -724 70 -1343 -175 -1922
-57 -136 -120 -292 -140 -348 -20 -56 -141 -371 -269 -700 -128 -329 -230
-613 -227 -630 6 -28 859 1581 917 1729 145 371 167 905 59 1469 -71 374 -214
864 -218 752z"/>
<path d="M3302 4666 c-293 -998 -305 -1689 -37 -2242 183 -377 845 -1620 858
-1612 9 5 0 52 -20 104 -21 52 -159 409 -309 794 -149 385 -298 764 -331 843
-244 590 -279 1165 -125 2033 41 230 21 274 -36 80z"/>
<path d="M3693 4705 c-6 -9 -30 -66 -54 -126 -385 -962 -387 -1540 -9 -2070
154 -216 1451 -1495 1483 -1462 16 15 64 -44 -645 795 -940 1112 -955 1138
-956 1648 -1 281 12 365 133 876 70 297 84 397 48 339z"/>
</g>
</svg>
