<?xml version="1.0" standalone="no"?>
<!DOCTYPE svg PUBLIC "-//W3C//DTD SVG 20010904//EN"
 "http://www.w3.org/TR/2001/REC-SVG-20010904/DTD/svg10.dtd">
<svg version="1.0" xmlns="http://www.w3.org/2000/svg"
 width="40pt" height="38pt" viewBox="0 0 52.000000 52.000000"
 preserveAspectRatio="xMidYMid meet">
<metadata>
Created by potrace 1.10, written by Peter Selinger 2001-2011
</metadata>
<g transform="translate(0.000000,52.000000) scale(0.100000,-0.100000)"
fill="#1175ee" stroke="none">
<path d="M130 334 c0 -24 3 -26 35 -22 19 2 35 1 35 -3 0 -4 -18 -42 -41 -83
l-41 -76 66 0 c64 0 66 1 66 26 0 23 -3 26 -30 22 -16 -3 -30 -2 -30 1 0 3 18
40 41 83 l40 78 -70 0 c-70 0 -71 0 -71 -26z"/>
<path d="M286 344 c-34 -33 -20 -44 54 -44 58 0 71 3 80 19 19 36 12 41 -54
41 -45 0 -69 -5 -80 -16z"/>
<path d="M282 267 c-25 -30 -18 -41 23 -38 36 2 65 21 65 43 0 13 -77 9 -88
-5z"/>
<path d="M282 198 c-17 -17 -15 -48 2 -48 14 0 46 36 46 52 0 12 -35 9 -48 -4z"/>
</g>
</svg>
