<svg version="1" xmlns="http://www.w3.org/2000/svg" width="46.667" height="46.667" viewBox="0 0 35.000000 35.000000"><g fill="#fff"><path d="M9.95 3.25C1.55 7.5-1.45 18 3.25 26.5c6.3 11.2 23.75 10.95 29.5-.45C40.5 10.7 25.3-4.5 9.95 3.25zM25.8 5.7c9.2 6.85 9.2 17.75 0 24.6-8.9 6.65-22.3-.75-22.3-12.3S16.9-.95 25.8 5.7z"/><path d="M12.3 17c.2 10.75.25 11 2.5 11 1.3 0 2.1-.35 1.85-.8-.3-.4.3-1.8 1.25-3.1l1.75-2.3 1.3 3.1c.95 2.3 1.95 3.1 3.75 3.1h2.5l-2.65-4.55-2.65-4.5 2.7-3.25 2.7-3.2-2.25-.35c-1.35-.2-2.75.45-3.55 1.5-.7 1.05-2.25 2.95-3.45 4.35l-2.15 2.5.65-7.25L17.2 6h-5.1l.2 11z"/></g></svg>