<svg version="1" xmlns="http://www.w3.org/2000/svg" width="40pt" height="40pt" viewBox="0 0 52.000000 52.000000"><g fill="#1175ee"><path d="M27.7 9.45C26.45 10.7 26 12.9 26 17.7c0 5.5-.2 6.35-1.4 5.35-2.3-1.85-2.95.6-.9 3.4 2.6 3.55 3.6 3.65 7.15.9 3.2-2.55 3.4-4.9.3-3.9-2.15.7-1.8-11 .35-11.8 2.05-.8 5.5.45 5.5 1.95 0 .85 1.05 1.4 2.5 1.4 2.75 0 3.2-1.65 1.25-4.35-1.9-2.55-10.85-3.4-13.05-1.2z"/><path d="M35.6 18.9c-2.55 2.65-2.25 5.25.4 3.6.6-.4 1 1.65 1 5.4 0 5.6-.2 6.1-2.45 6.7-2.85.7-4.55-.1-4.55-2.15 0-.9-1-1.45-2.55-1.45-2.9 0-2.7 3.35.35 5.75 6.25 4.9 13.2.3 13.2-8.7 0-5.3.2-6.1 1.4-5.1 2.85 2.35 2.85-1.05 0-4.05-3.4-3.55-3.4-3.55-6.8 0zm-20.15 2.85c-1.75.3-4.8 5.05-9.25 14.5-.2.4.8.75 2.25.75s2.85-.7 3.2-1.5C12 34.55 13.55 34 16 34c2.45 0 4 .55 4.35 1.5.6 1.55 4.65 2.15 4.65.65 0-1.4-5.9-13.95-6.75-14.4-.4-.2-1.7-.2-2.8 0zm2.55 8c0 .7-.9 1.25-2 1.25-2.3 0-2.4-.35-.9-3.2 1.15-2.15 2.85-1 2.9 1.95z"/></g></svg>