<svg version="1" xmlns="http://www.w3.org/2000/svg" width="40pt" height="40pt" viewBox="0 0 52.000000 52.000000"><path d="M23.3 8.4c.4 1-.2 1.6-1.6 1.8-2 .3-2.2.9-2.2 5.8 0 4.8-.6 6.6-4.7 13.6-2.7 4.4-4.8 8.6-4.8 9.3 0 2.6 3.6.4 5.8-3.6 2.3-4.2 2.3-4.2 7.1-3.6 2.7.3 5.7.1 6.8-.6 1.8-.9 2.3-.6 3.7 2.4.9 1.9 2.3 4.1 3.2 5 4 3.9 4.7-.4.9-5.5-2.9-3.9-3-4.8-1.1-6.9.8-.9 1.8-2.8 2.1-4.4.6-2.3.4-2.7-1.3-2.7-1.5 0-2.2.9-2.7 3-.4 1.6-1 3-1.4 3-1.4 0-3.4-4.8-2.5-6.1 1.8-2.9 1.2-6-1.6-8.9-3.1-3.1-6.6-4.1-5.7-1.6zm4.1 6.2c.8 2.1-.1 3.4-2.4 3.4-2.2 0-3.3-2.3-1.7-3.9 1.6-1.6 3.4-1.4 4.1.5zm1.5 10.6c1.6 2.5 1.1 3-3.3 3.1-4.3.1-5.1-.5-3.7-3.1 1.3-2.5 5.4-2.5 7 0z" fill="#1175ee"/></svg>