<svg version="1" xmlns="http://www.w3.org/2000/svg" width="40pt" height="40pt" viewBox="0 0 52.000000 52.000000"><g fill="#1175ee"><path d="M17 11.2c-4.7 1.7-8.6 3.2-8.8 3.4-.3.2 2.8 24.8 3.1 25 .1 0 3.5 1.9 7.5 4.2 4.1 2.3 7.5 4.2 7.7 4.2.3 0 14.4-7.9 15.3-8.6.3-.2 3.2-21.7 3.2-24 0-.9-17.3-7.6-19-7.3-.3 0-4.3 1.4-9 3.1zm16.8 1.5c4.3 1.4 8 2.9 8.5 3.3.4.3.2 5.4-.5 11.3L40.7 38l-7.1 3.9-7.1 3.9-6.5-3.5c-3.6-2-6.7-3.7-6.9-3.9-.5-.4-3-21.8-2.6-22.2.2-.3 13.8-5.7 15.3-6.1.2-.1 3.8 1.1 8 2.6z"/><path d="M20.9 24.4C15.4 36.6 15.3 37 17.5 37c1.8 0 2.5-.7 3-3 .6-2.9.9-3 6-3 4.9 0 5.3.2 6.5 3 .7 1.8 2 3 3.1 3 2.1 0 2.2.2-5.7-16.8l-3.9-8.3-5.6 12.5zm8-.4l1.9 4h-3.9c-2.1 0-3.9-.2-3.9-.5 0-.7 3.3-7.5 3.7-7.5.1 0 1.1 1.8 2.2 4z"/></g></svg>