<svg version="1" xmlns="http://www.w3.org/2000/svg" width="400" height="400" viewBox="0 0 300.000000 300.000000"><path d="M148.2 52.2c-1 1.8-5.4 9.5-9.6 17-4.9 8.7-8.4 13.9-9.7 14.3-1.3.5-4.9-.7-10.5-3.4-4.6-2.2-8.4-3.7-8.4-3.2 0 .4 2.3 12.3 5 26.4 5.3 27.1 5.4 29.7.8 29.7-2.1 0-4.8-2.5-19.4-18.2l-8.1-8.6-1.7 6.1c-2.8 10.1-2.6 10.1-22 6.1-7-1.4-13-2.4-13.2-2.1-.2.2 1.6 7.5 4.2 16.3 2.7 9.4 4.2 16.4 3.7 17.2-.4.7-3.5 2.5-6.8 4l-5.9 2.8L72 176.4c14 10.8 25.8 20.6 26.3 21.8.5 1.4-.1 4.6-1.7 9.5-1.4 4-2.2 7.3-1.8 7.3.4 0 11.6-1.4 25-3.2 18.1-2.4 24.7-3 26-2.2 2 1.3 2.1 6 .9 34.7l-.9 18.7h8.4l-.6-6.2c-.9-9.8-1.1-45.2-.3-46.6 1.3-1.9 3-1.8 47.9 4.4l4.7.7-2.3-7.6c-1.9-6.1-2.1-8-1.2-9.9.6-1.3 12.4-11.1 26.3-21.8l25.1-19.5-6.1-2.8c-3.4-1.5-6.4-3.2-6.8-3.8-.8-1.3-.2-3.9 4.6-20.2 2-7.1 3.5-13.1 3.2-13.3-.3-.3-6.2.6-13.1 2-14 2.9-17.9 3.2-19.3 1.3-.5-.6-1.7-3.9-2.7-7.2l-1.9-6-12.6 13.3c-9 9.5-13.2 13.2-14.9 13.2-4.3 0-4.2-3.1.9-29.5 2.7-13.8 4.9-25.5 4.9-26.2 0-.7-3.3.4-8.2 2.7-5.3 2.5-9.1 3.8-10.4 3.4-1.5-.4-5-5.6-11.7-17.5l-9.5-17-2 3.3z" fill="#fff"/></svg>