<svg version="1" xmlns="http://www.w3.org/2000/svg" width="400" height="400" viewBox="0 0 300.000000 300.000000"><g fill="#fff"><path d="M209 93.7c-41.3.75-100.85 12.1-129 24.5-36 15.9-55.25 31.75-59.15 48.65-3.35 14.45 15.85 30.25 49.5 40.65 13.6 4.2 15.65 4.1 6.05-.4C-6.9 168.1 96.5 96.55 237 95.9c13.15-.05 19.45-.4 17.5-.95-3.2-.9-27.95-1.6-45.5-1.25z"/><path d="M210.25 118.25c-.55.7-1.75 4.5-2.7 8.5L205.8 134h-4.9c-2.7 0-4.9.45-4.9 1 0 1.7-2.9 1.1-5-1-3.9-3.9-12.8-1.75-17.3 4.15-6.2 8.15-6.55 15.2-1.1 23.8 2.15 3.35 5.35 8.45 7.15 11.3 8.25 13.15-2.75 24.6-13.55 14.05-2.7-2.65-5.2-1.6-5.2 2.2 0 10.85 16.7 8.7 23.55-3 5.55-9.45 5.1-14.7-2-24.35-8.75-11.85-10.55-18.35-6.5-23.5 2.75-3.5 6.05-3.35 10.3.35 4 3.55 5.2 3.7 6.65 1 1.1-2.05 10.3-3.05 11.3-1.25.25.4-1.7 9.95-4.35 21.25-5.7 24.15-6.55 30.5-4.7 34 2.8 5.4 8.6 3.25 18.35-6.7 7.5-7.7 8.6-10.65 1.5-4-10.3 9.65-16.75 5.85-13.2-7.75.6-2.25 2.2-9.25 3.55-15.55 1.4-6.35 3.1-13.75 3.8-16.5l1.25-5 7-.5c10.15-.75 11-4 1.05-4-7.5 0-7.5.05-5.15-9.05 1.7-6.5-.15-10.5-3.15-6.7z"/><path d="M156.6 133.5c-1.2 1.8-2.55 2.5-4.85 2.5-17.8.15-45.75 41.25-38.45 56.55 4.05 8.45 21.9-3.8 27.7-19.05.85-2.3 2.9-3.25 4.2-2 .25.3-.3 4.3-1.25 8.9-3.05 14.7.45 20.95 7.65 13.65 4.3-4.35 5.05-5.4 8.4-11.6 3.9-7.15 3.5-9.2-.5-2.55-3.3 5.5-6.15 7.45-8.8 5.95-2.95-1.65-1.65-9.9 5.9-37.45 2.4-8.85 4.4-16.4 4.4-16.75 0-1.65-2.95-.4-4.4 1.85zm-6.8 8.7c6.15 6.15-15.95 45.85-25.5 45.8-10.1-.1-4.1-24.85 9.55-39.3 6.4-6.7 13-9.45 15.95-6.5zm-49.9-8.85c-22.55 8.3-33.35 49.9-16 61.4 5.95 3.95 15.35 1.55 20.55-5.25 3.75-4.95 2.95-6.4-1.35-2.4-8.85 8.3-20.1.35-20.1-14.25 0-24.2 22.2-50.95 26.9-32.35 1.25 5 4.15 6.15 6.1 2.45 3.5-6.5-7.2-12.9-16.1-9.6z"/></g></svg>