<svg version="1" xmlns="http://www.w3.org/2000/svg" width="400" height="400" viewBox="0 0 300.000000 300.000000"><g fill="#fff"><path d="M204.75 67.05c-27.95 6.8-36.15 50.95-16.8 90.55 27.2 55.7 80 50.05 80-8.6.05-44.9-34.05-89.05-63.2-81.95zm19.2 4.85c35.2 13.35 55.5 83.75 31.9 110.65-18.9 21.5-54.45-3.95-65.3-46.85-10.6-41.65 6.4-74.05 33.4-63.8z"/><path d="M216.1 108.75l-20.4.3.6 8.2c.85 12.65 11.05 42.35 15.45 45.1.55.35 8.4-3.75 17.4-9.15 9-5.4 17.7-10.25 19.35-10.75 10.3-3.4 1.4-35.25-9.6-34.2-1.3.1-11.6.35-22.8.5zm27.15 4c6.5 6.8 10.55 21.8 7.05 26.15-5.85 7.2-18.75-16.75-14.7-27.3.95-2.45 4.75-1.9 7.65 1.15zM166 92.15c-11.8 8.25-36.25 22.85-56.9 33.9l-17.4 9.3.6 9.6c.75 12.2 3.05 23.3 7.05 34.05l3.15 8.5 43.5.6c23.95.35 45.3.9 47.5 1.25 2.2.3 6.4.85 9.35 1.15l5.35.6-5.35-4.35c-24.7-20.1-38.5-65.05-29.05-94.5 2.4-7.5 2.75-7.5-7.8-.1zm-92.35 49.4C60.7 147.5 45.95 153 42.9 153c-1.05 0-1.9.45-1.9.95 0 .55-1.3 1.65-2.85 2.5-13.2 6.8-4.3 33.2 11.35 33.7 17 .5 46.6-1.45 45.9-3.05-5.8-13.3-9.4-28.75-9.7-41.95-.1-5-.2-9.1-.2-9.05 0 0-5.35 2.5-11.85 5.45zm17.6 50.2c-5 .25-7.25.75-7.25 1.6 0 2.45 4.05 23.25 6.5 33.4 4.25 17.65 5.15 18.45 21 18.5 16.5.05 30.55-3.45 30.45-7.6-.25-8.4-4.4-17.1-9.45-19.75-6.15-3.25-9.75-8.55-12.2-18.15-2.4-9.4-2.05-9.3-29.05-8z"/></g></svg>