<svg version="1" xmlns="http://www.w3.org/2000/svg" width="40pt" height="40pt" viewBox="0 0 52.000000 52.000000"><path d="M22.15 7.3L20 9.65l2.25 2.05c1.25 1.15 3.25 2.4 4.5 2.75 1.25.4 2.25 1.5 2.25 2.45 0 2.15 3.75 5.75 6.5 6.25s3.2 4.4.65 5.8c-2.1 1.1-5.75-1.15-4.7-2.9.25-.4-.6-1.8-2-3.05L27 20.65l.4 5.45c.25 2.95.75 6.2 1.1 7.15C29.55 35.8 28.35 38 26 38c-2.55 0-3.7-2.65-2.15-5.1C25.25 30.6 25.4 20 24 20c-.55 0-1-.8-1-1.85 0-1-1.15-2.85-2.5-4.15l-2.55-2.4L11.5 18c-8.25 8.15-8.3 7.75 3.25 19.25 11.9 11.85 10.65 11.9 22.5 0 11.8-11.85 11.8-10.05-.05-22.2C26.7 4.3 25.55 3.7 22.15 7.3z" fill="#1175ee"/></svg>