<?xml version="1.0" standalone="no"?>
<!DOCTYPE svg PUBLIC "-//W3C//DTD SVG 20010904//EN"
 "http://www.w3.org/TR/2001/REC-SVG-20010904/DTD/svg10.dtd">
<svg version="1.0" xmlns="http://www.w3.org/2000/svg"
 width="38pt" height="40pt" viewBox="0 0 300.000000 139.000000"
 preserveAspectRatio="xMidYMid meet">
<metadata>
Created by potrace 1.10, written by Peter Selinger 2001-2011
</metadata>
<g transform="translate(0.000000,139.000000) scale(0.050000,-0.050000)"
fill="#1175ee" stroke="none">
<path d="M5870 2760 c-7 -12 -19 -17 -27 -12 -8 5 -14 -9 -14 -31 0 -33 3 -35
21 -10 19 25 28 21 60 -27 21 -32 46 -53 54 -47 27 16 18 47 -14 47 -16 0 -30
10 -30 21 0 12 8 16 18 10 10 -6 13 9 6 34 -10 37 -14 39 -20 10 -4 -20 -15
-30 -26 -24 -10 7 -13 20 -7 30 6 11 7 19 1 19 -5 0 -15 -9 -22 -20z"/>
<path d="M5204 2546 c-17 -7 -21 -31 -13 -73 8 -47 -7 -110 -57 -233 -37 -94
-79 -204 -92 -245 -26 -79 -40 -89 -76 -53 -30 30 -159 6 -255 -48 -92 -52
-109 -86 -52 -104 51 -16 50 -19 -158 -315 -181 -259 -302 -383 -470 -484 -65
-39 -112 -71 -104 -71 31 0 146 67 233 136 141 111 159 118 50 18 -112 -102
-295 -201 -346 -188 -28 8 -27 10 5 12 37 2 37 3 2 29 -70 51 117 364 408 683
250 273 275 391 83 390 -86 -1 -250 -71 -232 -99 7 -12 -1 -16 -19 -9 -44 17
-39 -22 7 -55 45 -31 -151 -349 -361 -587 -58 -66 -83 -102 -56 -80 l49 40
-39 -45 c-64 -76 -80 -22 -32 108 57 152 93 207 139 207 85 0 100 105 19 131
-54 17 -135 -40 -167 -119 -15 -35 -76 -127 -135 -204 -59 -77 -105 -149 -100
-162 7 -22 -29 -55 -60 -56 -8 0 -13 -6 -10 -13 10 -25 -73 -98 -100 -88 -15
6 -22 2 -15 -10 7 -11 -17 -33 -54 -48 -86 -37 -124 2 -109 114 11 92 0 95
-37 10 -16 -36 -29 -51 -29 -34 -1 17 26 76 60 130 l60 99 -60 -69 c-210 -240
-7 -436 227 -220 95 87 125 100 92 39 -12 -22 -17 -40 -12 -40 15 0 196 327
200 360 1 17 20 56 41 87 21 31 53 85 72 120 23 43 51 65 88 70 67 8 62 -43
-5 -53 -61 -9 -96 -67 -163 -274 -68 -209 -144 -379 -201 -450 -23 -28 -35
-35 -28 -16 22 65 -13 77 -65 21 -27 -30 -44 -41 -37 -25 8 17 -26 -15 -75
-69 -49 -55 -129 -135 -177 -177 -49 -43 -69 -68 -46 -57 23 12 97 80 165 153
68 72 123 123 123 114 0 -40 -276 -289 -369 -333 -178 -85 -397 -26 -467 125
-50 108 -104 140 -104 62 0 -309 466 -396 824 -155 177 120 456 519 456 653 0
34 80 1 81 -33 0 -18 14 -2 30 36 17 38 26 80 21 93 -5 13 9 41 32 61 138 125
442 617 397 646 -36 23 177 88 226 69 74 -28 35 -100 -196 -352 -234 -256
-424 -572 -405 -672 l10 -54 -37 47 c-21 25 -47 40 -58 33 -12 -7 -21 -1 -21
12 0 14 -5 19 -12 13 -19 -19 12 -93 57 -136 83 -77 237 -42 393 89 56 47 93
66 102 52 10 -17 63 107 69 163 0 7 61 92 133 190 210 281 302 432 292 481 -9
51 64 86 179 86 131 0 83 -97 -189 -380 -281 -294 -460 -684 -310 -678 38 2
44 6 19 12 -106 27 92 373 426 746 67 74 66 76 27 -60 -5 -16 5 -7 21 20 16
28 28 55 26 61 -2 6 21 40 51 75 29 35 60 84 67 109 8 25 30 68 49 95 56 79
144 345 135 405 l-8 56 49 -46 c49 -45 49 -45 27 -1 -47 90 -31 134 32 91 113
-79 325 -136 325 -88 0 47 -204 160 -300 165 -47 3 -46 4 10 18 57 14 57 15
10 19 -27 2 -72 6 -100 10 -27 3 -62 2 -76 -3z"/>
<path d="M5705 2388 c46 -54 44 -86 -7 -141 -24 -25 -191 -440 -382 -951 -382
-1022 -385 -1026 -555 -1026 -104 0 -221 78 -221 149 0 17 -10 45 -21 61 -15
22 -17 15 -10 -30 23 -135 173 -245 303 -221 146 27 159 54 529 1031 215 569
362 929 392 961 61 66 59 101 -8 161 -40 35 -45 37 -20 6z"/>
<path d="M5308 2258 c-20 -25 -167 -405 -198 -513 -20 -72 39 -35 82 51 21 41
47 80 58 88 19 14 22 23 28 85 1 15 16 42 33 59 22 23 29 63 25 145 -5 88 -11
107 -28 85z"/>
<path d="M3010 2114 c-189 -92 -467 -423 -638 -761 -90 -178 -236 -325 -423
-429 -65 -36 -96 -61 -69 -55 48 11 48 10 7 -11 -57 -30 -155 16 -163 76 -12
83 30 129 105 115 129 -24 351 117 351 222 0 219 -491 130 -621 -113 -11 -20
24 7 78 61 156 155 425 210 484 99 34 -64 -103 -221 -191 -217 -11 0 15 19 57
41 42 23 73 45 67 50 -11 11 -161 -74 -171 -96 -9 -22 -78 -20 -92 2 -21 35
167 185 225 178 32 -3 52 -17 49 -32 -4 -15 3 -21 15 -14 33 20 23 67 -19 89
-157 85 -482 -330 -357 -455 19 -19 16 -24 -10 -24 -19 0 -53 19 -76 42 -23
23 -54 36 -72 29 -26 -10 -30 4 -21 90 5 60 2 91 -7 76 -10 -15 -18 -64 -18
-109 -1 -261 344 -275 626 -27 50 43 99 79 109 79 10 0 29 23 42 51 30 65 29
83 -1 53 -56 -56 -58 -18 -2 41 34 36 91 124 126 195 146 292 463 661 627 730
310 130 344 -133 48 -375 -140 -114 -130 -90 25 62 103 101 140 152 140 190 0
193 -434 -176 -744 -633 -46 -68 -83 -126 -81 -129 2 -2 -1 -17 -7 -33 -13
-34 55 -118 159 -194 76 -56 77 -56 27 -69 -59 -15 -187 40 -221 94 -32 53
-50 46 -68 -27 -19 -70 -64 -100 -67 -43 -1 22 -9 12 -20 -23 -23 -79 -4 -179
44 -222 54 -48 67 -25 67 121 1 162 5 165 128 89 117 -73 268 -97 361 -59 62
26 100 85 63 97 -12 4 -15 18 -7 31 7 13 -1 11 -20 -4 -18 -15 -29 -35 -24
-43 17 -28 -157 21 -224 63 -74 45 -85 77 -29 77 258 0 491 325 288 402 -52
20 -51 21 66 91 181 109 295 214 357 326 119 220 -36 351 -278 235z m210 -169
c0 -36 -132 -171 -261 -267 -136 -101 -199 -163 -78 -77 34 24 66 39 72 33 17
-17 -200 -135 -228 -125 -14 6 -25 1 -25 -10 0 -10 11 -19 25 -19 17 -1 15 -7
-5 -22 -22 -15 -14 -17 34 -8 151 30 200 -101 81 -219 -112 -111 -375 -168
-375 -81 0 39 193 190 242 190 107 0 47 -118 -92 -182 -44 -21 -66 -37 -49
-38 52 0 200 107 212 155 28 110 -70 142 -181 59 -34 -26 -75 -54 -92 -62 -38
-19 74 86 140 133 32 22 37 30 13 22 -57 -20 -19 38 140 211 208 226 427 384
427 307z"/>
<path d="M5359 1669 c-40 -48 -181 -123 -259 -137 -109 -20 -189 -104 -258
-271 -65 -157 -67 -196 -6 -121 22 27 43 38 50 26 37 -60 -342 -326 -464 -326
-57 0 -122 43 -122 81 0 10 -13 13 -30 6 -42 -16 -37 -60 10 -107 52 -52 170
-52 255 0 36 22 65 30 65 18 0 -12 24 7 52 41 79 93 78 65 -2 -132 -95 -232
-97 -295 -14 -370 175 -155 224 -96 482 583 119 314 231 605 249 648 37 86 33
111 -8 61z m-228 -431 c17 -28 -21 -67 -48 -50 -23 15 -9 72 18 72 9 0 23 -10
30 -22z m-162 -172 c21 -55 -41 -103 -82 -62 -18 18 -27 47 -20 64 16 42 85
41 102 -2z m-114 -120 c3 -11 -16 -25 -43 -31 -44 -8 -48 -5 -30 29 21 39 60
40 73 2z m-126 -175 c-45 -119 -59 -106 -17 17 18 52 37 90 42 84 6 -5 -6 -51
-25 -101z"/>
<path d="M1534 1639 c-116 -91 -28 -252 95 -172 58 38 86 124 57 171 -30 48
-92 49 -152 1z m117 -20 c7 -11 -2 -43 -20 -70 -40 -61 -131 -69 -131 -10 0
75 116 137 151 80z"/>
<path d="M3200 1438 c-51 -20 -340 -295 -340 -322 0 -44 76 -5 185 94 119 107
190 147 133 74 -15 -20 -3 -11 27 20 93 95 52 136 -53 54 -30 -24 -59 -38 -64
-32 -21 20 110 94 166 94 137 0 139 -101 6 -298 -107 -159 -116 -182 -70 -182
17 0 30 12 30 27 0 15 30 67 67 115 187 246 138 447 -87 356z"/>
<path d="M1405 1367 c8 -41 -7 -71 -69 -139 -74 -80 -77 -89 -50 -128 31 -44
132 75 103 122 -6 10 3 38 20 62 17 25 31 63 32 85 0 41 0 41 31 1 63 -81 -3
-303 -156 -525 -32 -47 -69 -84 -82 -83 -18 1 -17 4 1 11 14 6 19 21 12 34 -7
13 -6 16 4 7 9 -8 29 23 43 70 32 107 32 122 3 104 -16 -10 -20 -4 -11 19 22
58 2 36 -74 -78 -40 -60 -106 -146 -145 -190 -40 -44 -68 -84 -63 -89 11 -11
199 219 235 287 13 25 29 41 36 35 54 -54 -499 -595 -604 -591 -12 0 4 14 34
30 81 44 67 51 -23 13 -49 -21 -70 -39 -55 -49 27 -18 -90 0 -181 28 -67 20
-166 120 -166 166 0 14 -14 38 -32 52 -50 43 -71 -15 -36 -100 140 -333 632
-288 987 92 300 321 449 807 248 807 -45 0 -50 -7 -42 -53z"/>
<path d="M4725 1155 c-66 -169 -72 -190 -47 -155 29 39 106 243 96 253 -5 4
-27 -40 -49 -98z"/>
</g>
</svg>
