<svg version="1" xmlns="http://www.w3.org/2000/svg" width="44" height="35pt" viewBox="0 0 40.000000 40.000000"><g fill="#1175ee"><path d="M27.2 11.2C23.5 14.9 29.1 23 35.3 23c3.1 0 10-3.9 7-4-.6 0-1.5.4-1.8 1-1.2 1.9-6.3 1-9.5-1.7-2.6-2.1-3.1-3.1-2.6-5.5.6-3.1.5-3.3-1.2-1.6z"/><path d="M18.6 14.2c-2.8 4-2 8.6 2.2 12.8 4.1 4.2 8.9 5.7 14.6 4.6 3.4-.7 9.3-5.2 8.2-6.3-.3-.3-1.4.1-2.4 1-3 2.7-7.7 3.2-12.7 1.3-6-2.3-8.9-6.5-8.2-11.7.6-4.5.4-4.7-1.7-1.7z"/><path d="M8 18.2C0 31.4 18.9 47.1 34.8 40.5c3.6-1.6 8.2-5.2 8.2-6.5 0-.4-2.1.3-4.7 1.6-7.9 4-15.8 2.7-22.9-3.8-4.8-4.4-6.4-9.3-4.6-14 1.4-3.9-.4-3.6-2.8.4z"/></g></svg>