<svg version="1" xmlns="http://www.w3.org/2000/svg" width="40pt" height="40pt" viewBox="0 0 52.000000 52.000000"><path d="M2.8 22.5C2.1 28.4 3 33 4.9 32.9c1 0 1.1-.2.4-.6-1.7-.6-1.7-10.5-.1-12.1.9-.9.8-1.2-.4-1.2-1.1 0-1.7 1.1-2 3.5zm45.1.2c.4 2.1.4 5.3 0 7.1-.5 2.3-.3 3.2.5 2.9 1.5-.5 1.5-12.9 0-13.4-.8-.3-.9.8-.5 3.4zM8.8 21.5c-.4.4-.4 2.1-.1 3.7.4 2 .1 3.3-.8 3.8-.7.5-1 1.2-.6 1.6 1.5 1.5 2.8-1.4 2.5-5.6-.2-2.3-.6-3.9-1-3.5zm34.1.2c-.4 4.6-.2 7.3.6 7.3.6 0 .9-1.7.7-4-.4-3.5-1.1-5.3-1.3-3.3zm-25.8 1.7c-1.6 2-1 5 1.1 5.4 2.3.4 3.4-3.6 1.6-5.5-1.3-1.2-1.6-1.2-2.7.1zm2.4 3.6c-.5.8-1.1.8-1.7.2-.6-.6-.7-1.6-.3-2.2.5-.8 1.1-.8 1.7-.2.6.6.7 1.6.3 2.2zm-8-3.1c-.3.5-.1 1.2.5 1.6.5.3 1 .1 1-.5s.5-.8 1-.5c.6.3 1 .1 1-.4 0-1.3-2.7-1.4-3.5-.2zM22 24c0 .7.7 1 1.5.6 1.1-.4 1.5.1 1.5 1.9 0 1.4.4 2.5.9 2.5.6 0 .9-1.2.8-2.8-.2-2-.8-2.8-2.5-3-1.2-.2-2.2.2-2.2.8zm9 0c0 .5.6.7 1.4.4.9-.4 1.4 0 1.2 1-.3 1.9-1.6 3.4-1.6 1.8 0-.7-.4-1.2-1-1.2-.5 0-.7.7-.4 1.5.4.8 1.7 1.5 3 1.5 2.7 0 2.7 0 1.4-3.4-.9-2.5-4-3.7-4-1.6zm5.5 3c-.1 2.9.3 4 1.4 4 .8 0 1.2-.3.8-.6-.3-.4.3-1.4 1.4-2.3 2.5-2 1.6-5.1-1.5-5.1-1.8 0-2.1.6-2.1 4zm3.5-.9c0 1.1-.4 1.7-1 1.4-.5-.3-1-1.3-1-2.1s.5-1.4 1-1.4c.6 0 1 .9 1 2.1zM14 27c0 .5-.7.7-1.5.4-.8-.4-1.5-.1-1.5.5s.9 1.1 2 1.1 2-.7 2-1.5-.2-1.5-.5-1.5-.5.4-.5 1zm8 1c0 .5.5 1 1 1 .6 0 1-.5 1-1 0-.6-.4-1-1-1-.5 0-1 .4-1 1zm6 0c0 .5.5 1 1.1 1 .5 0 .7-.5.4-1-.3-.6-.8-1-1.1-1-.2 0-.4.4-.4 1z" fill="#1175ee"/></svg>