<svg version="1" xmlns="http://www.w3.org/2000/svg" width="40pt" height="40pt" viewBox="0 0 52.000000 52.000000"><path d="M11 21.9c0 1-.3 3.3-.6 5-.5 2.4-.3 3.1 1 3.1 1 0 1.6-.9 1.7-2.3v-2.2l1.1 2.2c.6 1.3 1.5 2.3 2 2.3s1.3-1 1.8-2.3l.9-2.2v2.2c.1 1.4.7 2.3 1.7 2.3 1.4 0 1.5-.8.9-4.8-.4-2.6-.9-4.9-1.1-5.1-.9-1-3.4 1.1-3.4 2.9 0 1.2-.4 1.8-1 1.5-.5-.3-1-1.5-1-2.6 0-1.2-.7-1.9-2-1.9s-2 .7-2 1.9zm12.4-.7c.2.7 1 3 1.7 5 .8 2.4 1.8 3.8 2.9 3.8 1.1 0 2.1-1.4 2.9-3.8.7-2 1.5-4.3 1.7-5 .3-.6-.1-1.2-1-1.2s-1.8 1.1-2.2 2.5c-.3 1.4-1 2.5-1.4 2.5-.4 0-1.1-1.1-1.4-2.5-.4-1.4-1.3-2.5-2.2-2.5-.9 0-1.3.6-1 1.2zm11.6.7c-1.3 2.6-1.3 5.4.2 6.9 1.8 1.8 6.8 1.5 6.8-.3 0-.9-.8-1.4-2.2-1.2-1.5.1-2.3-.4-2.6-1.7-.6-2.7 1.3-4.2 3.3-2.6 1.3 1 1.5.9 1.5-.9 0-1.7-.6-2.1-3-2.1-1.9 0-3.3.7-4 1.9z" fill="#1175ee"/></svg>