<svg version="1" xmlns="http://www.w3.org/2000/svg" width="40pt" height="40pt" viewBox="0 0 52.000000 52.000000"><path d="M6.7 17.7c-.4.3-.7 1.9-.7 3.4 0 1.6-.8 3.3-1.7 3.9-1.7 1-1.7 1 0 2 1 .7 1.7 2.3 1.7 4.1 0 1.7.6 3.2 1.5 3.6 2.2.8 3-.4 1.5-2.2-1.5-1.8-1.6-11.3-.1-12.8.6-.6 1.1-1.5 1.1-1.9 0-1-2.4-1.1-3.3-.1zm35.3.2c0 .6.5 1.1 1 1.1.6 0 1 1 1 2.3 0 1.3.6 2.9 1.3 3.6 1 1.1 1 1.4 0 1.8-.7.3-1.3 1.8-1.3 3.4 0 1.6-.4 2.9-1 2.9-.5 0-1 .5-1 1.1 0 .6 1 .9 2.3.7 1.6-.2 2.3-1.1 2.5-3.3.2-1.7 1.1-3.6 2-4.3 1.5-1.1 1.5-1.3 0-2.5-.9-.6-1.8-2.6-2-4.2-.2-2.2-.9-3.1-2.5-3.3-1.3-.2-2.3.1-2.3.7zM14 21c-3.9 3.9-1.8 11.5 3 10.8 4.6-.6 5.3-9.5 1-11.8-1.5-.8-2.4-.6-4 1zm5 4.6c0 2.3-1.2 4.4-2.6 4.4-1.9 0-2.8-4.4-1.4-7.1 1.2-2.2 1.3-2.2 2.6-.4.8 1 1.4 2.4 1.4 3.1zm6-4.6c-2.2 2.2-2.6 6-1 9.1 2.6 4.8 8.8-.2 7.5-6.1-.9-4.3-3.9-5.6-6.5-3zm4 3.5c.4 3.8 0 5.5-1.4 5.5-2.5 0-3.6-5.6-1.4-7.8 1.4-1.4 2.5-.5 2.8 2.3zm5 1.5c0 4.9.3 6 1.6 6 1.2 0 1.5-.6 1.1-2.1-.4-1.5 0-2.3 1.3-2.6 4.4-1.2 3.5-7.3-1.1-7.3-2.9 0-2.9 0-2.9 6zm4.8-2.3c-.4 2.2-2.2 2-2.6-.1-.2-1 .3-1.6 1.3-1.6s1.5.7 1.3 1.7z" fill="#1175ee"/></svg>