<svg version="1" xmlns="http://www.w3.org/2000/svg" width="40pt" height="40pt" viewBox="0 0 156.000000 156.000000"><path d="M67.6 50.2C67 51.9 66.1 58 65.2 66c-.4 3.6-1.3 7.5-2 8.7-.7 1.2-1.2 4.2-1.2 6.8 0 2.5-.7 6-1.6 7.6-2.2 4.3-1.5 9.3 1.3 9.7 4 .6 6.3-1.5 6.3-5.8 0-2.1.5-5.1 1.2-6.7.6-1.5 1.4-5.7 1.7-9.3l.6-6.5h14l.3 5.5c.2 3.4-.3 6.7-1.3 9-.8 1.9-1.6 6-1.8 9-.2 5 0 5.5 2 5.8 1.2.2 3.3-.4 4.7-1.4 2.1-1.3 2.6-2.4 2.6-5.9 0-2.3.7-6.4 1.5-9.1.8-2.7 1.5-7.3 1.5-10.2 0-7.6-1.9-9.2-12.3-10-8.1-.7-8.2-.7-8.5-3.5-.2-1.6.3-3.6 1.1-4.5.9-1 1.7-2.6 1.9-3.7.3-1.7-.3-2-4.5-2.3-3.2-.2-4.9.1-5.1 1zm-43.3 12c-.6.7-1.3 4.4-1.6 8.2-.4 3.7-1 7.3-1.5 8-.5.6-1.2 4-1.6 7.5-.3 3.5-1 6.9-1.5 7.5-.5.6-1.1 2.9-1.4 5.1-.2 2.2-1.1 5.5-1.8 7.3-1.3 3.1-1.2 3.5.6 4.8 1.1.8 3.1 1.4 4.5 1.2 2.6-.3 4.3-3.7 5.5-11.1l.6-3.9 5.2.3c11.7.5 13.2.2 17.6-4.2 2.2-2.3 4.1-4.7 4.1-5.4 0-.7.7-1.8 1.5-2.5 1.1-.9 1.5-3.2 1.5-8.4-.1-6.1-.4-7.5-2.5-9.8-1.3-1.5-4.3-3.4-6.7-4.3-5.4-1.9-21.1-2.1-22.5-.3zm21.9 8.4c.4.3.8 3.4.8 6.9 0 6.2-.1 6.4-4.2 10-3.8 3.2-4.8 3.6-9.3 3.3l-5-.3.3-6c.1-3.3 1-8.2 2-10.9l1.7-4.8 6.4.6c3.5.4 6.8.9 7.3 1.2zm59.5-5.9c-1.1 1.3-1.7 3.6-1.7 7.2 0 2.8-.7 6.8-1.5 8.8-.8 1.9-1.5 5.9-1.5 8.7 0 2.9-.7 5.9-1.5 7-.8 1.1-1.5 3.2-1.5 4.8 0 1.5-.8 4.3-1.7 6.3-1.5 3.1-1.5 3.7-.3 4.6.8.5 3.1.8 5 .7 3.7-.3 4.3-1.3 5.5-9.1l.6-3.7h6.8c13.2 0 20.8-5.9 23.9-18.5 1.5-6 .2-10.3-4.5-14.7-2.6-2.4-3.7-2.7-14.3-3.3-10.6-.7-11.6-.6-13.3 1.2zm18.6 6.9c4.4 2.3 4.8 3.1 4 8.9-.8 6.2-3.7 10.5-7.2 10.5-1.5 0-4.2.4-6.1 1-5 1.4-6.1-.1-5.1-7 .5-3 1.4-7.1 2.1-9 .7-1.9 1.4-4.1 1.6-4.8.5-1.7 6.9-1.5 10.7.4z" fill="#1175ee"/></svg>