<svg version="1" xmlns="http://www.w3.org/2000/svg" width="40pt" height="40pt" viewBox="0 0 52.000000 52.000000"><path d="M11.6 12.1c-2.7 2.1-2.8 2.6-2.3 7.9.3 3.2 1.4 7.9 2.6 10.5 1.8 4.2 2.4 4.6 4.5 4.1 1.4-.3 2.8-.1 3.1.5.4.6 1.8.8 3.1.5 2.2-.6 2.4-.4 2.4 3.3 0 8.2 8.3 7.4 9.6-.9.5-3.3 1.1-4 2.9-4 2.5 0 5.2-2.5 3.6-3.4-.5-.3-1.6-.3-2.5 0-2 .8-2 .6.5-4.6 1.2-2.4 2.4-6 2.6-8 .4-3.1.1-4-2.3-5.9-2.9-2.3-3.7-2.3-17.9-1.1-.5 0-2.4-.2-4-.6-2.3-.4-3.8 0-5.9 1.7zm27.1 1.1c2.4 2 .4 13.6-2.5 14.6-1.3.4-4.4-5.7-3.6-7 1.3-2 3-.6 2.6 2.1-.2 1.6.1 3.2.7 3.5 1.7 1.1 1.4-7-.4-10.4-.9-1.7-2-3-2.5-3-.6 0-1-.5-1-1.1 0-1.3 4.7-.4 6.7 1.3zm-19.3.5c-.5 1-.9 5.5-1 9.9-.1 8.2-.7 10.4-2.5 10.4-1.3 0-3.6-5.6-5-12-1.4-6.8.4-10 5.7-10 3.1 0 3.5.3 2.8 1.7zm13.3.9l2.5 2.5-2.1 1.5c-2.6 1.9-2.7 4-.1 8.1 1.5 2.6 1.7 3.8 1 5.9-.6 1.4-1 3.8-1 5.3 0 3.1-1.6 5.1-4.1 5.1-2.1 0-2.9-2-2.9-7.5 0-2.4-.5-4.5-1.1-4.7-.7-.2-.7-1.2.1-3.2 1.2-3.3.4-8.5-1.3-8.7-.7-.1-2-.1-2.9 0-1.3.2-1.6-.3-1.1-1.6 2-5.8 8.5-7.2 13-2.7zM22 21.1c0 .5.5.7 1.2.3.8-.5.9.5.5 3.5-.6 5.1-1.2 5.8-3.2 4.1-1.5-1.2-2.1-7.1-.8-8.3 1-1 2.3-.8 2.3.4zm-.6 11c-.4.8.1.9 1.7.5 2.3-.7 2.3-.6.5.8-1.4 1.1-2.1 1.2-3.1.3-1.4-1.3-1-2.7.6-2.7.6 0 .7.5.3 1.1z" fill="#1175ee"/></svg>