<svg version="1" xmlns="http://www.w3.org/2000/svg" width="40pt" height="40pt" viewBox="0 0 52.000000 52.000000"><g fill="#1175ee"><path d="M21.4 8.8c-3.1 2.5-4.4 5.5-4.4 10.4 0 5.8 2.4 13.2 4.3 13.6 2.7.5 3.2-2 .7-4-1.7-1.4-2.4-3.2-2.8-6.8-.6-6.2 1.1-10.5 4.8-12 3.8-1.6 6.5 0 8 4.5.6 1.9 1.6 3.5 2.1 3.5 2.5 0-.8-8.2-4-10-2.9-1.5-6.3-1.2-8.7.8z"/><path d="M22.4 18.3c-1 2.7.5 3.7 4.5 3.1 4.4-.7 8.9 1.2 12 5.2 4.2 5.4 1.1 11.8-5.4 11.2-1.9-.2-3.5.1-3.5.7 0 .5 1.7 1.1 3.8 1.3 8.2.6 12.1-8.2 6.6-14.7-3.1-3.7-5.6-5.2-10.4-6.1-1.9-.4-4.3-1.1-5.2-1.5-1.2-.5-2-.2-2.4.8z"/><path d="M12.1 25.6c-2.9 3.7-2.8 8.8.4 11.9 4.6 4.7 12.8 2.6 18.9-4.9 3.8-4.5 4.2-7.6 1.1-7.6-1.6 0-1.6.1-2 4-.3 3-5.9 7.8-10.1 8.6-6.7 1.2-10.2-4-6.9-10.3 2.3-4.2 1.4-5.3-1.4-1.7z"/></g></svg>