<svg version="1" xmlns="http://www.w3.org/2000/svg" width="40pt" height="40pt" viewBox="0 0 52.000000 52.000000"><path d="M19.5 9.2c-4.9 1.8-9.9 5.3-11.4 8.2-1.8 3.3-.4 6.4 4.1 9l3 1.8-2.8 1.8c-3.4 2.3-4.6 4.3-3.8 6.4 1.6 4.2 9.9-.8 9.2-5.5-.2-1.2.2-2.4.9-2.6.7-.3.9.3.6 1.6-.3 1.2.1 2.8.8 3.7 1.2 1.4 1.4 1.4 2.6-.2.7-1 1.3-1.2 1.3-.6 0 2.5 2 1 4-2.9 1.2-2.3 2.3-3.9 2.6-3.6.9.8 1.3 4.8.5 4.2-.5-.2-1.4.2-2.1 1-1 1.2-.9 1.5.8 1.5 2.1 0 4.9-2.6 3.9-3.7-.4-.3-.1-1.5.5-2.6 1-2 1.1-2 2.4-.2 1.7 2.3 1.8 3.5.3 3.5-.5 0-.7-.5-.4-1 .3-.6.1-1-.4-1-.6 0-1.1.9-1.1 2.1 0 1.5.4 1.9 1.6 1.5.9-.3 1.8-.6 2-.6.2 0 .4-.9.4-2 0-1.5.7-2 2.9-2 3.1 0 5.7 2.2 4.6 4-.3.5-.1 1 .4 1 1.8 0 1.2-3.6-.9-5.5-1.4-1.2-2.8-1.6-5-1.2-2.8.6-3 .5-3-2.3 0-3.9-1.8-3.9-3.1 0-1.2 3.3-3.4 4.2-2.6 1 1.1-4.1-1.3-2.9-3.8 2-2.6 5.2-4.1 6.7-2.5 2.6.6-1.6.5-2.9-.4-4.1-1.1-1.6-1.5-1.5-5 .9L16.8 28l-2.9-2.3c-5.4-4.3-4.7-8 2.4-12.1 5.6-3.3 10.6-4.1 13.1-2.3 1.9 1.4 1.9 1.6.3 4-2.4 3.7-5.4 5-9.9 4.4-3.4-.5-3.7-.3-2.6 1 .9 1.1 2.4 1.4 5.2 1 4.8-.7 8.8-3.5 10.1-7.2 1.8-5.2-5.2-8.1-13-5.3zm4.3 18.5c-1.6 3.8-2.8 5.1-2.8 2.9 0-2.2 1.8-5.6 3-5.6.6 0 .5 1.2-.2 2.7zM16 31.4c0 1.6-2.6 4.6-4.1 4.6-1.4 0-1.1-2.2.8-4.2 1.9-2.2 3.3-2.3 3.3-.4z" fill="#1175ee"/></svg>