<svg version="1" xmlns="http://www.w3.org/2000/svg" width="40pt" height="40pt" viewBox="0 0 52.000000 52.000000"><path d="M9.1 10.6C7.9 12.1 7 14 7 15c0 2.3 3.8 7 5.6 7 1.7 0 1.7.5.3 3.1-.8 1.6-.7 2.5.7 4 2.3 2.5 2.8 2.4 4.9-.8 1.2-1.8 1.4-2.8.7-3.1-3.6-1.2 2.1-8.2 6.7-8.2 7.1 0 10.9 8.4 6.1 13.5-2.2 2.4-2.9 2.5-13.7 2.5H7v5h17.4c12.4 0 17.5.3 17.8 1.2.3.7 1.5.3 3.5-1.2l3.1-2.3-3.1-2.6c-2-1.7-3.2-2.2-3.5-1.3-.2.6-1.5 1.2-2.9 1.2-2 0-2.4-.3-1.7-1.8 1.7-3.9 1.5-9.7-.6-13-4.4-7.1-13.6-7.8-19.8-1.6-3.3 3.3-3.6 3.4-5.3 1.8-2.5-2.3-2.4-4.9.3-6.8 1.5-1.1 2.6-1.2 4-.5 1.1.6 2.6.9 3.5.7 1.5-.3 1.5-.5-.1-2.1-2.7-2.7-8-2.2-10.5.9z" fill="#1175ee"/></svg>