<svg version="1" xmlns="http://www.w3.org/2000/svg" width="400" height="400" viewBox="0 0 300.000000 300.000000"><g fill="#1175ee"><path d="M134.5.95C30.6 13.05-30.7 124.25 15.7 216.4l3.55 7.05-4.65 4.1c-5.6 4.95-5 6.5.95 2.4 5.35-3.65 5.6-3.65 7.85.15 1 1.7 4.05 6 6.7 9.55 2.7 3.55 4.9 6.6 4.9 6.75 0 1.35 20.9 20.35 27.8 25.3 66.1 47.25 158.35 33 207-31.95 6.9-9.25 7.1-9.45 9-7.55 1.9 1.9 2.7 0 .85-2.05-1.55-1.7-1.4-2.35 3.25-11.25C337.55 114.55 250.95-12.6 134.5.95zm41 4.65C262.7 20.35 317.1 111.7 289 196.1c-3.25 9.9-9.5 23.8-12.85 28.8-.95 1.4-25.4-19.1-48.7-40.85-3.9-3.6-11.4-10.5-16.65-15.3-24.8-22.55-28-40.6-14.7-83.1 4.4-14.05 4.6-17.3.7-11.1-23.2 36.75-22.35 70.65 2.45 95.75 9.55 9.65 27.25 23.9 54.5 43.85 10.6 7.75 19.25 14.55 19.25 15.1 0 2.2-11.65 16.6-20.45 25.25-57 56.05-146.9 56.15-204.95.25L38.5 246l11-10.2c17.4-16.15 44-42.45 52.95-52.45 24.45-27.25 27.35-55.4 10.6-102.25-7.35-20.55-9.7-22.6-5.1-4.5 10.3 40.8 10.7 60 1.5 78.25-4.2 8.3-8.8 14.15-43.55 55.2-2.55 3-9.95 11.75-16.45 19.45-6.5 7.7-12.05 14-12.3 14C36.5 243.5 24 225.95 24 225c0-.4 8.45-7.05 18.75-14.7 56.65-42.15 66.7-54.2 68-81.05.8-16.3-1.9-26.8-12-46.5C90 65.7 88.75 66.45 95 84.9c15.85 46.5 11.5 61.7-27.2 95.65-10.6 9.3-25.2 22.25-32.45 28.7C28.1 215.7 22 221 21.75 221s-2.3-3.95-4.5-8.75C-32.5 104.5 58.35-14.2 175.5 5.6z"/><path d="M144 28.5V37h-7.5c-6.85 0-7.5.2-7.5 2s.65 2 7.5 2h7.5v22.75c-.05 12.5-.5 30.8-1.05 40.65-2.85 51.55.1 185.35 3.4 155.1 2.7-24.5 3.75-120.3 1.65-153.5-.5-8.55-.95-26.75-1-40.5v-25l7.5.35c7.05.3 7.5.2 7.5-1.75s-.55-2.1-7.5-2.1H147v-8.5c0-6.9-.3-8.5-1.5-8.5s-1.5 1.6-1.5 8.5z"/><path d="M123.1 61.4c-.05 1.05 1.15 8.95 2.65 17.5 6.3 36.2 3.5 67.15-8.75 96.1-2.85 6.8-6 14.6-7 17.4-1 2.8-7.05 18.55-13.45 35-6.4 16.45-11.5 30.65-11.35 31.5.3 1.4 42.95-79.05 45.85-86.45C138.3 153.9 139.4 127.2 134 99c-3.55-18.7-10.7-43.2-10.9-37.6zm42 5.3c-14.65 49.9-15.25 84.45-1.85 112.1 9.15 18.85 42.25 81 42.9 80.6.45-.25 0-2.6-1-5.2-1.05-2.6-7.95-20.45-15.45-39.7-7.45-19.25-14.9-38.2-16.55-42.15-12.2-29.5-13.95-58.25-6.25-101.65 2.05-11.5 1.05-13.7-1.8-4z"/><path d="M184.65 64.75c-.3.45-1.5 3.3-2.7 6.3-19.25 48.1-19.35 77-.45 103.5 7.7 10.8 72.55 74.75 74.15 73.1.8-.75 3.2 2.2-32.25-39.75-47-55.6-47.75-56.9-47.8-82.4-.05-14.05.6-18.25 6.65-43.8 3.5-14.85 4.2-19.85 2.4-16.95z"/></g></svg>