<svg version="1" xmlns="http://www.w3.org/2000/svg" width="50" height="50" viewBox="0 0 619.000000 421.000000"><g fill="#fff"><path d="M298.7.7c-.4.3-.7 4.4-.7 8.9 0 5.2-.4 8.5-1.2 9-.6.4-6.9.7-14 .6-11.5-.1-13.1.1-14.9 1.9-2.1 2.1-2.4 4.5-.9 6.9.7 1.2 3.9 1.6 16.1 1.8l15.1.3-.5 46.7c-.3 25.7-1 55.9-1.6 67.2-.6 11.3-1.5 29.7-2 41-1.3 25.9-1.3 99.6-.1 124 .6 10.2 1.4 29.3 2 42.4.5 13.2 1.4 27.8 2 32.5.5 4.7 1.2 11.2 1.5 14.3.6 5.8.7 5.8 4 5.8h3.3l.7-10.8c.3-5.9 1-15.9 1.6-22.2 4.7-56.5 4.9-190.6.4-242.5-1.9-22.4-2.1-98.4-.2-98.6.6-.1 6.4 0 12.7 0 14.5.2 17.4-.5 17.8-4.5.5-5.6-.3-5.9-16-5.9-8.4 0-14.6-.4-15-1-.4-.6-.8-4.9-.8-9.8V0h-4.3c-2.4 0-4.7.3-5 .7z"/><path d="M256 61.5c-1.3 1.6-.3 9.5 2.5 20 .7 2.7 1.6 7.2 1.9 10 .4 2.7 1.3 7.7 2 11 4 17.3 5.1 28.8 5.1 54-.1 21.6-.4 26.4-2.3 35.6-3.6 17.6-7.9 31.8-13.7 44.4-.7 1.6-2.3 5.2-3.5 8-1.2 2.7-2.6 5.7-3.1 6.5-1.5 2.6-12.5 25.2-16.8 34.5-2.3 4.9-4.6 9.7-5.2 10.5-.5.8-1.2 2.2-1.5 3-.3.8-1.4 3.3-2.4 5.5s-2.1 4.7-2.4 5.5c-.3.8-1 2.2-1.5 3-1 1.4-7.1 14.4-16 33.5-2.3 4.9-4.6 9.7-5.2 10.5-.5.8-1.2 2.2-1.5 3-.7 2.1-4.5 10.2-5.6 12l-1.5 3c-.3.8-2.3 5.2-4.4 9.8-4.3 9.2-4.5 10-2.5 12.7 1.2 1.6 1.5 1.7 3.4.3 1.9-1.3 7.2-8.2 7.2-9.4 0-.2 1.5-2.6 3.3-5.2 1.8-2.6 5.9-9 9.1-14.2 8.8-14.1 12.6-20.2 14.7-23.2 1.1-1.5 1.9-2.9 1.9-3.2 0-.3 1.7-3.1 3.9-6.3 4.7-7.1 11-16.9 18.2-28.6 3-4.8 7.1-11.3 9.1-14.5 2-3.1 5.1-8 6.8-10.7 1.7-2.8 4.9-7.7 7-11 5.4-8.2 15.2-28.5 17.8-37 1.2-3.9 2.8-9.3 3.7-12 .8-2.8 2.2-12.7 3.2-22.2 1.7-17 1.7-17.5-.5-37.5-2.7-25-3.9-31.3-10.8-55.8-1.4-5.2-3.2-11.6-4-14.3-.7-2.6-1.6-5.2-2-5.8-.3-.6-1.2-3.2-1.9-5.7-1.7-5.9-4.1-12.6-6.2-17.5-1.7-3.9-4.1-4.8-6.3-2.2zm89.8-.3c-.9.7-2.9 4.9-4.3 9.3s-3 8.8-3.5 9.7c-.6 1-1.4 3.4-1.9 5.5-1 3.8-3.2 11.1-5.2 16.8-.6 1.6-1.7 5.5-2.4 8.5s-1.8 7.3-2.3 9.5c-5.9 23.7-7.5 35.8-7.9 58.9-.5 26.8.9 36 9 60.1 4 12 10.7 24 28.7 52 2.2 3.3 5.3 8.2 7 11 1.7 2.7 6.4 10.2 10.5 16.5 4.1 6.3 9.1 14.4 11.2 17.9 2.1 3.5 4.3 7.1 4.8 8 2.1 3.4 10.8 16.7 12.6 19.3 1 1.5 1.9 2.9 1.9 3.2 0 .3 2.4 4 5.3 8.3 2.8 4.3 5.8 8.9 6.5 10.3.7 1.4 2.9 4.6 4.8 7.2 3.6 5 6.2 6 8.5 3.2 1.1-1.3 1-2.1-.4-4.7-.9-1.8-4.1-8.6-7.2-15.2-3.1-6.6-7.2-15.2-9-19-6.6-13.7-14.4-30.1-18.3-38.5-21.1-44.8-29.1-61.5-34.2-70.8-.5-.9-1.7-3.7-2.8-6.2-1.1-2.5-2.9-6.6-4.1-9.1-1.1-2.5-2.1-5.3-2.1-6.1 0-.8-.4-1.8-.9-2.4-.9-1-4.4-12.2-6.7-21.4-2.5-9.8-5.4-35.2-5.4-46.5.1-10.9 2.9-40 5-50.5.7-3 2-10 3.1-15.5s2.7-12.7 3.5-16c2.7-10.6.9-16.9-3.8-13.3z"/><path d="M220 68.5c-1.4 1.7-1.4 1.8 3.1 17 1.2 3.8 2.7 8.4 3.5 10.2.8 1.7 1.4 4.1 1.4 5.3 0 1.1.6 3.3 1.4 4.8.7 1.5 1.6 4.5 2 6.7.4 2.2 1.4 6 2.1 8.5 2 6.1 4.3 17.1 5.5 25.5.6 3.8 1.4 9.5 1.9 12.5 1.2 7.2 1.3 19.4.1 25-.6 2.5-1.5 7-2 10.1-.6 3.2-1.7 7-2.5 8.5-.8 1.6-1.5 3.4-1.5 3.9 0 .6-1.3 3.5-3 6.5-1.6 3-3.3 6.2-3.7 7-.4.8-2.4 3.7-4.5 6.5-2.1 2.7-4.9 6.3-6.1 8-3.8 5.1-28.8 29.9-78.8 78-56.3 54.2-62.9 60.8-62.9 63 0 3.8 3.6 4.2 8 .9 5.4-4.1 34.1-25.9 36.5-27.8 1.1-.9 5.6-4.4 9.9-7.8 4.3-3.5 9.1-7.2 10.5-8.3 1.4-1.1 3.1-2.4 3.7-3 .7-.5 5.1-4.2 9.9-8 4.8-3.9 16.4-13.5 25.9-21.4 9.4-7.9 20.9-17.5 25.6-21.4 18.1-15.1 33.4-31.9 39.4-43.1 1.4-2.7 3.1-5.5 3.6-6.1.6-.7 1.5-2.6 2-4.2.5-1.5 2-5.9 3.4-9.7 5.4-14.4 7.4-36.1 4.8-52.1-3.6-22-9-40.6-18-61.5-3.3-7.8-5.3-12-10.7-23.3-5.8-12-7.6-13.7-10.5-10.2zm160.6.7c-1.2 1.9-4.8 9.2-14.1 29.3-2.1 4.6-6.7 16.5-11 28.5-6.2 17.4-10.2 45.4-9 62.5 2.6 35.4 18.9 60.8 61.5 95.5 3 2.5 6.2 5.2 7 6 1.6 1.4 9.4 8 24 20.2 32.9 27.3 86.3 68.1 88.7 67.6.9-.2 2.1-1.1 2.7-2.1 1.3-2.1 3.1-.3-109.9-109.7-25.8-24.9-33-32.9-39.9-43.5l-5.8-8.7c-1-1.5-1.8-3.3-1.8-4 0-.8-.6-2.3-1.4-3.4-.8-1.1-1.8-3.8-2.2-6-.3-2.1-1.4-5.3-2.2-6.9-2.4-4.5-2.2-40.1.2-50.5.9-4.1 2.6-11.6 3.7-16.5 1.2-5 2.7-11 3.4-13.5.8-2.5 2.4-7.9 3.6-12 3.9-13.3 6.1-20.4 7.5-24.3.8-2 1.4-5.3 1.4-7.2 0-3.1-.3-3.5-2.5-3.5-1.4 0-3 .9-3.9 2.2z"/><path d="M411.3 78.5c-1.1.7-3.2 3.3-4.9 5.7-1.6 2.4-3.1 4.5-3.4 4.8-.5.5-8.6 12.9-10.7 16.5-5.5 9.1-16.3 33.6-16.3 36.7 0 .8-.9 4.4-2 7.8-1.6 5.1-2 9-2 21.6 0 10.8.4 16.5 1.4 19.1.8 2.1 1.7 5.1 2 6.8.6 2.8 2.7 7.9 4.7 11.5.5.8 1.5 2.8 2.4 4.5 6.1 12.4 23.1 31 38.5 42.2 14.9 10.8 33.7 23.4 58 38.8 4.1 2.6 9.1 5.8 11 7 9.4 6.1 18.1 11.5 23.4 14.6 3.2 1.9 7.1 4.2 8.7 5.1 1.6 1 4.2 2.6 5.8 3.5 1.6 1 7 4.3 12.1 7.3 9.6 5.8 12.9 7.7 18.3 11 1.7 1.1 4.2 2.4 5.5 3 1.3.6 3 1.7 3.8 2.5.9.8 2.1 1.5 2.8 1.5.8 0 1.9.7 2.6 1.5.7.8 2.8 1.5 4.6 1.5 2.9 0 3.4-.3 3.4-2.4 0-2.4-2.6-4.6-19.5-16.9-20-14.5-34.7-25.1-42.5-30.7-5-3.6-12-8.5-15.4-11-13.3-9.5-26-18.7-33.1-24-4.1-3-9.7-7.1-12.5-9-52.3-35.8-68-57.7-66.7-93 .4-11.3 3.2-27.4 5.5-31.7.7-1.2 1.2-3 1.2-4s.9-4 1.9-6.8c1.1-2.7 3.6-9.3 5.7-14.5 3.6-9.4 5.5-13.9 9.5-22.5 3-6.5.8-11.2-3.8-8zm-221.4 1.1c-1.1 1.3-1 2.2.5 5.2 3.5 7.3 7.3 16.2 10.6 24.7 1.2 3.3 2.6 6.9 3.1 8 1.3 3.2 5.5 16.4 7.3 23 3.6 13.6 4.6 31.7 2.2 44C208.7 209.8 195 226 154 255c-5 3.6-12.4 8.8-16.3 11.7-4 2.9-9.4 6.8-12.2 8.7-2.7 1.9-6.8 4.8-9 6.5-4.6 3.6-5.6 4.3-12.5 9.1-2.8 1.9-8.4 6-12.5 9s-9.8 7.2-12.7 9.3c-41.7 29.9-52.2 37.7-53.1 39.3-1.3 2.3 0 4.4 2.7 4.4 1.3 0 5.6-1.9 9.6-4.3 3.9-2.3 8.4-4.9 9.8-5.7 4.4-2.4 16.2-9.4 18.7-11 1.3-.8 5.3-3.3 9-5.5s7.8-4.7 9-5.5c1.3-.8 6.4-4 11.5-7s10.7-6.4 12.4-7.5c1.8-1.1 5.4-3.3 8.2-5 2.7-1.6 5.1-3.2 5.4-3.5.3-.3 2.8-1.9 5.5-3.5 2.8-1.6 7-4.3 9.5-6 2.5-1.8 5.2-3.5 6-3.8 1.2-.6 8.7-5.6 12.5-8.4.6-.5 5.3-3.7 10.5-7.2s10.5-7.1 11.6-8c1.2-.9 3.2-2.3 4.4-3.1 5.2-3.5 12.9-9.7 18.9-15.4 7.6-7.3 21.1-23.9 21.1-26 0-.8.4-1.8 1-2.1 1.2-.7 6-10.2 6-11.8 0-.7.7-2.5 1.5-4.1 5.2-9.8 5.1-45.8-.1-55.8-.8-1.5-1.4-3.5-1.4-4.5-.1-1-.9-3.6-2-5.8-1.1-2.2-1.9-4.5-2-5.1 0-.5-2-4.8-4.5-9.5-2.4-4.6-5.1-9.8-5.9-11.4-.8-1.7-4-6.9-7.1-11.5-11.1-16.5-14.3-19.3-17.6-15.4z"/></g></svg>