<?xml version="1.0" standalone="no"?>
<!DOCTYPE svg PUBLIC "-//W3C//DTD SVG 20010904//EN"
 "http://www.w3.org/TR/2001/REC-SVG-20010904/DTD/svg10.dtd">
<svg version="1.0" xmlns="http://www.w3.org/2000/svg"
 width="32pt" height="34pt" viewBox="0 0 150.000000 150.000000"
 preserveAspectRatio="xMidYMid meet">
<metadata>
Created by potrace 1.10, written by Peter Selinger 2001-2011
</metadata>
<g transform="translate(0.000000,150.000000) scale(0.050000,-0.050000)"
fill="#1175ee" stroke="none">
<path d="M1420 2940 c-221 -20 -417 -70 -600 -155 -235 -108 -252 -143 -233
-473 l13 -222 -185 6 c-227 8 -231 5 -315 -216 l-65 -170 23 -580 c23 -581 56
-1004 80 -1019 17 -10 774 -18 1375 -14 l463 3 12 50 c11 43 25 50 97 53 350
13 705 144 750 277 24 70 -2 635 -30 663 -16 16 -11 38 21 81 61 82 76 473 23
611 -20 52 -26 95 -15 102 65 45 107 504 61 667 -64 228 -804 396 -1475 336z
m816 -77 c4 -12 17 -17 30 -13 52 18 164 -22 158 -56 -6 -36 28 -48 39 -15 4
11 27 15 52 8 53 -14 60 -79 16 -138 -99 -131 14 -172 132 -49 42 44 71 67 64
50 -8 -22 -2 -27 21 -18 47 18 40 1 -29 -73 -49 -52 -58 -76 -48 -122 7 -35 4
-57 -9 -57 -12 0 -22 9 -22 21 0 12 -12 10 -28 -5 -19 -18 -21 -30 -6 -40 30
-18 94 19 94 55 0 17 19 29 47 29 71 0 75 -18 18 -82 -61 -68 -184 -110 -211
-73 -12 17 -14 14 -7 -10 9 -25 1 -35 -28 -35 -21 0 -39 -8 -39 -18 0 -27 -92
-38 -180 -22 -43 8 -75 8 -70 -1 11 -17 -59 -38 -129 -39 -33 0 -42 -7 -29
-20 22 -22 134 -27 253 -13 41 5 75 1 75 -9 0 -20 102 -12 138 11 14 8 20 26
15 40 -6 17 10 24 54 22 46 -2 62 -12 60 -37 -4 -47 11 -42 32 11 15 36 19 23
20 -60 1 -71 -7 -105 -24 -106 -15 0 -11 -11 10 -27 38 -29 -24 -92 -90 -92
-15 0 -36 -8 -46 -18 -19 -17 -249 -67 -430 -92 l-90 -13 -38 143 c-20 78 -50
156 -65 171 -35 35 -566 43 -566 9 0 -11 50 -20 110 -20 94 0 110 -5 110 -37
0 -29 14 -37 63 -36 38 1 69 -10 77 -27 8 -17 23 -49 35 -72 28 -55 -105 -68
-715 -68 -691 0 -844 25 -700 115 22 14 40 17 40 7 0 -10 18 -14 40 -8 22 6
40 23 40 38 0 16 12 22 30 15 35 -13 95 29 78 56 -6 10 -4 16 6 12 9 -3 16 4
16 15 0 12 155 25 400 33 429 14 573 30 527 59 -20 13 -15 17 18 18 25 0 45 9
45 19 0 11 -13 15 -30 8 -17 -6 -35 2 -42 20 -9 25 -36 30 -129 25 -64 -4
-120 0 -123 9 -7 21 -279 32 -310 13 -12 -8 -27 -1 -33 15 -6 16 -50 39 -97
52 -119 32 -196 117 -196 218 0 53 107 144 152 130 29 -10 31 -8 10 7 -60 43
291 159 578 192 141 17 849 -5 856 -25z m524 -1088 c0 -10 10 -11 23 -3 16 10
19 0 10 -34 -7 -26 -13 -60 -13 -74 0 -15 -9 -21 -20 -14 -11 7 -20 2 -20 -10
0 -28 -50 -80 -76 -80 -11 0 -25 -13 -30 -28 -12 -29 -190 -77 -219 -59 -9 6
-13 -11 -9 -36 5 -26 4 -36 0 -22 -12 34 -56 31 -86 -5 -21 -25 -18 -30 13
-30 31 -1 32 -4 7 -20 -18 -12 -20 -20 -6 -20 13 0 29 8 35 18 6 10 53 14 104
8 73 -7 90 -3 82 18 -8 21 6 25 58 19 57 -6 64 -12 44 -37 -19 -23 -19 -33 2
-46 16 -9 21 -31 14 -50 -11 -28 -5 -33 29 -24 42 11 41 10 -4 -32 -26 -24
-52 -44 -58 -45 -5 0 -28 -10 -50 -22 -56 -30 -528 -135 -543 -120 -11 10 22
574 34 595 9 13 48 23 87 22 40 -2 72 7 72 18 0 13 36 17 97 11 68 -8 110 -2
140 19 32 22 43 24 43 5 0 -18 6 -19 22 -3 13 13 33 19 45 15 13 -5 41 13 63
39 38 45 110 63 110 27z m-766 -22 c4 -5 5 -57 1 -116 l-6 -107 -17 81 c-25
124 -50 130 -593 122 -478 -6 -919 -27 -935 -43 -5 -5 306 -9 692 -9 386 -1
715 -6 731 -13 52 -19 54 -94 23 -742 -36 -743 -20 -697 -243 -689 -126 5
-150 1 -141 -23 22 -57 -795 -68 -976 -13 -44 13 -119 27 -167 30 -147 9 -147
8 -175 553 -36 678 -33 643 -47 506 -11 -109 -13 -97 -29 132 -25 381 -138
337 874 344 850 6 990 4 1008 -13z m681 -706 c24 14 67 -138 51 -179 -14 -38
-46 -15 -46 33 0 22 -9 39 -20 39 -12 0 -15 -21 -8 -50 14 -58 -21 -113 -63
-97 -16 6 -29 3 -29 -6 0 -10 27 -29 61 -41 50 -19 59 -32 51 -74 -6 -34 2
-58 24 -71 19 -11 24 -20 11 -20 -13 -1 -19 -18 -13 -41 6 -22 20 -34 33 -26
13 7 7 -6 -13 -28 -64 -73 -365 -162 -642 -190 l-59 -6 5 230 c6 221 34 540
39 443 2 -33 12 -44 32 -36 17 6 38 -3 48 -20 15 -29 22 -28 70 3 36 23 73 31
114 23 34 -7 98 1 144 17 65 22 87 23 99 4 10 -15 15 -7 16 22 0 54 44 109 63
79 7 -11 21 -15 32 -8z"/>
<path d="M1440 2764 c0 -21 66 -43 129 -44 57 0 14 33 -64 49 -38 8 -65 6 -65
-5z"/>
<path d="M1760 2739 c0 -24 200 -25 238 0 19 11 -18 18 -105 18 -73 1 -133 -7
-133 -18z"/>
<path d="M1164 2711 c-42 -23 -43 -27 -11 -40 20 -7 39 -4 43 8 4 11 25 21 46
21 21 0 38 9 38 20 0 27 -59 22 -116 -9z"/>
<path d="M2202 2718 c-26 -10 -43 -24 -36 -30 18 -19 135 13 123 34 -14 22
-25 21 -87 -4z"/>
<path d="M1304 2677 c11 -31 74 -37 81 -7 3 11 -16 23 -42 27 -33 4 -45 -2
-39 -20z"/>
<path d="M1440 2682 c0 -10 23 -23 51 -30 27 -7 69 -32 91 -54 23 -23 47 -36
53 -29 7 6 -8 26 -33 44 -37 26 -41 36 -19 51 20 14 15 17 -18 10 -25 -6 -50
-2 -56 8 -15 23 -69 23 -69 0z"/>
<path d="M1694 2623 c-11 -55 5 -92 20 -48 14 37 46 30 47 -10 0 -32 3 -32 25
-3 13 17 51 38 84 47 69 18 40 36 -93 56 -67 11 -74 7 -83 -42z"/>
<path d="M1120 2600 c54 -104 86 -142 104 -124 11 11 -11 49 -56 96 -54 57
-67 65 -48 28z"/>
<path d="M1333 2547 c-23 -24 -14 -62 19 -75 23 -9 29 -4 21 18 -7 16 -2 30 9
30 11 0 15 9 8 20 -14 23 -38 26 -57 7z"/>
<path d="M2537 2460 c-35 -33 -70 -60 -79 -60 -9 0 -11 -16 -4 -35 9 -27 6
-30 -13 -12 -32 30 -87 14 -117 -34 -27 -44 1 -54 55 -20 19 12 35 11 43 -2 7
-12 40 7 80 47 141 140 172 247 35 116z"/>
<path d="M2270 2419 c-22 -9 -74 -17 -115 -18 -41 0 -75 -10 -75 -21 0 -11
-23 -20 -51 -20 -28 0 -46 -9 -39 -20 6 -10 1 -40 -12 -65 -22 -40 -21 -42 6
-19 21 17 59 21 113 12 66 -10 85 -6 95 19 7 18 25 33 41 33 15 0 33 14 40 30
6 17 24 30 39 30 30 0 38 32 13 46 -8 5 -33 2 -55 -7z"/>
<path d="M1760 2246 c0 -29 48 -32 110 -7 33 12 26 17 -35 24 -53 6 -75 1 -75
-17z"/>
<path d="M800 1610 c-20 -24 -16 -43 18 -101 23 -39 42 -87 42 -106 0 -19 8
-44 18 -54 38 -40 35 -249 -3 -249 -35 0 -90 -73 -140 -185 -33 -74 -36 -72
-105 60 -59 113 -135 162 -168 108 -34 -55 -10 -313 29 -313 35 0 38 13 33
120 -7 133 1 130 87 -35 66 -127 96 -120 178 40 l69 135 1 -136 c1 -119 5
-136 36 -130 30 6 34 27 28 161 -5 104 0 155 15 155 12 0 22 -10 22 -21 0 -12
21 -19 47 -16 26 4 63 -6 81 -21 67 -56 67 9 0 76 l-67 67 -18 -47 -17 -47
-25 47 c-16 29 -20 78 -12 132 10 70 2 104 -48 201 -70 135 -69 141 22 101 37
-16 90 -34 119 -40 76 -16 147 -97 219 -251 56 -119 75 -141 144 -168 l81 -32
-45 -36 -44 -36 82 -66 c100 -80 153 -63 58 18 -61 52 -63 57 -23 58 93 2 -28
161 -123 161 -13 0 -54 64 -92 142 -81 167 -165 249 -276 267 -43 8 -96 26
-116 42 -48 36 -76 36 -107 -1z"/>
<path d="M1253 987 c-7 -8 -13 -48 -13 -89 l0 -76 -85 4 c-83 4 -85 6 -91 79
-10 121 -68 102 -60 -20 l6 -95 126 -6 c169 -8 159 -52 -14 -60 -174 -8 -154
-52 23 -50 174 2 175 3 175 177 0 143 -20 183 -67 136z"/>
<path d="M614 644 l-136 -6 6 -84 6 -84 110 -10 c170 -15 171 -80 1 -80 -94 0
-121 -7 -121 -30 0 -23 27 -30 126 -30 140 0 174 20 174 105 0 64 -15 73 -140
80 -148 8 -131 85 18 85 64 0 112 9 116 23 12 34 -9 38 -160 31z"/>
<path d="M853 625 c-9 -15 -19 -176 -15 -250 2 -28 21 -35 100 -35 62 0 106
-11 122 -30 14 -16 43 -30 65 -30 30 0 35 6 19 26 -14 16 -15 36 -3 55 36 57
23 236 -20 258 -44 24 -254 28 -268 6z m259 -130 c3 -107 -17 -133 -64 -85
-35 34 -81 30 -73 -7 8 -35 -69 -27 -83 9 -46 121 3 192 128 184 l90 -6 2 -95z"/>
<path d="M1213 627 c-20 -21 -16 -198 7 -256 23 -62 300 -82 300 -21 0 23 -27
30 -120 30 l-120 0 0 130 c0 124 -22 162 -67 117z"/>
<path d="M2480 737 c0 -11 -8 -14 -18 -8 -10 6 -46 5 -80 -2 -84 -16 -82 -64
3 -57 36 3 90 7 120 8 64 2 75 52 15 68 -22 6 -40 2 -40 -9z"/>
</g>
</svg>
