<svg version="1" xmlns="http://www.w3.org/2000/svg" width="40pt" height="38pt" viewBox="0 0 52.000000 52.000000"><g fill="#1175ee"><path d="M13 18.6c0 2.4.3 2.6 3.5 2.2 1.9-.2 3.5-.1 3.5.3s-1.8 4.2-4.1 8.3L11.8 37h6.6c6.4 0 6.6-.1 6.6-2.6 0-2.3-.3-2.6-3-2.2-1.6.3-3 .2-3-.1 0-.3 1.8-4 4.1-8.3l4-7.8h-7c-7 0-7.1 0-7.1 2.6z"/><path d="M28.6 17.6c-3.4 3.3-2 4.4 5.4 4.4 5.8 0 7.1-.3 8-1.9 1.9-3.6 1.2-4.1-5.4-4.1-4.5 0-6.9.5-8 1.6zm-.4 7.7c-2.5 3-1.8 4.1 2.3 3.8 3.6-.2 6.5-2.1 6.5-4.3 0-1.3-7.7-.9-8.8.5zm0 6.9c-1.7 1.7-1.5 4.8.2 4.8 1.4 0 4.6-3.6 4.6-5.2 0-1.2-3.5-.9-4.8.4z"/></g></svg>