<svg version="1" xmlns="http://www.w3.org/2000/svg" width="40pt" height="40pt" viewBox="0 0 52.000000 52.000000"><path d="M29.1 12.5c-3.7 4.9-5.6 8.6-8.7 17-1.1 3-1.1 5.3-.2 6.7.6 1 .8.9.8-.3 0-1.1.7-1.5 2.3-1.2 1.4.3 2.6-.3 3.4-1.6 1.1-1.8 1-2-.5-1.5-.9.4-.3-.6 1.4-2 1.8-1.4 3.5-3.8 3.9-5.3.3-1.6 1.8-5 3.1-7.7 5-9.9 1-12.8-5.5-4.1zm-3.2 12.7c-2.6 6.4-5.3 11.3-3.5 6.3.4-1.1.9-2.7 1.1-3.6.4-2 4.4-9.9 5-9.9.2 0-.9 3.2-2.6 7.2zm-7.8 15.9c-.6 1.8-.9 3.4-.7 3.6.2.2.9-1 1.5-2.8.6-1.8.9-3.4.7-3.6-.2-.2-.9 1-1.5 2.8z" fill="#1175ee"/></svg>