<svg version="1" xmlns="http://www.w3.org/2000/svg" width="40pt" height="40pt" viewBox="0 0 52.000000 52.000000"><g fill="#1175ee"><path d="M18.2 11.2c-.7.7-1.2 2.8-1.2 4.7 0 3.1-.5 3.8-3.3 5.1-1.8.9-3.3 2.4-3.5 3.6-.3 2.1 3.3 6.2 4.5 5 .4-.3-.3-1.3-1.5-2.2-2.5-1.7-2-3.7 1.4-5.3 3.1-1.4 3.1-1.4 3.8.5.3.8-.3 4.3-1.5 7.6-1.6 4.8-1.8 6.7-1 8.5 1.5 3.3 8.1 2.9 8.1-.5 0-1.2-.3-1.3-1.2-.4-1.5 1.5-4.5 1.6-5.3.1-.8-1.2 1.4-9.9 2.4-9.9.3 0 1.2 1.4 2 3.1C23.8 35.5 30.3 42 32.8 42c4.5 0 5.2-7.2 1.7-15.8-2.2-5.2-3-3.2-1 2.7 1.9 5.9 1.7 10.5-.6 10.9-2 .4-6.3-4-9.7-9.6-2.4-4.2-2.4-4.6-1-7 1.4-2.3 2.2-2.6 6.5-2.3 5.7.3 13.3 3.4 13.3 5.4 0 .8-1 2.2-2.2 3-1.7 1.2-1.9 1.6-.7 1.6 2.6.1 5.5-3.7 4.3-5.7-1.6-2.6-8.2-5.5-13.6-6-4.8-.5-4.8-.5-3.1-2.4 1-1.1 3.1-2.7 4.7-3.5 2.4-1.2 3-1.3 3.7-.1.5.7.7 2.1.5 3-.5 2.3 1 3.3 1.8 1.2.9-2.5.7-3.3-1.4-5.4-1.9-1.9-2.3-1.9-4.8-.6-1.5.8-4 2.8-5.6 4.5-4.1 4.3-6.6 4.1-6.6-.4 0-2.7.4-3.5 1.8-3.5 1 0 2.3.5 3 1.2.7.7 1.2.8 1.2.2 0-1.5-2.2-3.4-4-3.4-.9 0-2.1.5-2.8 1.2z"/><path d="M25.7 24.6c-1.4 1.4-.7 3.5 1.1 3.2.9-.2 1.7-1 1.7-1.7 0-1.6-1.8-2.5-2.8-1.5z"/></g></svg>