<svg version="1" xmlns="http://www.w3.org/2000/svg" width="40pt" height="40pt" viewBox="0 0 52.000000 52.000000"><g fill="#1175ee"><path d="M11.7 14.7l-4.3 6.7 1.3 7.5C11.2 44.1 10.8 43 14 43c2.3 0 3-.5 3-1.9 0-1.1.5-2.3 1-2.6.6-.4 1 .5 1 1.9 0 2.5.2 2.6 6.5 2.6s6.5-.1 6.5-2.5c0-1.4.5-2.5 1-2.5.6 0 1 1.1 1 2.5 0 2.1.5 2.5 3 2.5 3.5 0 3.4.4 5.2-12l1.5-9.5-4.1-6.7-4.1-6.7-9.8-.1H16l-4.3 6.7zm10.8 1.4c-.4.5 1 .9 3 .9 2.2 0 3.4-.4 3-1-.4-.6.7-1 2.5-1 4.6 0 6.5 4.6 5.4 13.1l-.9 6.4h-20l-.8-6.7c-.9-7.7.7-12.4 4.5-13 2.8-.5 4 0 3.3 1.3z"/><path d="M19.4 25.3c-.7 2-.2 4.7 1.1 5 1.4.3 1.9-4.3.6-5.6-.7-.7-1.2-.6-1.7.6zM30 27c0 1.6.5 3 1 3 .6 0 1-1.4 1-3 0-1.7-.4-3-1-3-.5 0-1 1.3-1 3z"/></g></svg>