<svg version="1" xmlns="http://www.w3.org/2000/svg" width="50pt" height="50pt" viewBox="0 0 156.000000 156.000000"><path d="M71.7 21.2c-3.5 1.7-3.8 2.2-3.5 5.6.2 2.8.8 3.8 2.3 4 2.5.5 6.6 4.2 5.9 5.3-.8 1.4-4 1-5.4-.6-1.6-1.9-3-1-3 2 0 2.6 1.7 3.5 6.4 3.5 3.8 0 8.6-3.8 8.6-6.8 0-1.8-3.8-5.2-7.4-6.6-2.3-.8-1.1-2.3 2.3-2.8 3.5-.4 3.7-2.4.4-4.1-2.5-1.4-3.2-1.3-6.6.5zm-18.2.2c-3.8 1.7-7 7.5-6.1 11.2 1.2 4.6 5.9 8.4 10.4 8.4 5.5 0 7.2-.8 7.2-3.4 0-3.1-.8-3.6-3.5-2.6-1.8.7-3 .4-4.7-.9-1.9-1.6-2.1-2.3-1.2-4.7.9-2.6 1.4-2.9 5.2-2.6 3.9.2 4.2 0 4.2-2.2 0-4.3-5.5-5.8-11.5-3.2zm34.8-.2c-4.4 2.2-3.8 9.8.8 9.8 2.4 0 4.5 3.8 3 5.3-.7.7-1.6.6-2.9-.6-2.1-1.9-4.2-.6-4.2 2.5 0 3.9 11.1 3.6 14.2-.4 2.7-3.5 1.8-5.9-2.9-8.2-4.6-2.3-5.1-4.1-1-4.1 3.4-.1 4.4-1.2 3.1-3.3-1.3-2-6.9-2.6-10.1-1zM41.2 55l.3 5.9 21 .6c11.6.4 24.4.9 28.5 1.3l7.5.7v15l-18.5.1c-10.2.1-19 .2-19.7.2-1.5.2-1.5 8.2 0 10.1.9 1.1 4.6 1.3 17.7 1l16.5-.4.3 9.5.3 9.5-5 1.8c-2.7.9-5.8 1.7-6.9 1.7-1.1 0-2.5.7-3.2 1.5-.7.8-2.3 1.5-3.5 1.5-1.2 0-2.8-.7-3.5-1.5-.7-.8-2.2-1.5-3.3-1.5-1.2 0-4.1-.7-6.4-1.6l-4.3-1.7V97h-7.4c-4.2 0-7.8.5-8.1 1.1-.4.5 0 4 .9 7.7.8 3.7 1.7 7.8 1.8 9.2.4 3.1 5.6 5.9 11.4 6 2.2 0 4.9.7 6 1.5 1 .8 2.8 1.5 4 1.5 1.1 0 2.9.7 4 1.5 2.4 1.8 6.4 1.8 8.8 0 1.1-.8 2.7-1.5 3.7-1.5.9 0 2.2-.7 2.9-1.5.7-.8 2.7-1.5 4.4-1.5 1.7-.1 4.2-.7 5.6-1.5 1.4-.8 3.7-1.4 5.1-1.5 1.5 0 3.1-.6 3.6-1.3.6-.6 1.3-6.8 1.7-13.7.3-6.9 1.1-15.2 1.6-18.5.5-3.3 1-12.6 1-20.8V49H40.9l.3 6z" fill="#1175ee"/></svg>