<svg version="1" xmlns="http://www.w3.org/2000/svg" width="69.333" height="69.333" viewBox="0 0 52.000000 52.000000"><path d="M11.9 11.7c-.1 1-.1 2.4 0 3 .1.7-.6 2.4-1.5 3.8-3.5 5.4.6 12.5 8.1 13.9 3.1.6 3.4.9 2.2 2.6-1.6 2.7-5.6 2.5-9.7-.5-4.4-3.3-4.6-3.2-1.5.9 2.6 3.4 7.3 5.4 9.5 4.1.6-.4 1 .4 1 1.9 0 2.5.2 2.6 7 2.6h7v-3.6c0-1.9-.4-4.3-1-5.3-.8-1.5-.3-2 3.3-3.1 5.4-1.5 6.3-2.4 7.7-6.6.9-2.7.9-4-.4-6.5-.9-1.8-1.6-4.2-1.6-5.4 0-3-.8-3.5-3.9-2.3-3.5 1.3-18.9 1.3-22.4-.1-3.6-1.4-3.7-1.4-3.8.6z" fill="#1175ee"/></svg>