<svg version="1" xmlns="http://www.w3.org/2000/svg" width="40pt" height="40pt" viewBox="0 0 156.000000 156.000000"><g fill="#1175ee"><path d="M103 12.1c0 .6-3.6 4.8-8 9.3-5.5 5.7-8 9-8 10.7 0 1.3-1 4.4-2.3 6.9l-2.2 4.5-17.3.3c-13.5.2-17.2.5-17.2 1.6 0 2.4 27.8 3.6 33.9 1.5 2.2-.8 4-.8 5.9-.1 3.2 1.3 15.7.2 15.7-1.3 0-.6-3.4-1.2-7.5-1.5l-7.5-.5-.3-3.3c-.5-4.9 3-11 10.9-19.2 4.2-4.3 6.8-7.7 6.5-8.6-.6-1.7-2.6-1.9-2.6-.3zm0 39.1c-1.4 1.8-2.9 1.9-26.2 2-13.6 0-25.6-.3-26.8-.7-2-.6-2-.4-1.9 12.5l.1 13.1 1.9-2.5c1-1.3 1.9-3 1.9-3.6 0-2.6 5-6 8.8-6 4.3.1 8.5 3.1 8 5.7-.4 2.3-5.1 2.9-6.7.9-1.1-1.3-1.5-1.2-3.2.5-1 1-1.9 2.5-1.9 3.3 0 .7-.7 1.9-1.5 2.6-.8.7-1.5 2.3-1.5 3.5 0 1.3-.8 2.6-1.7 2.9-1.1.5-1.3 1-.6 1.7 1.7 1.7 4.1-.1 6.2-4.6 1.1-2.3 2.7-4.5 3.7-4.9 2.3-.9 4.4 1.1 4.4 4.3.1 2.5.1 2.5 1.5-.7.8-1.9 2-3.2 2.7-3 2 .7 2.1 5.3.3 7.2-1.5 1.5-1.5 1.6.4 1.6 1.6 0 2.1-.6 2.1-2.9 0-3.9 4.1-6.8 6.4-4.6 2.2 2.2 2.6 1.9 2.6-1.9 0-1.8.7-3.9 1.5-4.6.8-.7 1.5-1.8 1.5-2.6 0-1.6 3.9-2.9 5.2-1.6 1.2 1.2 0 7.9-1.8 9.7-.8.7-1.4 2-1.4 2.7 0 .8-.7 2.3-1.5 3.4-1.6 2.2-1.9 3.4-.7 3.4.5 0 1.7-1.5 2.7-3.3C89.4 81 94 78 97.5 78c2.5 0 4 1.4 4.8 4.5.2 1.1.5-3.9.6-11.1.1-10.4.4-13.4 1.6-14.4 1.6-1.3 2-4.7.7-6.6-.5-.8-1.2-.5-2.2.8z"/><path d="M63 90.7c0 5.7-.6 6.8-4.3 7.7-2.4.6-3 .3-3.4-1.4-.3-1.1-1.4-2-2.4-2-1.7 0-1.9.8-1.9 6.5 0 8.2 2.2 14 5 13.2 1-.3 2.4.1 3.1.9.9 1.1 4.5 1.4 16 1.4 8.2 0 15.7-.4 16.7-.9.9-.5 2.5-1.2 3.4-1.5 3.2-1 4.6-4.9 5-13.8.3-7.8.2-8.5-1.3-7.2-2.1 1.9-6.9 1.8-6.9-.1 0-.8-.4-1.5-1-1.5-.5 0-1 1.1-1 2.4 0 2.9-4 9.5-5.7 9.6-1.8 0-2.7-2.1-2.4-5.7.3-3.3.3-3.3-4.6-3.4-2.6-.1-6.5 0-8.5.1-3.2.1-3.8-.2-4.4-2.4-.3-1.5-.4-3.5-.1-4.6.3-1.1.1-2-.4-2s-.9 2.1-.9 4.7zm-6 31.4c.1.8.7 2.5 1.5 3.9.9 1.7 1.4 5.6 1.5 11.7v9.3h2.6c1.4 0 3.2.7 4 1.5 2.2 2.1 17.2 2.1 18 0 .4-.8 1.8-1.5 3.4-1.5 2.7 0 2.8-.2 3.3-6.3.3-3.4 1-9.1 1.6-12.6.7-3.5 1-6.5.8-6.7-.2-.2-4.2.3-8.8 1.2-8.1 1.5-16.1 1.2-25.5-1.2-1.7-.4-2.4-.2-2.4.7z"/></g></svg>