<svg version="1" xmlns="http://www.w3.org/2000/svg" width="40pt" height="43pt" viewBox="0 0 156.000000 156.000000"><path d="M37.1 27.9c-2.2 1.4-2.1 13.8.2 15.8 2.4 2.3 6.7.3 6.7-3.1 0-1.4.5-2.8 1-3.1 1.5-.9 4 1.3 4 3.5 0 1 .7 2.3 1.6 3 1.2 1.1 1.8 1 3.3-.6 1.5-1.6 1.7-3 1.2-8.4-.6-6-.8-6.5-3.1-6.8-2-.2-2.8.3-3.7 2.8-1.4 3.7-4.3 4.1-4.3.5 0-3.4-3.9-5.5-6.9-3.6zm21.6.3c-.8.5-.4 1.4 1.1 3.1 1.7 1.8 2.2 3.5 2.2 7.5 0 3.8.4 5.4 1.5 5.8 2.8 1.1 4.5-1.6 4.5-7 0-4.1.4-5.4 2.1-6.4 1.6-1 1.8-1.7 1-2.5-1.2-1.2-10.6-1.6-12.4-.5zm40.6-.4c-1.5.9-1.2 13.7.3 15.2.5.5 2.8 1.3 5.2 1.8 3.5.8 4.6.7 6.4-.7 2.7-2.2 1.7-3.8-2.7-4.7-3.5-.6-3.5-.7-3.5-5.9 0-3.9-.4-5.4-1.6-5.9-2-.8-2.6-.7-4.1.2zm-24.1 1.9c-1.6 2.9-1.9 14.5-.5 15 .7.3 1.8-.7 2.4-2.1 1.6-3.4 4.3-3.3 5.8.1l1.2 2.7 2.2-2.8 2.2-2.8 1.9 2.1c3.7 4.1 4.8 2.8 4-5.2-.3-3.9-.9-7.5-1.1-8-.2-.4-1.8-.7-3.4-.7-2.5 0-3 .5-3.5 3-.8 3.8-3.2 3.9-3.6.2-.2-2.2-.8-2.8-3.5-3-2.3-.2-3.4.2-4.1 1.5zm-40 25.1c-.2.7.2 4.6 1.1 8.5.9 4 1.8 11.7 2.1 17.1.3 5.4.8 10.2 1.1 10.5.8.8 32.8 2.9 45.3 3L95 94v8.6c0 7.7-.2 8.8-2.2 10.5-1.5 1.1-3.9 1.9-6.8 1.9-2.5 0-5.6.7-7 1.5-3.2 1.8-7.8 1.8-11 0-1.4-.8-4.3-1.4-6.6-1.5-6 0-8.9-3.6-6.2-7.9 2.1-3.4.4-4.8-6.9-5.4-8.4-.7-10.1.4-8.4 5.4.6 1.7 1.1 5.7 1.1 8.8 0 6.6 1.1 8.1 6 8.1 1.9.1 4.6.7 6 1.5 1.4.8 4.1 1.5 6 1.5 1.9 0 4.6.7 6 1.5 3.3 1.9 13.9 1.9 16.4 0 1.1-.8 3.1-1.5 4.5-1.5 1.4-.1 3.7-.7 5.1-1.5 1.4-.8 3.6-1.5 5-1.5 2.5 0 9.5-2.2 10.5-3.2.4-.3.8-3.4 1.1-6.9.2-3.5.8-8.4 1.3-10.9 1.6-7.6 2-20.8.8-21.7-.7-.4-13.6-.6-28.7-.3s-28.3.2-29.3-.3c-1.5-.7-1.7-1.9-1.5-8.5l.3-7.7H113v-11H74.4c-31.1 0-38.8.3-39.2 1.3z" fill="#1175ee"/></svg>