<svg version="1" xmlns="http://www.w3.org/2000/svg" width="40pt" height="40pt" viewBox="0 0 52.000000 52.000000"><g fill="#1175ee"><path d="M15.35 16.35C5.4 26.35 11.9 42 26 42c11.15 0 19.1-12.3 14.05-21.75-.5-.95-1.15-2.5-1.45-3.45-1.9-6.25-17.15-6.5-23.25-.45zm15.5-2.25c1.75.6 3.15 1.75 3.15 2.6 0 .8.9 1.7 1.95 2 1.15.3 2.45 2 3.1 3.95 4.3 13.1-11.4 23.65-21.95 14.8-11.7-9.85-.75-28.4 13.75-23.35z"/><path d="M21.65 22.85C18.05 26.8 20.8 33 26.15 33c5.15 0 7.8-6.9 4-10.35-2.4-2.2-6.45-2.1-8.5.2z"/></g></svg>