<svg version="1" xmlns="http://www.w3.org/2000/svg" width="40pt" height="40pt" viewBox="0 0 52.000000 52.000000"><path d="M6.2 13.8c-.9.7-.2 3.2 3.3 10.6l4.5 9.8 3.6-.7c1.9-.3 4.1-.8 4.8-1.1.8-.3 2.4 1.4 4.1 4.1 2 3.5 3.1 4.5 4.3 4 1-.4 4.2-1.6 7.2-2.7s5.7-2.2 5.9-2.4c.3-.3-.5-1.8-1.8-3.4-2.4-3.3-2.1-5 1-5 2.5 0 2.4-.9-.9-4.8-2.4-2.8-3.1-3.2-5.9-2.6-3.7.7-4.1 1.9-1.6 4.6.9 1 1.4 2.1 1.1 2.4-1.1 1-11.3 3.3-11.6 2.6-.1-.4-2.3-4.3-4.7-8.5-4.4-7.4-4.7-7.7-8.3-7.7-2 0-4.3.4-5 .8zM18.3 22c4.8 8.4 4.8 8.9-.6 9.3-2.3.2-3-.6-6.6-8l-4-8.2 2.7-.4c1.5-.2 3-.5 3.3-.6.4 0 2.7 3.5 5.2 7.9zm22.7.9c1.4 2.6 1.3 2.8-1 3.4-1.3.3-2.4-.3-3.5-1.9-2-3.1-1.9-3.4 1-3.4 1.4 0 2.9.8 3.5 1.9zM42 34c0 .3-2.1 1.2-4.7 1.9-2.7.7-5.5 1.5-6.3 1.8-1.3.4-5.8-5.3-4.8-6.2.1-.2 2.8-.9 5.8-1.7 5.4-1.4 5.5-1.4 7.7 1.1 1.2 1.5 2.2 2.8 2.3 3.1z" fill="#1175ee"/></svg>