<svg version="1" xmlns="http://www.w3.org/2000/svg" width="40pt" height="40pt" viewBox="0 0 156.000000 156.000000"><g fill="#1175ee"><path d="M117.8 46.1c-2.6 1.5-2.2 4.8.6 5.9 5.9 2.2 6.6 3.7 6.6 13.8 0 7.3.3 9.4 1.5 9.8 1.9.8 1.9 3.1 0 4.1-1 .6-1.5 3.3-1.7 10.3l-.3 9.4-4.2 2.9c-4.7 3.1-5.4 5.1-2.2 6.7 2.7 1.5 6.7.5 10.1-2.5 2.6-2.2 2.7-2.9 3-12.7.3-10.1.3-10.3 3.1-11.6 4-1.9 3.8-7-.3-9.4l-3-1.7V51.2l-3.5-3.1c-3.7-3.2-6.7-3.8-9.7-2zM16.7 48.8c-2.6 2.7-2.7 3.3-2.7 12.6v9.7l-3 1.7c-4.1 2.4-4.3 7.5-.3 9.4 2.7 1.3 2.8 1.7 3 8.8.2 13.3.3 13.4 3.1 15.6 5.7 4.5 13.3 3.6 11.8-1.4-.4-1.2-1.3-2.2-2-2.2s-2.5-.9-4-2.1C20.1 99 20 98.4 20 89.5c0-7.3-.3-9.4-1.5-9.9-.8-.3-1.5-1.2-1.5-2 0-.7.7-1.6 1.5-2 1.2-.4 1.5-2.5 1.5-9.8.1-7.7.4-9.7 2-11.6 1.2-1.5 2.8-2.2 4.2-2 2.3.3 2.3.3 2.6 20.6.2 18.8.4 20.4 2.3 22.3 1.1 1.1 3.5 2.1 5.7 2.2 3.2.2 3.7-.1 4-2.1.2-1.5-.7-3.4-2.8-5.5l-3.2-3.2.6-10.5c.3-5.8.9-14.9 1.2-20.3l.7-9.7h-9c-8.5 0-9.1.1-11.6 2.8zm34.8 13.9c-4.3 2.2-7.5 5.4-7.5 7.4 0 .9-.7 2.2-1.5 2.9-1 .8-1.5 3.1-1.5 6.8 0 5.5 1.7 9.5 6.3 14.9 2.3 2.6 9.3 3.8 16.1 2.8 4.7-.7 4.7-.8 4.4-4.4-.2-2.6-.7-3.5-1.8-3.2-.8.3-3.7.6-6.5.8-4.3.4-5.4 0-7.8-2.2-5.1-4.9-3.6-6 8.6-6.3l10.7-.3v-3.4c0-1.8-.7-4.6-1.4-6.2-.8-1.5-1.7-3.6-2-4.5-.7-2.3-8-6.8-10.8-6.8-1.3.1-3.6.8-5.3 1.7zm7.8 6.4c2.9 1.3 5.2 5.5 3.6 6.5-1.6.9-11.5 1.2-12.9.4-2.7-1.7 1.8-7 6.7-8 .1 0 1.3.5 2.6 1.1zm20.2-6.5C75.1 65 74 66.8 74 72.3c0 5.3 2.8 9.6 6.2 9.7.9 0 3.3 1 5.3 2.1 2.6 1.6 3.5 2.7 3.3 4.3-.3 1.9-.9 2.1-7.5 2.1-8.1 0-10.1 1.1-8.4 4.4 1.5 2.7 4.9 3.5 11.6 2.8 6-.6 9.8-2.9 11.5-6.8.9-2.1.8-3.4-.7-6.5-1.7-3.6-3-4.6-13.3-9.4-.8-.4-1.6-1.6-1.8-2.7-.4-2.7 4.7-5 7.6-3.4 2.8 1.5 3.8 1.4 5.6-.5 2.5-2.4 1.9-4.4-1.9-6-4.4-1.8-8.2-1.7-12 .2z"/><path d="M104.5 62.7c-5.4 2.9-6.6 4.8-6.3 10.4.3 5.5-.1 5.2 11.1 10.5 3 1.5 3.7 2.4 3.7 4.7v2.8l-7.2-.2-7.3-.2-.3 3c-.3 2.9-.1 3.1 3.8 3.8 5.5.9 13.5-.3 15.3-2.3 5.1-6.1 3.7-13.4-3.3-17.1-2.2-1.1-4.6-2.1-5.3-2.1-1.6 0-4.9-3.8-4.3-4.9.3-.5 1.9-1.4 3.6-2.1 2.3-1 3.4-1 4.3-.1.6.6 2.4 1.1 3.9 1.1 2.5 0 2.8-.4 2.8-3.1 0-2.5-.6-3.2-3.5-4.5-4.4-1.8-7.2-1.7-11 .3z"/></g></svg>