<svg version="1" xmlns="http://www.w3.org/2000/svg" width="40pt" height="40pt" viewBox="0 0 52.000000 52.000000"><g fill="#1175ee"><path d="M13.7 11.2c-2 .5-4.3 2-4.9 3.1-1.4 2.7-1.3 12.2.1 15.9 1.6 4.2 8.6 11.3 13.1 13.3 3.9 1.7 4.1 1.7 8 0 6.5-2.9 12.6-10.2 13.9-16.6 1.6-7.7.4-13-3.4-14.9-3.7-1.8-21.4-2.3-26.8-.8zm25.1 2.4c3.1 1.3 3.2 1.5 3.2 7.4 0 7.3-2.2 12.1-7.9 17.3-5.3 4.8-8.2 5.4-12.3 2.9C14 36.4 10 29.5 10 21.1c0-7 1.2-8 12-9.4 4.3-.5 13.3.5 16.8 1.9z"/><path d="M23.8 16.7c-5 5.7-5.2 12.6-.7 17.8l3.2 3.6 2.4-2.2c3.4-3.3 4.7-9 3-13.1-1.4-3.1-4.9-7.8-5.9-7.8-.3 0-1.2.8-2 1.7z"/></g></svg>