<svg version="1" xmlns="http://www.w3.org/2000/svg" width="40pt" height="40pt" viewBox="0 0 156.000000 156.000000"><path d="M96.5 55.4c-1.7 1.2-1.7 1.8-.6 7.5 1.2 6.3.6 9.1-2.2 9.1-2.2 0-10.3 4.4-11.7 6.4-1 1.4-1.5 4.5-1.6 8.8 0 6.3.2 7 3 9.5 3.1 2.8 5 4.1 9.4 6.4 1.9 1.1 2.7.9 5.2-.9 1.6-1.2 3.3-2.2 3.8-2.2s1.8-1 2.9-2.3c1.8-2 2-3.7 2.2-20.4.1-17.9.1-18.2-2.1-19.4-1.2-.7-2.9-1.8-3.6-2.6-1.7-1.6-2.4-1.6-4.7.1zm1.4 29.9c1.5 1.9-3 7.3-5.3 6.4-1.6-.6-2.3-5.7-.9-7 1.1-1.2 5-.8 6.2.6zM25.5 72.6c-1.6 1.3-4.1 3-5.5 3.7-2.4 1.2-2.5 1.6-2.8 12.3-.2 9.7 0 11.2 1.4 11.8 2.7 1 5.2-.3 7.4-3.9 1.6-2.5 1.9-3.9 1.2-5.2-1.4-2.4 1.3-7.5 3.6-7.1 1.3.3 1.7 1.4 1.7 4.6 0 3.5.6 4.9 3.8 8.3 6.1 6.4 7.2 5.3 7.2-6.8.1-11.8-.9-13.7-9.2-17.3-1.3-.5-2.3-1.4-2.3-2 0-1.8-3.4-1-6.5 1.6zM57 73c-1.9 1.6-4 3-4.7 3-2.2 0-3 3.4-2.9 11.3.2 7.3.4 8 3.2 10.2 1.6 1.3 3.4 2.4 4.1 2.5.7 0 1.6.6 2 1.4 1.4 2.4 4.8 2.8 7.4.8 1.3-1 3.2-2.1 4.1-2.5 3.7-1.3 4.6-4.7 4-14.2-.7-8.4-.8-9-3-9.3-1.3-.2-2.6-1-2.9-1.8-.3-.8-1.2-1.4-1.9-1.4-.8 0-1.7-.7-2-1.5-.9-2.3-3.5-1.8-7.4 1.5zm66-1.5c-.7.8-1.9 1.5-2.6 1.5-.8 0-1.4.4-1.4.9 0 .6-1.2 1.6-2.7 2.3-2.7 1.3-2.8 1.6-3.1 10.2-.3 8.7-.2 9 2.5 11.2 1.5 1.3 3.3 2.3 4 2.4.7 0 1.6.7 2.1 1.7 1.3 2.2 6 2.1 9.5-.2 3.6-2.3 3.4-6.6-.3-7.5-1.8-.4-2.6-1.3-2.8-3.3-.3-2.8.6-3.5 2.5-1.6 1.3 1.3 6.8-1.4 8.6-4.3 1.3-2-1.9-8.8-4.1-8.8-.8 0-3.1-1.4-5.2-3-4.3-3.4-5.2-3.6-7-1.5z" fill="#1175ee"/></svg>