<svg version="1" xmlns="http://www.w3.org/2000/svg" width="40" height="40" viewBox="0 0 40.000000 40.000000"><path d="M11 24.9c0 12.2.1 12.9 2.1 13.4 2.5.7 3.3-1.2 2.6-5.8-.5-3.2-.4-3.5 1.8-3.5 3.7 0 7.2-1.9 8.4-4.7 3.3-7.2-1-12.3-10.4-12.3H11v12.9zm10.4-7.3c3 2.9 1 7.4-3.3 7.4-2.6 0-2.7-.2-2.5-4.3.2-2.3.3-4.3.3-4.5.2-.9 4.2.1 5.5 1.4zm9.1 3.8c-2.2 3.3-1.2 6 3 8.5 5.4 3.1 3.9 6.3-1.9 4.1-2.5-.9-2.7-.8-2.4 1.2.8 5.8 11 4.1 11.6-1.9.3-2.7-.3-3.6-3.7-6.1-3.5-2.6-3.9-3.1-2.6-4.2 1.2-1 2.1-1 4.1-.1 2.3 1 2.5.9 2.2-1.1-.2-1.9-1-2.4-4.5-2.6-3.5-.3-4.4.1-5.8 2.2z" fill="#1175ee"/></svg>