<svg version="1" xmlns="http://www.w3.org/2000/svg" width="40pt" height="40pt" viewBox="0 0 156.000000 156.000000"><g fill="#1175ee"><path d="M46.9 27.3c-5.4 4.7-6.4 7.5-6.2 17.5.1 5.5.6 9.9 1.3 10.8 1.7 1.9-.2 4.1-4.3 4.9-5.6 1.2-11.7 4.6-16.2 9.2-7.2 7.2-6.9 12 .9 19.6 4.2 4.1 9.2 6.9 14.6 8.1 1.4.4 3.4 1.3 4.4 2.1 1.5 1.2 1.7 1.7.7 2.9-.7.9-1.3 5.1-1.4 10.3-.2 11.5 1.7 16.2 8 19.3 4.6 2.3 7.9 2.1 13.1-.6 1.5-.8 3.2-1.4 3.7-1.4.6 0 3.6-2.3 6.8-5 3.2-2.8 6-5 6.2-5 .2 0 2.5 1.8 5.2 4 7.1 5.9 7.1 6 8 6 .4 0 2 .6 3.5 1.4 5.2 2.7 8.5 2.9 13.1.6 6.3-3.2 8.2-7.8 8-19.5-.1-5.4-.6-9.1-1.2-9.3-3.3-1.1 2.4-6.2 6.9-6.2 5.1 0 17.1-10.4 18.5-16.2 1.8-7.1-8.1-16.7-20.9-20.2-4.2-1.2-6.9-4.1-5-5.4.7-.4 1.5-4.4 1.9-8.9.6-7.4.5-8.7-1.5-12.5-3.2-6.3-6.6-8.7-12.2-8.8-5.5 0-13.9 4-19.7 9.5-2 1.9-4 3.5-4.6 3.5-.5 0-2.5-1.5-4.5-3.4-9-8.7-21.5-12.1-27.1-7.3zm17.5 7.4c7.5 4.6 9.6 6.4 9.6 8.1 0 .8-2 3.5-4.5 6S65 53.7 65 54.2c0 .4-1.7.8-3.9.8-2.1 0-5.5.7-7.6 1.6-6.1 2.5-6.5 1.9-6.5-10.3 0-9.6.2-10.9 2.2-13 3.2-3.4 7.9-3 15.2 1.4zm43.6-1.2c2.1 2.2 2.3 3.3 2.2 12.6-.1 5.7-.6 10.7-1.1 11.2-.7.7-2.5.4-5.3-.6-2.4-1-6-1.7-8.1-1.7-2 0-3.7-.4-3.7-.8 0-.5-2-2.9-4.5-5.4-5.1-5.2-5.5-6.8-2.2-9.2 11.6-8.8 18.5-10.6 22.7-6.1zM83.7 51c2.6 3.2 1.5 4-5.2 4-7.6 0-8.2-1.1-3.3-5.9 3-3 3.2-3 5.2-1.3 1.1.9 2.6 2.4 3.3 3.2zm5.9 9.8c1.1.6 2.9 2.8 4 4.9 1 2.1 2.5 4.4 3.2 5.1.6.7 1.2 2 1.2 2.8 0 .8.7 1.7 1.5 2 .8.4 1.5 1.8 1.5 3.4 0 1.6-.7 3-1.5 3.4-.8.3-1.5 1.2-1.5 2 0 2.1-7.6 13.2-9.5 14-.9.3-5.7.6-10.7.6-8.8 0-9.1-.1-11.9-3.1-1.6-1.7-3.2-4.2-3.5-5.4-.3-1.3-1.2-2.6-2-2.9-.8-.3-1.4-1.5-1.4-2.6s-.7-2.3-1.5-2.6c-1.9-.8-1.9-4.8 0-6.4.8-.7 1.5-2.1 1.5-3.2 0-1 .6-2.1 1.4-2.4.8-.3 1.7-1.6 2-2.9.3-1.2 1.8-3.6 3.3-5.1 2.7-2.8 3.1-2.9 12.3-2.8 5.3 0 10.5.6 11.6 1.2zM59 62.9c0 1.1-.5 2.3-1 2.6-.6.4-1.6 2-2.3 3.6-1.1 2.8-1.3 2.9-3.4 1.4-1.6-1.1-2.3-2.6-2.3-4.9 0-4.2.5-4.6 5.2-4.6 3.1 0 3.8.4 3.8 1.9zm47.8 2.3c.2 2.8-.2 4-2 5.2-2.2 1.6-2.3 1.6-3.5-1.3-.7-1.6-1.7-3.2-2.3-3.6-.5-.3-1-1.5-1-2.6 0-1.7.6-2 4.3-1.7 4.1.3 4.2.4 4.5 4zm-61.5 1.7c.9 1.6 1.7 3.8 1.7 4.9 0 1.1.7 2.5 1.5 3.2 1.9 1.6 1.9 5 .1 8.7-.7 1.5-2.2 4.5-3.1 6.5-1.9 4-4.4 4.9-6.5 2.3-.7-.8-2-1.5-2.9-1.5-.9 0-3.9-1.5-6.6-3.3-7.9-5.2-8.6-11.2-1.8-15.7 2.1-1.4 4.4-3.1 5.1-3.7.7-.7 2.2-1.3 3.1-1.3 1 0 2.4-.7 3.1-1.5 1.9-2.3 4.4-1.8 6.3 1.4zm72.7-1.4c.7.8 2 1.5 3 1.5s2.3.7 3 1.5c.7.8 1.8 1.5 2.5 1.5.8 0 2.7 1.4 4.4 3.1 3.4 3.4 4 7.2 1.6 10.6-1.5 2.2-9.6 7.3-11.5 7.3-.6 0-1.8.7-2.6 1.5-2.6 2.5-5 1.8-6.9-2.3-1-2-2.4-4.9-3.2-6.4-1.7-3.5-1.7-7.3.2-8.8.8-.7 1.5-2.1 1.5-3.2 0-2.9 3.2-7.8 5.1-7.8.9 0 2.2.7 2.9 1.5zM56 89.2c.6 1.3 1.5 3 2.2 3.9 2.1 2.9.4 4.7-3.9 4-3.4-.6-3.8-1-4.1-3.7-.2-1.9.3-3.8 1.3-4.8 2.2-2.2 3.4-2 4.5.6zm50-.3c.5 1.1 1 3.3 1 5 0 3-.1 3.1-4.5 3.1-3.8 0-4.5-.3-4.5-1.9 0-1.1.5-2.3 1.1-2.6.5-.4 1.4-1.8 1.9-3.1 1.1-2.9 3.5-3.1 5-.5zm-53 12.6c1.4.8 4.6 1.4 7.3 1.5 2.6 0 4.7.4 4.7.8 0 .5 2 2.9 4.5 5.4 2.5 2.5 4.5 5.4 4.5 6.4-.1 2.2-2.9 4.4-10.6 8.5-6.1 3.3-10.3 3.6-13.9 1.3-2.4-1.6-2.5-2-2.5-12.8 0-13.5.4-14.3 6-11.1zm57 6c1.2 14.3-.8 19.5-7.6 19.5-5.6 0-19.3-8-19.4-11.3 0-.9 2-3.8 4.5-6.4 2.5-2.5 4.5-5 4.5-5.4 0-.5 2.1-.9 4.8-.9 2.6-.1 5.8-.7 7.2-1.5 4.5-2.6 5.4-1.6 6 6zm-25.3-3c.3 1-5 7.5-6.2 7.5-.8 0-6.5-6.2-6.5-7.1 0-1.5 1.8-2 6.9-1.7 3 .2 5.6.8 5.8 1.3z"/><path d="M74 69.7c-4.1 1.6-6 4.6-6 9.4 0 4 .4 5.1 3 7.2 5.5 4.7 9.5 4.7 14.9.1 2.7-2.2 3.1-3.3 3.1-7.3 0-3.7-.5-5.2-2.4-7-2.5-2.3-9.5-3.7-12.6-2.4z"/></g></svg>