<svg version="1" xmlns="http://www.w3.org/2000/svg" width="38pt" height="40pt" viewBox="0 0 52.000000 52.000000"><path d="M4 12.2c-1.95 3.25-3.55 8.6-2.75 9.35.2.25 3.75-.7 7.85-2.1 9.65-3.3 24.9-7.25 31.05-8.05 10.7-1.45 5-2.4-14.1-2.4H5.95L4 12.2zm33.5 2.4c-28.9 6.9-30.45 11.35-3.05 8.75L51.8 21.7l-1.5-4.35c-1.7-5-2.6-5.2-12.8-2.75zM13.3 30.4C.25 31.7.45 31.55 2.55 36.9c2.05 5.05 2.8 5.1 18.55 1.2 29.85-7.4 26.15-11.05-7.8-7.7zM44 35.05c-2.45 1-10.55 3.2-18 4.95-21.15 4.85-21.15 4.8-.9 4.9 20.65.1 20.35.2 24.3-7.6 2.55-5.1 2.05-5.3-5.4-2.25z" fill="#1175ee"/></svg>